<?xml version="1.0" standalone="no"?>
<!DOCTYPE svg PUBLIC "-//W3C//DTD SVG 1.1//EN" "http://www.w3.org/Graphics/SVG/1.1/DTD/svg11.dtd">
<svg xmlns="http://www.w3.org/2000/svg"><metadata>This SVG WebFont was generated by YouWorkForThem.
Copyright (c)2019, Radnika Next designed and developed by Alfredo Marco Pradil (ammpradil@gmail.com).</metadata><defs><font horiz-adv-x="0" id="ywftsvg"><font-face ascent="1638" bbox="-1620 -514 2353 2494" cap-height="1587" descent="-410" font-family="" font-stretch="normal" font-weight="500" panose-1="0 0 6 0 0 0 0 0 0 0" underline-position="0" underline-thickness="0" unicode-range="U+0020-FB02" units-per-em="2048" x-height="1178"/><missing-glyph d="M160 0v1587h921v-1587h-921zM274 115h691v1358h-691v-1358z" horiz-adv-x="1241"/><glyph d="M195 0v1016h-195v162h195v75q0 154 92 244t262 90h151v-176h-112q-76 0 -115 -45t-39 -125v-63h266v-162h-266v-1016h-239zM870 1343v244h258v-244h-258zM883 0v1178h237v-1178h-237z" glyph-name="uniFB01" horiz-adv-x="1269" unicode="fi"/><glyph d="M195 0v1016h-195v162h195v75q0 154 92 244t262 90h151v-176h-112q-76 0 -115 -45t-39 -125v-63h266v-162h-266v-1016h-239zM885 0v1587h239v-1587h-239z" glyph-name="uniFB02" horiz-adv-x="1275" unicode="fl"/><glyph d="M1251 1411q-76 0 -114.5 -45t-38.5 -125v-63h266v-162h-266v-1016h-240v1016h-424v-1016h-239v1016h-195v162h195v75q0 154 92 244t262 90h151v-176h-112q-76 0 -115 -45t-39 -125v-63h424v75q0 154 92 244t262 90h152v-176h-113z" glyph-name="f_f.liga" horiz-adv-x="1392" unicode="ff"/><glyph d="M933.5 -70q-360.5 0 -615.5 255t-255 615.5t255 615.5t615.5 255t615.5 -255t255 -615.5t-255 -615.5t-615.5 -255zM934 12q328 0 558 230.5t230 558t-230 558t-558 230.5t-559.5 -230.5t-231.5 -558t231.5 -558t559.5 -230.5zM479 461q-16 0 -27.5 11t-11.5 28v602 q0 16 11.5 28.5t27.5 12.5q18 0 30.5 -12.5t12.5 -28.5v-602q0 -39 -43 -39zM934 461q-39 0 -39 39v602q0 16 11.5 28.5t27.5 12.5t27.5 -12.5t11.5 -28.5v-602q0 -39 -39 -39zM1384.5 461q-16.5 0 -24.5 10l-305 303q-8 10 -8 27q0 18 8 26l305 303q8 12 24.5 12.5 t28.5 -12t12 -29t-10 -26.5l-274 -274l274 -275q10 -10 10 -26q0 -14 -12 -26.5t-28.5 -12.5zM633 762q-39 0 -39 39t39 39h149q16 0 28.5 -11.5t12.5 -28t-12 -27.5t-29 -11h-149z" glyph-name="h_d_c_o.liga" horiz-adv-x="1869" unicode="hdco"/><glyph d="M1747 1587l-252 -297h-172l199 297h225zM397 977q43 121 142.5 173t259.5 52v-215q-233 -8 -320.5 -125t-87.5 -381v-481h-239v1178h235v-201h10zM1409 1202q219 0 348 -100.5t129 -290.5v-811h-235v127h-17q-182 -152 -401 -152q-176 0 -275.5 89.5t-99.5 242.5 q0 164 113.5 254t296.5 141l383 103v8q0 100 -65.5 154.5t-188.5 54.5q-221 0 -383 -182l-133 147q202 215 528 215zM1292 156q182 0 359 180v285l-342 -99q-213 -61 -213 -200q0 -74 52 -120t144 -46z" glyph-name="r_aacute.liga" horiz-adv-x="2013" unicode="rá"/><glyph d="M1407 1298q-131 0 -212 73t-81 216h148q0 -88 39.5 -131t105.5 -43t105.5 44t39.5 130h152q0 -143 -82 -216t-215 -73zM397 977q43 121 142.5 173t259.5 52v-215q-233 -8 -320.5 -125t-87.5 -381v-481h-239v1178h235v-201h10zM1409 1202q219 0 348 -100.5t129 -290.5 v-811h-235v127h-17q-182 -152 -401 -152q-176 0 -275.5 89.5t-99.5 242.5q0 164 113.5 254t296.5 141l383 103v8q0 100 -65.5 154.5t-188.5 54.5q-221 0 -383 -182l-133 147q202 215 528 215zM1292 156q182 0 359 180v285l-342 -99q-213 -61 -213 -200q0 -74 52 -120 t144 -46z" glyph-name="r_abreve.liga" horiz-adv-x="2013" unicode="ră"/><glyph d="M1747 1997l-252 -297h-174l201 297h225zM1407 1298q-131 0 -212 73t-81 216h148q0 -88 39.5 -131t105.5 -43t105.5 44t39.5 130h152q0 -143 -82 -216t-215 -73zM397 977q43 121 142.5 173t259.5 52v-215q-233 -8 -320.5 -125t-87.5 -381v-481h-239v1178h235v-201h10z M1409 1202q219 0 348 -100.5t129 -290.5v-811h-235v127h-17q-182 -152 -401 -152q-176 0 -275.5 89.5t-99.5 242.5q0 164 113.5 254t296.5 141l383 103v8q0 100 -65.5 154.5t-188.5 54.5q-221 0 -383 -182l-133 147q202 215 528 215zM1292 156q182 0 359 180v285l-342 -99 q-213 -61 -213 -200q0 -74 52 -120t144 -46z" glyph-name="r_uni1EAF.liga" horiz-adv-x="2013" unicode="rắ"/><glyph d="M1407 1298q-131 0 -212 73t-81 216h148q0 -88 39.5 -131t105.5 -43t105.5 44t39.5 130h152q0 -143 -82 -216t-215 -73zM397 977q43 121 142.5 173t259.5 52v-215q-233 -8 -320.5 -125t-87.5 -381v-481h-239v1178h235v-201h10zM1409 1202q219 0 348 -100.5t129 -290.5 v-811h-235v127h-17q-182 -152 -401 -152q-176 0 -275.5 89.5t-99.5 242.5q0 164 113.5 254t296.5 141l383 103v8q0 100 -65.5 154.5t-188.5 54.5q-221 0 -383 -182l-133 147q202 215 528 215zM1292 156q182 0 359 180v285l-342 -99q-213 -61 -213 -200q0 -74 52 -120 t144 -46zM1294 -410v220h230v-220h-230z" glyph-name="r_uni1EB7.liga" horiz-adv-x="2013" unicode="rặ"/><glyph d="M1495 1700h-174l-252 297h225zM1262 1587q0 -88 39.5 -131t105.5 -43t105.5 44t39.5 130h152q0 -143 -82 -216t-215 -73q-131 0 -212 73t-81 216h148zM397 977q43 121 142.5 173t259.5 52v-215q-233 -8 -320.5 -125t-87.5 -381v-481h-239v1178h235v-201h10zM1409 1202 q219 0 348 -100.5t129 -290.5v-811h-235v127h-17q-182 -152 -401 -152q-176 0 -275.5 89.5t-99.5 242.5q0 164 113.5 254t296.5 141l383 103v8q0 100 -65.5 154.5t-188.5 54.5q-221 0 -383 -182l-133 147q202 215 528 215zM1292 156q182 0 359 180v285l-342 -99 q-213 -61 -213 -200q0 -74 52 -120t144 -46z" glyph-name="r_uni1EB1.liga" horiz-adv-x="2013" unicode="rằ"/><glyph d="M1382 1982q-47 0 -94 -36l-57 92q78 47 168 47q96 0 154.5 -48t58.5 -124q0 -119 -135 -158v-74h-136v127q125 16 125 99q0 33 -22.5 54t-61.5 21zM1407 1298q-131 0 -212 73t-81 216h148q0 -88 39.5 -131t105.5 -43t105.5 44t39.5 130h152q0 -143 -82 -216t-215 -73z M397 977q43 121 142.5 173t259.5 52v-215q-233 -8 -320.5 -125t-87.5 -381v-481h-239v1178h235v-201h10zM1409 1202q219 0 348 -100.5t129 -290.5v-811h-235v127h-17q-182 -152 -401 -152q-176 0 -275.5 89.5t-99.5 242.5q0 164 113.5 254t296.5 141l383 103v8 q0 100 -65.5 154.5t-188.5 54.5q-221 0 -383 -182l-133 147q202 215 528 215zM1292 156q182 0 359 180v285l-342 -99q-213 -61 -213 -200q0 -74 52 -120t144 -46z" glyph-name="r_uni1EB3.liga" horiz-adv-x="2013" unicode="rẳ"/><glyph d="M1276 1870q-70 0 -70 -123h-121q0 252 175 252q72 0 119.5 -35t83.5 -68.5t77 -33.5q74 0 74 135h117q0 -264 -179 -264q-68 0 -114.5 34.5t-83.5 68.5t-78 34zM1407 1413q66 0 105.5 44t39.5 130h152q0 -143 -82 -216t-215 -73q-131 0 -212 73t-81 216h148 q0 -88 39.5 -131t105.5 -43zM397 977q43 121 142.5 173t259.5 52v-215q-233 -8 -320.5 -125t-87.5 -381v-481h-239v1178h235v-201h10zM1409 1202q219 0 348 -100.5t129 -290.5v-811h-235v127h-17q-182 -152 -401 -152q-176 0 -275.5 89.5t-99.5 242.5q0 164 113.5 254 t296.5 141l383 103v8q0 100 -65.5 154.5t-188.5 54.5q-221 0 -383 -182l-133 147q202 215 528 215zM1292 156q182 0 359 180v285l-342 -99q-213 -61 -213 -200q0 -74 52 -120t144 -46z" glyph-name="r_uni1EB5.liga" horiz-adv-x="2013" unicode="rẵ"/><glyph d="M1505 1290h-194l-195 297h191l102 -168l100 168h191zM397 977q43 121 142.5 173t259.5 52v-215q-233 -8 -320.5 -125t-87.5 -381v-481h-239v1178h235v-201h10zM1409 1202q219 0 348 -100.5t129 -290.5v-811h-235v127h-17q-182 -152 -401 -152q-176 0 -275.5 89.5 t-99.5 242.5q0 164 113.5 254t296.5 141l383 103v8q0 100 -65.5 154.5t-188.5 54.5q-221 0 -383 -182l-133 147q202 215 528 215zM1292 156q182 0 359 180v285l-342 -99q-213 -61 -213 -200q0 -74 52 -120t144 -46z" glyph-name="r_uni01CE.liga" horiz-adv-x="2013" unicode="rǎ"/><glyph d="M1409 1460l-102 -170h-191l195 297h194l195 -297h-189zM397 977q43 121 142.5 173t259.5 52v-215q-233 -8 -320.5 -125t-87.5 -381v-481h-239v1178h235v-201h10zM1409 1202q219 0 348 -100.5t129 -290.5v-811h-235v127h-17q-182 -152 -401 -152q-176 0 -275.5 89.5 t-99.5 242.5q0 164 113.5 254t296.5 141l383 103v8q0 100 -65.5 154.5t-188.5 54.5q-221 0 -383 -182l-133 147q202 215 528 215zM1292 156q182 0 359 180v285l-342 -99q-213 -61 -213 -200q0 -74 52 -120t144 -46z" glyph-name="r_acircumflex.liga" horiz-adv-x="2013" unicode="râ"/><glyph d="M1747 1997l-252 -297h-172l199 297h225zM1409 1460l-102 -170h-191l195 297h194l195 -297h-189zM397 977q43 121 142.5 173t259.5 52v-215q-233 -8 -320.5 -125t-87.5 -381v-481h-239v1178h235v-201h10zM1409 1202q219 0 348 -100.5t129 -290.5v-811h-235v127h-17 q-182 -152 -401 -152q-176 0 -275.5 89.5t-99.5 242.5q0 164 113.5 254t296.5 141l383 103v8q0 100 -65.5 154.5t-188.5 54.5q-221 0 -383 -182l-133 147q202 215 528 215zM1292 156q182 0 359 180v285l-342 -99q-213 -61 -213 -200q0 -74 52 -120t144 -46z" glyph-name="r_uni1EA5.liga" horiz-adv-x="2013" unicode="rấ"/><glyph d="M1409 1460l-102 -170h-191l195 297h194l195 -297h-189zM397 977q43 121 142.5 173t259.5 52v-215q-233 -8 -320.5 -125t-87.5 -381v-481h-239v1178h235v-201h10zM1409 1202q219 0 348 -100.5t129 -290.5v-811h-235v127h-17q-182 -152 -401 -152q-176 0 -275.5 89.5 t-99.5 242.5q0 164 113.5 254t296.5 141l383 103v8q0 100 -65.5 154.5t-188.5 54.5q-221 0 -383 -182l-133 147q202 215 528 215zM1292 156q182 0 359 180v285l-342 -99q-213 -61 -213 -200q0 -74 52 -120t144 -46zM1294 -410v220h230v-220h-230z" glyph-name="r_uni1EAD.liga" horiz-adv-x="2013" unicode="rậ"/><glyph d="M1495 1700h-172l-254 297h225zM1116 1290l195 297h194l195 -297h-189l-102 170l-102 -170h-191zM397 977q43 121 142.5 173t259.5 52v-215q-233 -8 -320.5 -125t-87.5 -381v-481h-239v1178h235v-201h10zM1409 1202q219 0 348 -100.5t129 -290.5v-811h-235v127h-17 q-182 -152 -401 -152q-176 0 -275.5 89.5t-99.5 242.5q0 164 113.5 254t296.5 141l383 103v8q0 100 -65.5 154.5t-188.5 54.5q-221 0 -383 -182l-133 147q202 215 528 215zM1292 156q182 0 359 180v285l-342 -99q-213 -61 -213 -200q0 -74 52 -120t144 -46z" glyph-name="r_uni1EA7.liga" horiz-adv-x="2013" unicode="rầ"/><glyph d="M1384 1982q-49 0 -96 -36l-57 92q78 47 168 47q96 0 154.5 -48t58.5 -124q0 -121 -135 -158v-74h-136v127q125 16 125 99q0 33 -21.5 54t-60.5 21zM1409 1460l-102 -170h-191l195 297h194l195 -297h-189zM397 977q43 121 142.5 173t259.5 52v-215q-233 -8 -320.5 -125 t-87.5 -381v-481h-239v1178h235v-201h10zM1409 1202q219 0 348 -100.5t129 -290.5v-811h-235v127h-17q-182 -152 -401 -152q-176 0 -275.5 89.5t-99.5 242.5q0 164 113.5 254t296.5 141l383 103v8q0 100 -65.5 154.5t-188.5 54.5q-221 0 -383 -182l-133 147q202 215 528 215 zM1292 156q182 0 359 180v285l-342 -99q-213 -61 -213 -200q0 -74 52 -120t144 -46z" glyph-name="r_uni1EA9.liga" horiz-adv-x="2013" unicode="rẩ"/><glyph d="M1276 1870q-72 0 -68 -123h-121q0 252 173 252q72 0 119.5 -35t83.5 -68.5t77 -33.5q74 0 74 135h117q0 -264 -179 -264q-53 0 -94 21.5t-63.5 47t-53 47t-65.5 21.5zM1311 1587h194l195 -297h-189l-102 170l-102 -170h-191zM397 977q43 121 142.5 173t259.5 52v-215 q-233 -8 -320.5 -125t-87.5 -381v-481h-239v1178h235v-201h10zM1409 1202q219 0 348 -100.5t129 -290.5v-811h-235v127h-17q-182 -152 -401 -152q-176 0 -275.5 89.5t-99.5 242.5q0 164 113.5 254t296.5 141l383 103v8q0 100 -65.5 154.5t-188.5 54.5q-221 0 -383 -182 l-133 147q202 215 528 215zM1292 156q182 0 359 180v285l-342 -99q-213 -61 -213 -200q0 -74 52 -120t144 -46z" glyph-name="r_uni1EAB.liga" horiz-adv-x="2013" unicode="rẫ"/><glyph d="M1356 1587v-237h-221v237h221zM1681 1587v-237h-221v237h221zM397 977q43 121 142.5 173t259.5 52v-215q-233 -8 -320.5 -125t-87.5 -381v-481h-239v1178h235v-201h10zM1409 1202q219 0 348 -100.5t129 -290.5v-811h-235v127h-17q-182 -152 -401 -152q-176 0 -275.5 89.5 t-99.5 242.5q0 164 113.5 254t296.5 141l383 103v8q0 100 -65.5 154.5t-188.5 54.5q-221 0 -383 -182l-133 147q202 215 528 215zM1292 156q182 0 359 180v285l-342 -99q-213 -61 -213 -200q0 -74 52 -120t144 -46z" glyph-name="r_adieresis.liga" horiz-adv-x="2013" unicode="rä"/><glyph d="M397 977q43 121 142.5 173t259.5 52v-215q-233 -8 -320.5 -125t-87.5 -381v-481h-239v1178h235v-201h10zM1409 1202q219 0 348 -100.5t129 -290.5v-811h-235v127h-17q-182 -152 -401 -152q-176 0 -275.5 89.5t-99.5 242.5q0 164 113.5 254t296.5 141l383 103v8 q0 100 -65.5 154.5t-188.5 54.5q-221 0 -383 -182l-133 147q202 215 528 215zM1292 156q182 0 359 180v285l-342 -99q-213 -61 -213 -200q0 -74 52 -120t144 -46zM1294 -410v220h230v-220h-230z" glyph-name="r_uni1EA1.liga" horiz-adv-x="2013" unicode="rạ"/><glyph d="M1495 1290h-172l-254 297h225zM397 977q43 121 142.5 173t259.5 52v-215q-233 -8 -320.5 -125t-87.5 -381v-481h-239v1178h235v-201h10zM1409 1202q219 0 348 -100.5t129 -290.5v-811h-235v127h-17q-182 -152 -401 -152q-176 0 -275.5 89.5t-99.5 242.5q0 164 113.5 254 t296.5 141l383 103v8q0 100 -65.5 154.5t-188.5 54.5q-221 0 -383 -182l-133 147q202 215 528 215zM1292 156q182 0 359 180v285l-342 -99q-213 -61 -213 -200q0 -74 52 -120t144 -46z" glyph-name="r_agrave.liga" horiz-adv-x="2013" unicode="rà"/><glyph d="M1382 1573q-47 0 -94 -37l-57 92q78 47 168 47q96 0 154.5 -48t58.5 -124q0 -119 -135 -157v-74h-136v127q125 16 125 98q0 33 -22.5 54.5t-61.5 21.5zM397 977q43 121 142.5 173t259.5 52v-215q-233 -8 -320.5 -125t-87.5 -381v-481h-239v1178h235v-201h10zM1409 1202 q219 0 348 -100.5t129 -290.5v-811h-235v127h-17q-182 -152 -401 -152q-176 0 -275.5 89.5t-99.5 242.5q0 164 113.5 254t296.5 141l383 103v8q0 100 -65.5 154.5t-188.5 54.5q-221 0 -383 -182l-133 147q202 215 528 215zM1292 156q182 0 359 180v285l-342 -99 q-213 -61 -213 -200q0 -74 52 -120t144 -46z" glyph-name="r_uni1EA3.liga" horiz-adv-x="2013" unicode="rả"/><glyph d="M1733 1452v-141h-650v141h650zM397 977q43 121 142.5 173t259.5 52v-215q-233 -8 -320.5 -125t-87.5 -381v-481h-239v1178h235v-201h10zM1409 1202q219 0 348 -100.5t129 -290.5v-811h-235v127h-17q-182 -152 -401 -152q-176 0 -275.5 89.5t-99.5 242.5q0 164 113.5 254 t296.5 141l383 103v8q0 100 -65.5 154.5t-188.5 54.5q-221 0 -383 -182l-133 147q202 215 528 215zM1292 156q182 0 359 180v285l-342 -99q-213 -61 -213 -200q0 -74 52 -120t144 -46z" glyph-name="r_amacron.liga" horiz-adv-x="2013" unicode="rā"/><glyph d="M397 977q43 121 142.5 173t259.5 52v-215q-233 -8 -320.5 -125t-87.5 -381v-481h-239v1178h235v-201h10zM1886 0q-102 -70 -146 -124t-44 -132q0 -39 22.5 -60.5t57.5 -21.5q63 0 110 47v-147q-61 -23 -123 -23q-100 0 -154.5 49.5t-54.5 132.5q0 162 205 279h-108v127 h-17q-182 -152 -401 -152q-176 0 -275.5 89.5t-99.5 242.5q0 164 113.5 254t296.5 141l383 103v8q0 100 -65.5 154.5t-188.5 54.5q-221 0 -383 -182l-133 147q203 215 528 215q219 0 348 -100.5t129 -290.5v-811zM1292 156q182 0 359 180v285l-342 -99q-213 -61 -213 -200 q0 -74 52 -120t144 -46z" glyph-name="r_aogonek.liga" horiz-adv-x="2013" unicode="rą"/><glyph d="M1409 1251q-88 0 -148.5 61.5t-60.5 149.5q0 86 61.5 146.5t147.5 60.5t147.5 -60.5t61.5 -146.5q0 -88 -60.5 -149.5t-148.5 -61.5zM1409 1554q-41 0 -66.5 -25.5t-25.5 -68.5q0 -41 25.5 -66.5t66.5 -25.5q39 0 66.5 26.5t27.5 65.5t-27.5 66.5t-66.5 27.5zM397 977 q43 121 142.5 173t259.5 52v-215q-233 -8 -320.5 -125t-87.5 -381v-481h-239v1178h235v-201h10zM1409 1202q219 0 348 -100.5t129 -290.5v-811h-235v127h-17q-182 -152 -401 -152q-176 0 -275.5 89.5t-99.5 242.5q0 164 113.5 254t296.5 141l383 103v8q0 100 -65.5 154.5 t-188.5 54.5q-221 0 -383 -182l-133 147q202 215 528 215zM1292 156q182 0 359 180v285l-342 -99q-213 -61 -213 -200q0 -74 52 -120t144 -46z" glyph-name="r_aring.liga" horiz-adv-x="2013" unicode="rå"/><glyph d="M1409 1251q-88 0 -148.5 61.5t-60.5 149.5q0 86 61.5 146.5t147.5 60.5q33 0 68 -10l129 190h225l-240 -282q27 -49 27 -105q0 -88 -60.5 -149.5t-148.5 -61.5zM1409 1554q-41 0 -66.5 -25.5t-25.5 -68.5q0 -41 25.5 -66.5t66.5 -25.5q39 0 66.5 26.5t27.5 65.5 q0 35 -20.5 60.5t-52.5 31.5h-23zM397 977q43 121 142.5 173t259.5 52v-215q-233 -8 -320.5 -125t-87.5 -381v-481h-239v1178h235v-201h10zM1409 1202q219 0 348 -100.5t129 -290.5v-811h-235v127h-17q-182 -152 -401 -152q-176 0 -275.5 89.5t-99.5 242.5q0 164 113.5 254 t296.5 141l383 103v8q0 100 -65.5 154.5t-188.5 54.5q-221 0 -383 -182l-133 147q202 215 528 215zM1292 156q182 0 359 180v285l-342 -99q-213 -61 -213 -200q0 -74 52 -120t144 -46z" glyph-name="r_aringacute.liga" horiz-adv-x="2013" unicode="rǻ"/><glyph d="M1276 1460q-74 0 -70 -123h-121q0 252 175 252q72 0 118.5 -34.5t83.5 -68.5t78 -34q72 0 72 135h119q0 -264 -181 -264q-53 0 -94 21.5t-63.5 47t-53 47t-63.5 21.5zM397 977q43 121 142.5 173t259.5 52v-215q-233 -8 -320.5 -125t-87.5 -381v-481h-239v1178h235v-201 h10zM1409 1202q219 0 348 -100.5t129 -290.5v-811h-235v127h-17q-182 -152 -401 -152q-176 0 -275.5 89.5t-99.5 242.5q0 164 113.5 254t296.5 141l383 103v8q0 100 -65.5 154.5t-188.5 54.5q-221 0 -383 -182l-133 147q202 215 528 215zM1292 156q182 0 359 180v285 l-342 -99q-213 -61 -213 -200q0 -74 52 -120t144 -46z" glyph-name="r_atilde.liga" horiz-adv-x="2013" unicode="rã"/><glyph d="M1028 0v1016h-194v162h194v75q0 154 92 244t262 90h152v-176h-113q-76 0 -114.5 -45t-38.5 -125v-63h266v-162h-266v-1016h-240zM152 0v1178h235v-201h10q43 121 142.5 173t259.5 52v-215q-233 -8 -320.5 -125t-87.5 -381v-481h-239z" glyph-name="r_f.liga" horiz-adv-x="1533" unicode="rf"/><glyph d="M1321 0q-156 0 -229.5 81t-73.5 251v684h-166v162h166v409h239v-409h275v-162h-275v-637q0 -109 32 -149t120 -40h123v-190h-211zM152 0v1178h235v-201h10q43 121 142.5 173t259.5 52v-215q-233 -8 -320.5 -125t-87.5 -381v-481h-239z" glyph-name="r_t.liga" horiz-adv-x="1585" unicode="rt"/><glyph d="M152 0v1178h235v-201h10q43 121 142.5 173t259.5 52v-215q-233 -8 -320.5 -125t-87.5 -381v-481h-239zM811 0l383 621l-350 557h262l246 -424h10l252 424h260l-350 -557l383 -621h-267l-276 471h-12l-275 -471h-266z" glyph-name="r_x.liga" horiz-adv-x="1914" unicode="rx"/><glyph d="M152 0v1178h235v-201h10q43 121 142.5 173t259.5 52v-215q-233 -8 -320.5 -125t-87.5 -381v-481h-239zM852 -410v195h133q117 0 179.5 57.5t62.5 159.5q0 61 -27 135l-364 1041h256l258 -885h14l256 885h258l-422 -1223q-72 -199 -173 -282t-292 -83h-139z" glyph-name="r_y.liga" horiz-adv-x="1884" unicode="ry"/><glyph d="M160 0v1587h921v-1587h-921zM274 115h691v1358h-691v-1358z" glyph-name=".notdef" horiz-adv-x="1241"/><glyph glyph-name="glyph1"/><glyph glyph-name="glyph2" horiz-adv-x="681"/><glyph glyph-name="space" horiz-adv-x="536" unicode=" "/><glyph d="M256 469q-4 66 -15.5 220.5t-17.5 268t-6 220.5v409h260v-409q0 -104 -6 -223t-16.5 -263.5t-14.5 -222.5h-184zM170 0v293h352v-293h-352z" glyph-name="exclam" horiz-adv-x="694" unicode="!"/><glyph d="M182 961v626h205v-626h-205zM580 961v626h204v-626h-204z" glyph-name="quotedbl" horiz-adv-x="966" unicode="&quot;"/><glyph d="M1542 989h-309l-66 -362h312l-33 -183h-309l-80 -444h-189l78 444h-383l-78 -444h-188l78 444h-309l30 183h312l63 362h-309l31 180h311l74 418h188l-74 -418h383l74 418h190l-73 -418h309zM979 627l63 362h-383l-63 -362h383z" glyph-name="numbersign" horiz-adv-x="1640" unicode="#"/><glyph d="M1364 473q0 -211 -140.5 -345t-371.5 -155v-198h-188v200q-193 20 -342.5 109.5t-229.5 237.5l176 153q78 -137 216.5 -214t301.5 -77q147 0 238.5 67.5t91.5 201.5q0 203 -266 247l-227 37q-219 37 -336 145.5t-117 284.5q0 193 132 315t362 136v201h188v-207 q276 -39 467 -242l-145 -166q-186 203 -459 203q-139 0 -220 -59.5t-81 -159.5q0 -170 264 -217l240 -41q205 -35 325.5 -148.5t120.5 -308.5z" glyph-name="dollar" horiz-adv-x="1472" unicode="$"/><glyph d="M430 911q-143 0 -245.5 102.5t-102.5 250.5q0 143 102.5 245.5t245.5 102.5q145 0 247.5 -101.5t102.5 -246.5q0 -150 -100 -251.5t-250 -101.5zM297 0l852 1587h213l-854 -1587h-211zM430 1096q70 0 119 49t49 118.5t-49 118t-119 48.5q-68 0 -118 -49.5t-50 -117 t50 -117.5t118 -50zM1223 -23q-143 0 -244.5 102.5t-101.5 248t101 247t245 101.5q145 0 248.5 -101.5t103.5 -246.5q0 -150 -101 -250.5t-251 -100.5zM1223 160q70 0 118 49t48 118.5t-48.5 119t-117.5 49.5q-68 0 -118 -50.5t-50 -118t50 -117.5t118 -50z" glyph-name="percent" horiz-adv-x="1658" unicode="%"/><glyph d="M1260 340l245 -313v-27h-248l-133 174q-209 -197 -503 -197q-238 0 -384.5 115t-146.5 330q0 162 99.5 270.5t336.5 255.5q-94 121 -133 198t-39 150q0 141 105.5 228.5t277.5 87.5q174 0 280.5 -88t106.5 -228q0 -109 -73.5 -198.5t-237.5 -190.5l309 -393h27 q37 154 37 317h213q-8 -280 -139 -491zM745 1450q-80 2 -126 -42t-46 -116q0 -51 24 -93t95 -136l17 -21q209 131 209 254q0 68 -49.5 110t-123.5 44zM625 170q219 0 376 162l-362 469q-94 -59 -136 -88t-98.5 -78t-78 -98.5t-21.5 -108.5q0 -129 86.5 -193.5t233.5 -64.5z " glyph-name="ampersand" horiz-adv-x="1574" unicode="&amp;"/><glyph d="M182 961v626h205v-626h-205z" glyph-name="quotesingle" horiz-adv-x="569" unicode="'"/><glyph d="M373 -410q-129 195 -200 499t-71 601q0 299 69 597t202 497h200q-276 -477 -276 -1094q0 -623 278 -1100h-202z" glyph-name="parenleft" horiz-adv-x="606" unicode="("/><glyph d="M31 -410q279 477 278 1100q0 616 -276 1094h200q133 -199 202 -497t69 -597q0 -297 -71 -601t-200 -499h-202z" glyph-name="parenright" horiz-adv-x="606" unicode=")"/><glyph d="M375 942l41 244l-17 10l-190 -156l-76 127l234 88v19l-234 90l76 129l190 -160l17 10l-41 244h147l-41 -244l17 -10l192 160l74 -129l-232 -90v-19l232 -88l-74 -127l-192 156l-17 -10l41 -244h-147z" glyph-name="asterisk" horiz-adv-x="897" unicode="*"/><glyph d="M567 14v475h-475v199h475v475h199v-475h473v-199h-473v-475h-199z" glyph-name="plus" horiz-adv-x="1333" unicode="+"/><glyph d="M172 -389v110q57 4 98 22.5t61.5 41t32 63.5t13.5 72t2 80h-182v293h348v-293q0 -174 -81 -273.5t-292 -115.5z" glyph-name="comma" horiz-adv-x="720" unicode=","/><glyph d="M145 489v199h805v-199h-805z" glyph-name="hyphen" horiz-adv-x="1093" unicode="-"/><glyph d="M207 0v293h354v-293h-354z" glyph-name="period" horiz-adv-x="768" unicode="."/><glyph d="M-18 -205l794 1993h228l-797 -1993h-225z" glyph-name="slash" horiz-adv-x="983" unicode="/"/><glyph d="M664 -31q-156 0 -269.5 71t-175 192.5t-89.5 261t-28 303.5q0 162 28 301t88.5 260t171 190.5t261.5 69.5q143 0 254 -65.5t177.5 -181.5t99 -262t32.5 -318q0 -231 -55 -410.5t-182 -295.5t-313 -116zM657 193q297 0 297 600t-303 600q-94 0 -157.5 -51.5t-94 -143.5 t-42 -186t-11.5 -215q0 -604 311 -604z" glyph-name="zero" horiz-adv-x="1312" unicode="0"/><glyph d="M633 0v1337l-367 -198v239l381 209h234v-1587h-248z" glyph-name="one" horiz-adv-x="1312" unicode="1"/><glyph d="M385 213h809v-213h-1059v197q0 129 43 229t112.5 162.5t153.5 112t168 91.5t154 88t113 113.5t43 155.5q0 113 -71 183.5t-183 70.5q-135 0 -198.5 -95.5t-68.5 -287.5l-251 27q4 264 138 417.5t378 153.5q229 0 366 -133t137 -344q0 -152 -80.5 -265.5t-196.5 -181 t-230.5 -125t-195.5 -134.5t-81 -175v-47z" glyph-name="two" horiz-adv-x="1312" unicode="2"/><glyph d="M643 -31q-238 0 -396.5 126t-158.5 351l240 25q0 -131 92 -209t225 -78t226.5 78t93.5 207t-87 199.5t-216 70.5h-136v199h125q104 0 169 61.5t65 168t-75 171t-191.5 64.5t-190.5 -64.5t-76 -171.5l-235 23q4 199 143 313.5t356 114.5q215 0 358.5 -116t143.5 -314 q0 -129 -62.5 -218t-156.5 -116v-10q133 -23 217 -123t86 -268q0 -231 -159.5 -357.5t-399.5 -126.5z" glyph-name="three" horiz-adv-x="1312" unicode="3"/><glyph d="M1016 592h229v-201h-229v-391h-242v391h-708v193l604 1003h346v-995zM301 592h473v803z" glyph-name="four" horiz-adv-x="1312" unicode="4"/><glyph d="M723 1051q211 0 347 -144.5t136 -376.5q0 -244 -153.5 -402.5t-397.5 -158.5q-211 0 -357 122t-196 329l230 69q31 -141 114.5 -220t204.5 -79q139 0 219 95.5t80 240.5q0 152 -85 243t-212 91q-88 0 -162.5 -43t-115.5 -112l-225 71l141 811h846v-213h-668l-80 -442h10 q53 53 140.5 86t183.5 33z" glyph-name="five" horiz-adv-x="1312" unicode="5"/><glyph d="M676 -29q-252 0 -405.5 179.5t-155.5 543.5q-6 924 594 924q356 0 501 -326l-192 -96q-96 213 -305 213q-104 0 -179 -52t-113 -137t-55.5 -171t-17.5 -177q127 156 361 156q227 0 368.5 -139t141.5 -375q0 -231 -155 -387t-388 -156zM682 184q133 0 219 90.5t86 231.5 q0 143 -85 232t-220 89t-219 -87t-84 -230q0 -141 85 -233.5t218 -92.5z" glyph-name="six" horiz-adv-x="1312" unicode="6"/><glyph d="M381 0q74 889 555 1368v6h-805v213h1045v-235q-125 -121 -219.5 -259.5t-148.5 -263t-90 -278.5t-50.5 -273.5t-24.5 -277.5h-262z" glyph-name="seven" horiz-adv-x="1312" unicode="7"/><glyph d="M657.5 -31q-247.5 0 -406.5 129t-159 340q0 150 87 265.5t231 148.5v8q-104 35 -171 131t-67 215q0 178 137 295t348 117t347.5 -117t136.5 -295q0 -121 -66.5 -217t-171.5 -129v-8q143 -35 230.5 -151.5t87.5 -262.5q0 -211 -158 -340t-405.5 -129zM662 934 q109 0 179 69.5t70 176.5q0 109 -70.5 178t-178.5 69q-113 0 -183.5 -68.5t-70.5 -174.5q0 -109 70.5 -179.5t183.5 -70.5zM653.5 170q139.5 0 229.5 83t90 212q0 127 -90 209t-229.5 82t-228.5 -82t-89 -209q0 -129 89 -212t228.5 -83z" glyph-name="eight" horiz-adv-x="1312" unicode="8"/><glyph d="M604 -31q-356 0 -502 328l193 96q47 -104 118.5 -159.5t186.5 -55.5q104 0 179 52.5t113 137.5t55.5 171t17.5 178q-125 -158 -361 -158q-227 0 -368.5 140.5t-141.5 374t154.5 388t388.5 154.5q252 0 405.5 -179.5t155.5 -543.5q6 -924 -594 -924zM631 760q135 0 219 88 t84 229.5t-85 233.5t-218 92t-219 -90t-86 -231.5t85 -231.5t220 -90z" glyph-name="nine" horiz-adv-x="1312" unicode="9"/><glyph d="M213 885v293h352v-293h-352zM213 0v293h352v-293h-352z" glyph-name="colon" horiz-adv-x="778" unicode=":"/><glyph d="M207 885v293h350v-293h-350zM182 -389v110q57 4 98.5 22.5t61.5 41t31.5 63.5t13.5 72t2 80h-182v293h350v-293q0 -174 -81 -273.5t-294 -115.5z" glyph-name="semicolon" horiz-adv-x="751" unicode=";"/><glyph d="M1010 18l-916 467v207l916 469v-239l-666 -332l666 -330v-242z" glyph-name="less" horiz-adv-x="1161" unicode="&lt;"/><glyph d="M227 719h1014v-260h-1014v260z" glyph-name="equal" horiz-adv-x="1466" unicode="="/><glyph d="M150 18v242l665 330l-665 332v239l917 -469v-207z" glyph-name="greater" horiz-adv-x="1161" unicode=">"/><glyph d="M428 469v215q0 90 38 150.5t92 93.5t108.5 62.5t92.5 80.5t38 127q0 104 -72 158.5t-184 54.5q-102 0 -177 -55.5t-88 -151.5l-231 92q35 145 163 230.5t316 85.5q229 0 369.5 -110.5t140.5 -311.5q0 -102 -40 -173t-97 -108t-114.5 -66.5t-97.5 -72.5t-40 -104v-197 h-217zM358 0v293h355v-293h-355z" glyph-name="question" horiz-adv-x="1103" unicode="?"/><glyph d="M961 -279q-352 0 -600 249t-248 601q0 350 245.5 598t604.5 248q354 0 599.5 -243.5t245.5 -600.5q0 -225 -101 -346t-263 -121q-98 0 -168 42t-98 116h-11q-102 -141 -295 -141q-123 0 -201.5 62.5t-78.5 179t84 177t229 89.5l225 47v53q0 158 -176 158 q-158 0 -182 -139l-164 41q23 109 115 168t235 59q150 0 249.5 -73t99.5 -234v-312q0 -74 39.5 -116.5t109.5 -42.5q90 0 147.5 77.5t57.5 235.5q0 309 -200.5 512t-495.5 203q-299 0 -500 -203t-201 -493.5t204 -494.5t497 -204q197 0 354 98l70 -133q-192 -117 -428 -117z M911 250q90 0 162 53t72 172v92l-199 -45q-90 -18 -134 -50t-44 -95q0 -61 37.5 -94t105.5 -33z" glyph-name="at" horiz-adv-x="1914" unicode="@"/><glyph d="M1311 0l-137 373h-742l-137 -373h-268l606 1587h340l606 -1587h-268zM506 578h594l-291 792h-12z" glyph-name="A" horiz-adv-x="1605" unicode="A"/><glyph d="M190 0v1587h623q313 0 455 -96q141 -98 141 -305q0 -276 -231 -344v-13q152 -20 235.5 -118.5t83.5 -270.5q0 -213 -137 -323q-84 -72 -209 -94.5t-301 -22.5h-660zM440 915h383q68 0 119 8.5t104.5 30t82 70.5t28.5 123q0 121 -70 174q-66 49 -245 49h-402v-455z M440 221h408q123 0 202.5 13.5t131.5 60.5q66 59 65 176q0 80 -29.5 132t-89 75.5t-119 31t-149.5 7.5h-420v-496z" glyph-name="B" horiz-adv-x="1581" unicode="B"/><glyph d="M825 -31q-340 0 -535.5 218.5t-195.5 607.5q0 387 195.5 606t535.5 219q242 0 413 -118t247 -333l-228 -86q-49 152 -160.5 233t-271.5 81q-229 0 -357 -161t-128 -441.5t128 -442.5t357 -162q162 0 272.5 82t159.5 234l228 -86q-76 -215 -247 -333t-413 -118z" glyph-name="C" horiz-adv-x="1542" unicode="C"/><glyph d="M190 0v1587h619q395 0 595 -206.5t200 -596.5q0 -379 -203 -581.5t-594 -202.5h-617zM440 221h340q297 0 434.5 142.5t137.5 433.5q0 287 -132.5 430t-414.5 143h-365v-1149z" glyph-name="D" horiz-adv-x="1695" unicode="D"/><glyph d="M190 0v1587h1141v-215h-891v-446h817v-217h-817v-494h930v-215h-1180z" glyph-name="E" horiz-adv-x="1447" unicode="E"/><glyph d="M190 0v1587h1139v-215h-889v-469h789v-217h-789v-686h-250z" glyph-name="F" horiz-adv-x="1380" unicode="F"/><glyph d="M881 840h655v-840h-209v223h-12q-72 -113 -202 -182.5t-306 -69.5q-336 0 -525.5 226.5t-189.5 597.5q0 381 202 602t550 221q242 0 414 -117t247 -315l-219 -84q-117 299 -442 299q-238 0 -370 -164t-132 -436q0 -266 124 -436t372 -170q203 0 326.5 119.5t142.5 322.5 h-426v203z" glyph-name="G" horiz-adv-x="1667" unicode="G"/><glyph d="M190 0v1587h250v-663h801v663h250v-1587h-250v711h-801v-711h-250z" glyph-name="H" horiz-adv-x="1681" unicode="H"/><glyph d="M190 0v1587h250v-1587h-250z" glyph-name="I" horiz-adv-x="632" unicode="I"/><glyph d="M31 0v215h174q133 0 195.5 62.5t62.5 218.5v1091h252v-1118q0 -242 -120 -355.5t-353 -113.5h-211z" glyph-name="J" horiz-adv-x="880" unicode="J"/><glyph d="M190 0v1587h250v-788h19l717 788h309l-563 -608l626 -979h-295l-491 780h-25l-297 -319v-461h-250z" glyph-name="K" horiz-adv-x="1570" unicode="K"/><glyph d="M190 0v1587h250v-1370h750v-217h-1000z" glyph-name="L" horiz-adv-x="1220" unicode="L"/><glyph d="M1444 1587h405v-1587h-247v1352h-7l-444 -1352h-260l-442 1352h-9v-1352h-250v1587h408l424 -1317z" glyph-name="M" horiz-adv-x="2041" unicode="M"/><glyph d="M190 0v1587h304l739 -1251h12v1251h250v-1587h-307l-737 1260h-11v-1260h-250z" glyph-name="N" horiz-adv-x="1685" unicode="N"/><glyph d="M825 -31q-340 0 -535.5 218.5t-195.5 607.5q0 387 195.5 606t535.5 219q338 0 536 -219t198 -606q0 -389 -197 -607.5t-537 -218.5zM825.5 190q229.5 0 358.5 162t129 442.5t-129 442.5t-358.5 162t-357.5 -161t-128 -443.5t128 -443.5t357.5 -161z" glyph-name="O" horiz-adv-x="1652" unicode="O"/><glyph d="M190 0v1587h703q295 0 438 -121q147 -127 148 -372q0 -252 -142 -379q-143 -125 -444 -125h-453v-590h-250zM440 807h439q195 0 274 67q78 68 78 213q0 139 -72 211q-76 74 -280 74h-439v-565z" glyph-name="P" horiz-adv-x="1542" unicode="P"/><glyph d="M1559 795q0 -381 -193 -602l190 -189l-126 -131l-201 203q-170 -106 -404 -107q-340 0 -535.5 218.5t-195.5 607.5q0 387 195.5 606t535.5 219q338 0 536 -219t198 -606zM825 188q131 0 236 58l-248 250l125 125l256 -256q119 160 119 430q0 281 -129 442.5t-358.5 161.5 t-357.5 -161t-128 -443.5t128 -444.5t357 -162z" glyph-name="Q" horiz-adv-x="1669" unicode="Q"/><glyph d="M1337 715q-80 -68 -207 -101l347 -614h-275l-321 590h-441v-590h-250v1587h703q295 0 438 -121q147 -127 148 -372q-1 -252 -142 -379zM440 1372v-565h439q195 0 274 67q78 68 78 213q0 139 -72 211q-76 74 -280 74h-439z" glyph-name="R" horiz-adv-x="1572" unicode="R"/><glyph d="M733 -31q-227 0 -408.5 91.5t-273.5 261.5l176 153q78 -137 216.5 -214t301.5 -77q147 0 238.5 67.5t91.5 201.5q0 203 -266 247l-227 37q-219 37 -336 145.5t-117 284.5q0 205 149.5 329t405.5 124q358 0 594 -250l-145 -166q-186 203 -459 203q-139 0 -220 -59.5 t-81 -159.5q0 -170 264 -217l240 -41q205 -35 325.5 -148.5t120.5 -308.5q0 -229 -163 -366.5t-427 -137.5z" glyph-name="S" horiz-adv-x="1396" unicode="S"/><glyph d="M543 0v1372h-512v215h1274v-215h-512v-1372h-250z" glyph-name="T" horiz-adv-x="1335" unicode="T"/><glyph d="M796.5 -31q-307.5 0 -473 161t-165.5 460v997h252v-1016q0 -184 101 -283.5t286 -99.5q182 0 283.5 99.5t101.5 283.5v1016h254v-985q0 -305 -166 -469t-473.5 -164z" glyph-name="U" horiz-adv-x="1593" unicode="U"/><glyph d="M571 0l-540 1587h268l434 -1378h10l435 1378h268l-539 -1587h-336z" glyph-name="V" horiz-adv-x="1476" unicode="V"/><glyph d="M399 0l-348 1587h262l277 -1368h10l338 1368h317l338 -1368h9l276 1368h262l-348 -1587h-367l-329 1360h-4l-326 -1360h-367z" glyph-name="W" horiz-adv-x="2191" unicode="W"/><glyph d="M37 0l526 795l-524 792h289l393 -618l395 618h289l-526 -792l530 -795h-291l-399 608l-393 -608h-289z" glyph-name="X" horiz-adv-x="1443" unicode="X"/><glyph d="M549 0v596l-531 991h271l383 -737h10l377 737h270l-530 -991v-596h-250z" glyph-name="Y" horiz-adv-x="1345" unicode="Y"/><glyph d="M61 0v178l920 1190v4h-868v215h1192v-188l-912 -1178v-6h912v-215h-1244z" glyph-name="Z" horiz-adv-x="1378" unicode="Z"/><glyph d="M184 -410v2194h437v-197h-242v-1798h242v-199h-437z" glyph-name="bracketleft" horiz-adv-x="661" unicode="["/><glyph d="M776 -205l-796 1993h229l795 -1993h-228z" glyph-name="backslash" horiz-adv-x="983" unicode="\"/><glyph d="M41 -410v199h242v1798h-242v197h436v-2194h-436z" glyph-name="bracketright" horiz-adv-x="661" unicode="]"/><glyph d="M72 434l516 1153h205l516 -1153h-236l-383 901l-387 -901h-231z" glyph-name="asciicircum" horiz-adv-x="1378" unicode="^"/><glyph d="M145 -199v199h926v-199h-926z" glyph-name="underscore" horiz-adv-x="1216" unicode="_"/><glyph d="M291 1290l-254 297h225l201 -297h-172z" glyph-name="grave" horiz-adv-x="516" unicode="`"/><glyph d="M606 1202q219 0 348 -100.5t129 -290.5v-811h-235v127h-17q-182 -152 -401 -152q-176 0 -275.5 89.5t-99.5 242.5q0 164 114 254t296 141l383 103v8q0 100 -65.5 154.5t-188.5 54.5q-221 0 -383 -182l-133 147q202 215 528 215zM489 156q182 0 359 180v285l-342 -99 q-213 -61 -213 -200q0 -74 52 -120t144 -46z" glyph-name="a" horiz-adv-x="1210" unicode="a"/><glyph d="M754 -25q-231 0 -359 162h-6v-137h-235v1587h237v-547h10q129 162 355 162q231 0 355 -169t124 -443q0 -276 -124 -445.5t-357 -169.5zM678 170q315 0 315 422q0 199 -79.5 305.5t-235.5 106.5q-139 0 -220 -111t-81 -301q0 -199 81 -310.5t220 -111.5z" glyph-name="b" horiz-adv-x="1306" unicode="b"/><glyph d="M614 -29q-246 0 -397 162t-151 453q0 293 151.5 454.5t396.5 161.5q190 0 327.5 -100.5t186.5 -286.5l-198 -67q-59 258 -305 258q-147 0 -234.5 -103.5t-87.5 -316.5q0 -211 87 -315.5t235 -104.5q242 0 307 250l196 -58q-49 -186 -186.5 -286.5t-327.5 -100.5z" glyph-name="c" horiz-adv-x="1171" unicode="c"/><glyph d="M555 -25q-233 0 -358 169t-125 446q0 274 125 443t356 169q221 0 354 -162h8v547h240v-1587h-235v137h-9q-127 -162 -356 -162zM629 170q141 0 222 111.5t81 310.5q0 190 -82 301t-221 111q-156 0 -236 -106.5t-80 -305.5q1 -422 316 -422z" glyph-name="d" horiz-adv-x="1308" unicode="d"/><glyph d="M1133 614q0 -33 -7 -90h-821q12 -160 101.5 -258t248.5 -98q193 0 299 143l154 -137q-178 -197 -455 -197q-281 0 -434 167t-153 442q0 268 142 442t406 174q254 0 386.5 -169t132.5 -419zM606 1010q-152 0 -225.5 -92.5t-79.5 -231.5h598q-4 154 -79 239t-214 85z" glyph-name="e" horiz-adv-x="1198" unicode="e"/><glyph d="M201 0v1016h-195v162h195v75q0 154 92 244t262 90h152v-176h-113q-76 0 -115 -45t-39 -125v-63h267v-162h-267v-1016h-239z" glyph-name="f" horiz-adv-x="704" unicode="f"/><glyph d="M598 -432q-375 0 -524 262l186 115q100 -193 334 -193q141 0 223 78t82 246v108h-8q-113 -162 -340 -161q-223 0 -354 164.5t-131 420.5q0 268 132 431t361 163q215 0 326 -158h14v134h240v-1094q0 -270 -150.5 -393t-390.5 -123zM621 207q152 0 226.5 104.5t74.5 292.5 q0 178 -77 293t-233 115q-150 0 -226.5 -112t-76.5 -296q0 -178 78 -287.5t234 -109.5z" glyph-name="g" horiz-adv-x="1292" unicode="g"/><glyph d="M154 0v1587h237v-559h10q121 174 342 174q178 0 282.5 -114.5t104.5 -315.5v-772h-237v727q0 276 -219 277q-137 0 -210 -86.5t-73 -229.5v-688h-237z" glyph-name="h" horiz-adv-x="1257" unicode="h"/><glyph d="M141 1350v237h258v-237h-258zM152 0v1178h237v-1178h-237z" glyph-name="i" horiz-adv-x="542" unicode="i"/><glyph d="M143 1350v237h258v-237h-258zM-115 -410v177h113q78 0 117 46t39 124v1241h237v-1254q0 -154 -91 -244t-261 -90h-154z" glyph-name="j" horiz-adv-x="544" unicode="j"/><glyph d="M154 0v1587h237v-874h23l448 465h291l-461 -469l516 -709h-286l-381 537h-23l-127 -129v-408h-237z" glyph-name="k" horiz-adv-x="1202" unicode="k"/><glyph d="M154 0v1587h237v-1587h-237z" glyph-name="l" horiz-adv-x="544" unicode="l"/><glyph d="M152 0v1178h237v-146h6q113 170 312 170q217 0 301 -196h8q127 197 342 196q180 0 273 -107.5t93 -312.5v-782h-237v743q0 262 -205 263q-225 0 -225 -293v-713h-242v745q0 260 -199 261q-225 0 -225 -293v-713h-239z" glyph-name="m" horiz-adv-x="1857" unicode="m"/><glyph d="M152 0v1178h237v-150h12q49 78 138.5 126t208.5 48q176 0 278 -108.5t102 -307.5v-786h-235v727q0 276 -223 277q-133 0 -206 -86.5t-73 -229.5v-688h-239z" glyph-name="n" horiz-adv-x="1257" unicode="n"/><glyph d="M614.5 -25q-245.5 0 -397 160t-151.5 451q0 293 151.5 454.5t397 161.5t397 -161.5t151.5 -454.5q0 -291 -151.5 -451t-397 -160zM618.5 170q145.5 0 229.5 102.5t84 313.5t-84 315.5t-229.5 104.5t-229.5 -103.5t-84 -316.5q0 -211 84 -313.5t229.5 -102.5z" glyph-name="o" horiz-adv-x="1230" unicode="o"/><glyph d="M154 -410v1588h237v-152h10q125 176 355 176q231 0 355 -169t124 -443q0 -276 -124 -445.5t-357 -169.5q-240 0 -359 177h-6v-562h-235zM686 170q147 0 227 108.5t80 311.5q0 199 -78.5 306.5t-228.5 107.5q-147 0 -228 -111t-81 -303q0 -199 82 -309.5t227 -110.5z" glyph-name="p" horiz-adv-x="1308" unicode="p"/><glyph d="M922 -410v562h-9q-119 -176 -358 -177q-231 0 -356 169t-125 446q0 274 124 443t355 169q227 0 356 -176h9v152h239v-1588h-235zM622.5 170q147.5 0 228.5 110.5t81 309.5q0 193 -81 303.5t-228 110.5q-150 0 -229 -108t-79 -306q0 -203 80 -311.5t227.5 -108.5z" glyph-name="q" horiz-adv-x="1308" unicode="q"/><glyph d="M152 0v1178h235v-201h10q43 121 142.5 173t259.5 52v-215q-233 -8 -320.5 -125t-87.5 -381v-481h-239z" glyph-name="r" horiz-adv-x="802" unicode="r"/><glyph d="M524 -25q-147 0 -277 70t-208 176l147 141q55 -86 145.5 -145t207.5 -59q92 0 152.5 43t60.5 127q0 68 -45 102.5t-136 56.5l-178 48q-299 80 -299 327q0 160 118 250t312 90q285 0 447 -225l-140 -129q-49 82 -134 130t-181 48q-86 0 -139 -39t-53 -108q0 -53 37.5 -83 t109.5 -48l168 -46q70 -18 122 -41.5t109.5 -63.5t88 -103.5t30.5 -147.5q0 -174 -131 -272.5t-334 -98.5z" glyph-name="s" horiz-adv-x="1048" unicode="s"/><glyph d="M487 0q-156 0 -229.5 81t-73.5 251v684h-166v162h166v409h240v-409h274v-162h-274v-637q0 -109 31.5 -149t119.5 -40h123v-190h-211z" glyph-name="t" horiz-adv-x="751" unicode="t"/><glyph d="M516 -23q-178 0 -283.5 112t-105.5 310v779h238v-727q0 -276 227 -277q129 0 207 84t78 248v672h239v-1178h-237v150h-11q-116 -173 -352 -173z" glyph-name="u" horiz-adv-x="1269" unicode="u"/><glyph d="M414 0l-408 1178h258l303 -983h15l301 983h256l-406 -1178h-319z" glyph-name="v" horiz-adv-x="1144" unicode="v"/><glyph d="M299 0l-264 1178h260l180 -992h10l267 992h217l266 -992h10l182 992h263l-269 -1178h-340l-215 856h-12l-213 -856h-342z" glyph-name="w" horiz-adv-x="1722" unicode="w"/><glyph d="M8 0l383 621l-350 557h262l246 -424h10l252 424h260l-350 -557l383 -621h-266l-277 471h-12l-275 -471h-266z" glyph-name="x" horiz-adv-x="1112" unicode="x"/><glyph d="M23 -410v195h133q117 0 179 57.5t62 159.5q0 61 -26 135l-365 1041h256l258 -885h15l256 885h258l-422 -1223q-72 -199 -173.5 -282t-291.5 -83h-139z" glyph-name="y" horiz-adv-x="1054" unicode="y"/><glyph d="M51 0v174l629 801v6h-606v197h901v-187l-613 -786v-6h629v-199h-940z" glyph-name="z" horiz-adv-x="1046" unicode="z"/><glyph d="M483 -410q-121 0 -207 86t-86 207v584q0 86 -32.5 111.5t-102.5 25.5v172q72 0 103.5 25.5t31.5 111.5v582q0 123 86 208t207 85h99v-201h-76q-51 0 -86 -32.5t-35 -81.5v-562q0 -88 -16.5 -137t-79.5 -86q63 -33 79.5 -82t16.5 -141v-561q0 -51 34 -83t87 -32h76v-199 h-99z" glyph-name="braceleft" horiz-adv-x="626" unicode="{"/><glyph d="M229 -205v1993h193v-1993h-193z" glyph-name="bar" horiz-adv-x="651" unicode="|"/><glyph d="M45 -410v199h78q51 0 85 32t34 83v561q0 92 16 141t80 82q-63 37 -79.5 86t-16.5 137v562q0 49 -34 81.5t-85 32.5h-78v201h98q123 0 208 -85t85 -208v-582q0 -86 33 -111.5t102 -25.5v-172q-45 0 -70.5 -7t-45 -39t-19.5 -91v-584q0 -121 -85 -207t-208 -86h-98z" glyph-name="braceright" horiz-adv-x="626" unicode="}"/><glyph d="M846 399q-80 0 -148.5 46.5t-127 91.5t-113.5 45q-106 0 -105 -160h-180q0 164 67.5 257t194.5 93q72 0 132.5 -27.5t94 -61.5t78.5 -61.5t88 -27.5q113 0 113 174h186q0 -176 -73.5 -272.5t-206.5 -96.5z" glyph-name="asciitilde" horiz-adv-x="1298" unicode="~"/><glyph d="M524 1178v-293h-354v293h354zM438 709q4 -66 15.5 -220.5t17.5 -268.5t6 -220v-410h-260v410q0 104 6 223t16.5 263.5t14.5 222.5h184z" glyph-name="exclamdown" horiz-adv-x="694" unicode="¡"/><glyph d="M678 174q242 0 299 254l213 -70q-43 -164 -154.5 -262t-271.5 -119v-194h-176v194q-209 29 -334 187t-125 422t125 422.5t334 187.5v199h176v-199q160 -23 271.5 -120t154.5 -261l-213 -72q-57 256 -299 256q-145 0 -229 -103t-84 -310t84 -309.5t229 -102.5z" glyph-name="cent" horiz-adv-x="1300" unicode="¢"/><glyph d="M502 641v-430h798v-211h-1026v641h-176v182h176v240q0 246 149.5 397.5t385.5 151.5q170 0 312.5 -100.5t195.5 -264.5l-217 -84q-25 102 -108 165t-183 63q-137 0 -222 -84t-85 -230v-254h413v-182h-413z" glyph-name="sterling" horiz-adv-x="1425" unicode="£"/><glyph d="M326 27l-144 149l119 115q-94 135 -94 299q0 162 94 297l-119 117l144 147l116 -123q137 94 299 94q160 0 297 -94l119 123l141 -147l-116 -117q92 -133 92 -297q0 -168 -92 -299l116 -115l-141 -149l-119 125q-137 -96 -297 -97q-162 0 -299 97zM741 260 q139 0 233.5 96.5t94.5 233.5q0 141 -96 234.5t-232 93.5q-137 0 -233 -96.5t-96 -231.5q0 -141 97 -235.5t232 -94.5z" glyph-name="currency" horiz-adv-x="1480" unicode="¤"/><glyph d="M645 0v250h-346v176h346v197h-346v172h256l-487 792h260l442 -727l432 727h258l-487 -790h254v-174h-342v-197h342v-176h-342v-250h-240z" glyph-name="yen" horiz-adv-x="1527" unicode="¥"/><glyph d="M229 965v823h195v-823h-195zM229 -205v778h195v-778h-195z" glyph-name="brokenbar" horiz-adv-x="653" unicode="¦"/><glyph d="M1233 492q0 -164 -96 -271q96 -96 96 -252q0 -215 -153.5 -322.5t-391.5 -107.5q-223 0 -376.5 106.5t-192.5 291.5l186 45q27 -131 133.5 -207t255.5 -76q156 0 254.5 63.5t95.5 202.5q0 55 -25.5 98t-57 71t-96 54.5t-107.5 39t-127 34.5q-88 23 -141.5 40t-123 51 t-108.5 74t-66.5 103.5t-27.5 143.5q0 164 106 266q-106 94 -106 256q0 201 141 308.5t352 107.5q209 0 359.5 -92.5t189.5 -270.5l-176 -49q-29 125 -127 189.5t-237 64.5q-133 0 -226.5 -63.5t-93.5 -194.5q0 -49 21.5 -88t50 -63.5t86 -49t97.5 -36t114 -31.5 q78 -20 107.5 -29.5t99 -33t101.5 -42t81 -53.5t70.5 -71.5t40 -90t18.5 -116.5zM346 676q0 -49 21.5 -89t49 -64.5t85 -48t96.5 -36t117 -32.5q197 -53 270 -87q61 66 59 168q0 45 -14 82t-49 67t-62.5 49.5t-89 39.5t-93 29.5t-105.5 29.5q-129 35 -205 64 q-80 -63 -80 -172z" glyph-name="section" horiz-adv-x="1370" unicode="§"/><glyph d="M145 1350v237h222v-237h-222zM471 1350v237h221v-237h-221z" glyph-name="dieresis" horiz-adv-x="837" unicode="¨"/><glyph d="M922 -25q-344 0 -573.5 234.5t-229.5 585t229.5 585t573.5 234.5q346 0 576.5 -234.5t230.5 -585t-230.5 -585t-576.5 -234.5zM921.5 113q286.5 0 478 194.5t191.5 487t-191.5 487.5t-478 195t-478 -195t-191.5 -487.5t191.5 -487t478 -194.5zM922 315q-203 0 -337 137.5 t-134 342t134 341t337 136.5q143 0 254.5 -69.5t169.5 -190.5l-140 -66q-41 78 -115.5 124t-168.5 46q-137 0 -226.5 -91t-89.5 -230.5t89 -231.5t227 -92q94 0 168.5 46t115.5 124l140 -63q-57 -121 -170 -192t-254 -71z" glyph-name="copyright" horiz-adv-x="1845" unicode="©"/><glyph d="M475 1612q147 0 235.5 -68.5t88.5 -200.5v-552h-160v86h-10q-129 -102 -275 -103q-121 0 -189.5 60.5t-68.5 164.5q0 113 77 173.5t204 97.5l262 69v4q0 145 -172 146q-154 0 -262 -125l-92 100q141 148 362 148zM395 895q125 0 244 123v196l-233 -69q-145 -39 -146 -135 q0 -51 36 -83t99 -32z" glyph-name="ordfeminine" horiz-adv-x="950" unicode="ª"/><glyph d="M444 113l-415 477l415 475h261l-422 -475l422 -477h-261zM965 113l-416 477l416 475h260l-422 -475l422 -477h-260z" glyph-name="guillemotleft" horiz-adv-x="1267" unicode="«"/><glyph d="M842 20v469h-842v199h1038v-668h-196z" glyph-name="logicalnot" horiz-adv-x="1265" unicode="¬"/><glyph d="M145 489v199h805v-199h-805z" glyph-name="uni00AD" horiz-adv-x="1093" unicode="­"/><glyph d="M922 -25q-344 0 -573.5 234.5t-229.5 585t229.5 585t573.5 234.5q346 0 576.5 -234.5t230.5 -585t-230.5 -585t-576.5 -234.5zM921.5 113q286.5 0 478 194.5t191.5 487t-191.5 487.5t-478 195t-478 -195t-191.5 -487.5t191.5 -487t478 -194.5zM592 338v913h409 q135 0 218.5 -71.5t83.5 -192.5q0 -92 -48.5 -154.5t-134.5 -84.5l215 -410h-170l-196 387h-221v-387h-156zM748 848l256 2q143 6 143 133q0 63 -40 99t-116 36h-243v-270z" glyph-name="registered" horiz-adv-x="1845" unicode="®"/><glyph d="M141 1311v141h650v-141h-650z" glyph-name="macron" horiz-adv-x="931" unicode="¯"/><glyph d="M477 954q-135 0 -231 96.5t-96 233.5t96 232.5t231 95.5q137 0 233.5 -95.5t96.5 -232.5t-96.5 -233.5t-233.5 -96.5zM477 1090q80 0 137.5 56t57.5 138t-57.5 138.5t-137.5 56.5t-136 -56.5t-56 -138.5t56 -138t136 -56z" glyph-name="degree" horiz-adv-x="956" unicode="°"/><glyph d="M557 457v442h-432v199h432v444h199v-444h436v-199h-436v-442h-199zM125 0v199h1067v-199h-1067z" glyph-name="plusminus" horiz-adv-x="1314" unicode="±"/><glyph d="M231 557h609v-160h-795v148q0 131 60.5 223t147.5 141t174 92t147.5 105.5t60.5 153.5q0 84 -52.5 137t-138.5 53q-195 0 -198 -289l-191 21q4 199 104.5 314.5t282.5 115.5q172 0 275.5 -100.5t103.5 -258.5q0 -115 -60.5 -199.5t-147.5 -135t-174 -94.5t-147.5 -101 t-60.5 -131v-35z" glyph-name="uni00B2" horiz-adv-x="870" unicode="²"/><glyph d="M428 375q-178 0 -298 94t-120 262l180 21q0 -98 70 -156.5t170 -58.5q98 0 169 57t71 153.5t-65.5 150.5t-164.5 54h-100v150h94q80 0 127 46t47 126t-56 128t-142 48q-88 0 -143.5 -49t-57.5 -129l-174 18q2 147 106.5 234.5t266 87.5t269 -87t107.5 -237 q0 -96 -47 -163.5t-119 -86.5v-8q100 -18 164 -93t66 -200q0 -174 -121 -268t-299 -94z" glyph-name="uni00B3" horiz-adv-x="878" unicode="³"/><glyph d="M53 1290l199 297h225l-252 -297h-172z" glyph-name="acute" horiz-adv-x="516" unicode="´"/><glyph d="M229 -410v1588h236v-719q0 -276 227 -277q129 0 207 84t78 248v664h242v-1178h-240v150h-10q-113 -172 -353 -173q-104 0 -176 50v-437h-211z" glyph-name="uni00B5" horiz-adv-x="1406" unicode="µ"/><glyph d="M588 -322v1022q-207 0 -357.5 121t-150.5 322q0 203 150.5 323.5t357.5 120.5h160v-1909h-160zM950 -322v1909h162v-1909h-162z" glyph-name="paragraph" horiz-adv-x="1341" unicode="¶"/><glyph d="M207 584v293h354v-293h-354z" glyph-name="periodcentered" horiz-adv-x="768" unicode="·"/><glyph d="M270 -500q-150 0 -217 123l109 64q31 -72 102 -72q37 0 59.5 21.5t22.5 54.5q0 74 -100 102l-117 37l111 195h145l-94 -150l39 -12q154 -45 153 -176q0 -90 -62.5 -138.5t-150.5 -48.5z" glyph-name="cedilla" horiz-adv-x="563" unicode="¸"/><glyph d="M254 397v1004l-274 -150v181l284 155h176v-1190h-186z" glyph-name="uni00B9" horiz-adv-x="561" unicode="¹"/><glyph d="M510 782q-164 0 -266.5 108.5t-102.5 303.5q0 197 102.5 306.5t266.5 109.5q166 0 269.5 -108.5t103.5 -307.5q0 -197 -103.5 -304.5t-269.5 -107.5zM514 913q98 0 154.5 70t56.5 211q0 143 -56.5 213t-154.5 70q-211 0 -211 -283q0 -281 211 -281z" glyph-name="ordmasculine" horiz-adv-x="1024" unicode="º"/><glyph d="M43 113l420 477l-420 475h260l414 -475l-414 -477h-260zM563 113l420 477l-420 475h260l414 -475l-414 -477h-260z" glyph-name="guillemotright" horiz-adv-x="1267" unicode="»"/><glyph d="M449 528h-166v893l-244 -131v158l252 139h158v-1059zM1221 1587h172l-877 -1587h-170zM1716 397h154v-135h-154v-262h-164v262h-448v131l381 672h231v-668zM1260 397h292v533z" glyph-name="onequarter" horiz-adv-x="1925" unicode="¼"/><glyph d="M449 528h-166v893l-244 -131v158l254 139h156v-1059zM1241 1587h172l-876 -1587h-170zM1380 143h541v-143h-709v131q0 117 54.5 199t131.5 126t153.5 81.5t131 93t54.5 135.5q0 74 -46 122t-122 48q-176 0 -178 -256l-168 18q4 176 93 278.5t251 102.5q152 0 244 -89 t92 -228q0 -102 -54.5 -178t-130.5 -120t-152.5 -84t-131 -91t-54.5 -117v-29z" glyph-name="onehalf" horiz-adv-x="1998" unicode="½"/><glyph d="M809 840q0 -154 -107.5 -239t-265.5 -85q-160 0 -265 84t-105 234l161 18q0 -88 60.5 -139t150.5 -51q88 0 150.5 51t62.5 137t-58 133t-147 47h-90v135h84q72 0 115 41t43 111q0 72 -51 115t-129 43t-126 -43t-50 -117l-158 16q2 133 95 210t239 77q143 0 239.5 -78 t96.5 -211q0 -84 -42 -143.5t-106 -77.5v-6q90 -16 146.5 -83.5t56.5 -178.5zM1532 1587h172l-877 -1587h-170zM2028 397h153v-135h-153v-262h-164v262h-449v131l381 672h232v-668zM1571 397h293v533z" glyph-name="threequarters" horiz-adv-x="2234" unicode="¾"/><glyph d="M745 1178v-293h-354v293h354zM678 709v-215q0 -90 -38 -150.5t-93 -93.5t-109.5 -62.5t-92.5 -81t-38 -126.5q0 -104 72 -158.5t184 -54.5q102 0 177 55t87 151l232 -92q-35 -145 -163 -230t-316 -85q-229 0 -368.5 110.5t-139.5 311.5q0 102 40 172.5t97 107.5t113.5 67 t96.5 73t40 104v197h219z" glyph-name="questiondown" horiz-adv-x="1103" unicode="¿"/><glyph d="M889 1700h-172l-254 297h225zM1311 0l-137 373h-742l-137 -373h-268l606 1587h340l606 -1587h-268zM506 578h594l-291 792h-12z" glyph-name="Agrave" horiz-adv-x="1605" unicode="À"/><glyph d="M1141 1997l-252 -297h-172l198 297h226zM1311 0l-137 373h-742l-137 -373h-268l606 1587h340l606 -1587h-268zM506 578h594l-291 792h-12z" glyph-name="Aacute" horiz-adv-x="1605" unicode="Á"/><glyph d="M803 1870l-103 -170h-190l195 297h194l195 -297h-189zM1311 0l-137 373h-742l-137 -373h-268l606 1587h340l606 -1587h-268zM506 578h594l-291 792h-12z" glyph-name="Acircumflex" horiz-adv-x="1605" unicode="Â"/><glyph d="M672 1870q-74 0 -70 -123h-121q0 252 174 252q72 0 119 -35t84 -68.5t78 -33.5q72 0 72 135h118q0 -264 -180 -264q-53 0 -94 21.5t-63.5 47t-53 47t-63.5 21.5zM1311 0l-137 373h-742l-137 -373h-268l606 1587h340l606 -1587h-268zM506 578h594l-291 792h-12z" glyph-name="Atilde" horiz-adv-x="1605" unicode="Ã"/><glyph d="M752 1997v-238h-222v238h222zM1077 1997v-238h-221v238h221zM1311 0l-137 373h-742l-137 -373h-268l606 1587h340l606 -1587h-268zM506 578h594l-291 792h-12z" glyph-name="Adieresis" horiz-adv-x="1605" unicode="Ä"/><glyph d="M803 1661q-88 0 -148.5 61.5t-60.5 149.5q0 86 61.5 146.5t147.5 60.5t147.5 -60.5t61.5 -146.5q0 -88 -60.5 -149.5t-148.5 -61.5zM803 1964q-41 0 -66.5 -25.5t-25.5 -68.5q0 -41 25.5 -66.5t66.5 -25.5q39 0 66.5 26.5t27.5 65.5t-27.5 66.5t-66.5 27.5zM1311 0 l-137 373h-742l-137 -373h-268l606 1587h340l606 -1587h-268zM506 578h594l-291 792h-12z" glyph-name="Aring" horiz-adv-x="1605" unicode="Å"/><glyph d="M29 0l581 1587h1495v-213h-897v-473h817v-213h-817v-469h930v-219h-1186v334h-526l-117 -334h-280zM500 551h452v813h-172z" glyph-name="AE" horiz-adv-x="2217" unicode="Æ"/><glyph d="M825 190q162 0 272.5 82t159.5 234l228 -86q-72 -203 -226.5 -318.5t-373.5 -130.5l-62 -96l39 -12q154 -45 154 -176q0 -90 -62.5 -138.5t-150.5 -48.5q-150 0 -217 123l108 64q31 -72 103 -72q37 0 59.5 21.5t22.5 54.5q0 74 -101 102l-116 37l81 143q-305 27 -477 242 t-172 580q0 387 195.5 606t535.5 219q242 0 413 -118t247 -333l-228 -86q-49 152 -160.5 233t-271.5 81q-229 0 -357 -161t-128 -441.5t128 -442.5t357 -162z" glyph-name="Ccedilla" horiz-adv-x="1542" unicode="Ç"/><glyph d="M694 1700l-254 297h226l200 -297h-172zM190 0v1587h1141v-215h-891v-446h817v-217h-817v-494h930v-215h-1180z" glyph-name="Egrave" horiz-adv-x="1447" unicode="È"/><glyph d="M694 1700l199 297h225l-252 -297h-172zM190 0v1587h1141v-215h-891v-446h817v-217h-817v-494h930v-215h-1180z" glyph-name="Eacute" horiz-adv-x="1447" unicode="É"/><glyph d="M780 1870l-102 -170h-191l195 297h195l194 -297h-188zM440 215h930v-215h-1180v1587h1141v-215h-891v-446h817v-217h-817v-494z" glyph-name="Ecircumflex" horiz-adv-x="1447" unicode="Ê"/><glyph d="M508 1759v238h221v-238h-221zM834 1759v238h221v-238h-221zM190 0v1587h1141v-215h-891v-446h817v-217h-817v-494h930v-215h-1180z" glyph-name="Edieresis" horiz-adv-x="1447" unicode="Ë"/><glyph d="M229 1700l-254 297h226l200 -297h-172zM190 0v1587h250v-1587h-250z" glyph-name="Igrave" horiz-adv-x="632" unicode="Ì"/><glyph d="M229 1700l199 297h225l-252 -297h-172zM190 0v1587h250v-1587h-250z" glyph-name="Iacute" horiz-adv-x="632" unicode="Í"/><glyph d="M315 1870l-102 -170h-190l194 297h195l194 -297h-188zM190 0v1587h250v-1587h-250z" glyph-name="Icircumflex" horiz-adv-x="632" unicode="Î"/><glyph d="M43 1759v238h221v-238h-221zM369 1759v238h221v-238h-221zM190 0v1587h250v-1587h-250z" glyph-name="Idieresis" horiz-adv-x="632" unicode="Ï"/><glyph d="M809 1587q395 0 595 -206.5t200 -596.5q0 -379 -203 -581.5t-594 -202.5h-617v729h-147v133h147v725h619zM780 221q297 0 434.5 142.5t137.5 433.5q0 287 -132.5 430t-414.5 143h-365v-508h252v-133h-252v-508h340z" glyph-name="Eth" horiz-adv-x="1695" unicode="Ð"/><glyph d="M985 1733q-53 0 -94 21.5t-63.5 47t-53.5 47t-63 21.5q-74 0 -70 -123h-121q0 252 174 252q72 0 119 -35t84 -68.5t78 -33.5q72 0 72 135h118q0 -264 -180 -264zM190 0v1587h304l739 -1251h12v1251h250v-1587h-307l-737 1260h-11v-1260h-250z" glyph-name="Ntilde" horiz-adv-x="1685" unicode="Ñ"/><glyph d="M739 1700l-254 297h226l200 -297h-172zM825 -31q-340 0 -535.5 218.5t-195.5 607.5q0 387 195.5 606t535.5 219q338 0 536 -219t198 -606q0 -389 -197 -607.5t-537 -218.5zM825.5 190q229.5 0 358.5 162t129 442.5t-129 442.5t-358.5 162t-357.5 -161t-128 -443.5 t128 -443.5t357.5 -161z" glyph-name="Ograve" horiz-adv-x="1652" unicode="Ò"/><glyph d="M739 1700l199 297h225l-252 -297h-172zM825 -31q-340 0 -535.5 218.5t-195.5 607.5q0 387 195.5 606t535.5 219q338 0 536 -219t198 -606q0 -389 -197 -607.5t-537 -218.5zM825.5 190q229.5 0 358.5 162t129 442.5t-129 442.5t-358.5 162t-357.5 -161t-128 -443.5 t128 -443.5t357.5 -161z" glyph-name="Oacute" horiz-adv-x="1652" unicode="Ó"/><glyph d="M825 1870l-102 -170h-191l195 297h195l194 -297h-188zM825 1620q338 0 536 -219t198 -606q0 -389 -197 -607.5t-537 -218.5t-535.5 218.5t-195.5 607.5q0 387 195.5 606t535.5 219zM825.5 190q229.5 0 358.5 162t129 442.5t-129 442.5t-358.5 162t-357.5 -161 t-128 -443.5t128 -443.5t357.5 -161z" glyph-name="Ocircumflex" horiz-adv-x="1652" unicode="Ô"/><glyph d="M969 1733q-53 0 -94 21.5t-64 47t-53.5 47t-63.5 21.5q-74 0 -69 -123h-121q0 252 174 252q72 0 119 -35t84 -68.5t77 -33.5q72 0 72 135h119q0 -264 -180 -264zM825 -31q-340 0 -535.5 218.5t-195.5 607.5q0 387 195.5 606t535.5 219q338 0 536 -219t198 -606 q0 -389 -197 -607.5t-537 -218.5zM825.5 190q229.5 0 358.5 162t129 442.5t-129 442.5t-358.5 162t-357.5 -161t-128 -443.5t128 -443.5t357.5 -161z" glyph-name="Otilde" horiz-adv-x="1652" unicode="Õ"/><glyph d="M553 1759v238h221v-238h-221zM879 1759v238h221v-238h-221zM825 -31q-340 0 -535.5 218.5t-195.5 607.5q0 387 195.5 606t535.5 219q338 0 536 -219t198 -606q0 -389 -197 -607.5t-537 -218.5zM825.5 190q229.5 0 358.5 162t129 442.5t-129 442.5t-358.5 162t-357.5 -161 t-128 -443.5t128 -443.5t357.5 -161z" glyph-name="Odieresis" horiz-adv-x="1652" unicode="Ö"/><glyph d="M246 102l-142 142l349 346l-349 346l142 141l346 -348l346 348l141 -143l-346 -346l346 -344l-141 -142l-346 344z" glyph-name="multiply" horiz-adv-x="1183" unicode="×"/><glyph d="M1436 1298q123 -201 123 -503q0 -389 -197 -607.5t-537 -218.5q-328 0 -518 201l-55 -55l-109 104l72 72q-121 203 -121 504q0 387 195.5 606t535.5 219q328 0 518 -201l54 54l110 -103zM340 795q0 -184 57 -322l777 776q-131 150 -349 150q-229 0 -357 -160.5 t-128 -443.5zM825 190q229 0 358.5 162t129.5 443q0 184 -58 323l-778 -778q127 -150 348 -150z" glyph-name="Oslash" horiz-adv-x="1652" unicode="Ø"/><glyph d="M711 1700l-254 297h225l201 -297h-172zM796.5 -31q-307.5 0 -473 161t-165.5 460v997h252v-1016q0 -184 101 -283.5t286 -99.5q182 0 283.5 99.5t101.5 283.5v1016h254v-985q0 -305 -166 -469t-473.5 -164z" glyph-name="Ugrave" horiz-adv-x="1593" unicode="Ù"/><glyph d="M711 1700l198 297h226l-252 -297h-172zM796.5 -31q-307.5 0 -473 161t-165.5 460v997h252v-1016q0 -184 101 -283.5t286 -99.5q182 0 283.5 99.5t101.5 283.5v1016h254v-985q0 -305 -166 -469t-473.5 -164z" glyph-name="Uacute" horiz-adv-x="1593" unicode="Ú"/><glyph d="M797 1870l-103 -170h-190l194 297h195l194 -297h-188zM1182 1587h254v-985q0 -305 -166 -469t-473.5 -164t-473 161t-165.5 460v997h252v-1016q0 -184 101 -283.5t286 -99.5q182 0 283.5 99.5t101.5 283.5v1016z" glyph-name="Ucircumflex" horiz-adv-x="1593" unicode="Û"/><glyph d="M524 1759v238h221v-238h-221zM850 1759v238h221v-238h-221zM796.5 -31q-307.5 0 -473 161t-165.5 460v997h252v-1016q0 -184 101 -283.5t286 -99.5q182 0 283.5 99.5t101.5 283.5v1016h254v-985q0 -305 -166 -469t-473.5 -164z" glyph-name="Udieresis" horiz-adv-x="1593" unicode="Ü"/><glyph d="M588 1700l198 297h226l-252 -297h-172zM549 0v596l-531 991h271l383 -737h10l377 737h270l-530 -991v-596h-250z" glyph-name="Yacute" horiz-adv-x="1345" unicode="Ý"/><glyph d="M190 0v1587h250v-248h332q244 0 388.5 -119.5t144.5 -345.5q0 -229 -143.5 -343.5t-389.5 -114.5h-332v-416h-250zM440 629h305q309 0 310 243q0 119 -79 184.5t-231 65.5h-305v-493z" glyph-name="Thorn" horiz-adv-x="1361" unicode="Þ"/><glyph d="M981 -25q-150 0 -281 69t-208 177l149 141q51 -88 139 -146t205 -58q94 0 157.5 44t63.5 128q0 66 -45 100.5t-135 56.5l-180 48q-143 39 -221 113.5t-78 207.5q0 156 106.5 247t288.5 91h98q-16 231 -309 231q-176 0 -256 -76.5t-80 -230.5v-1118h-243v1137 q0 240 145 361.5t424 121.5q262 0 411.5 -112.5t149.5 -336.5v-143h-305q-90 0 -144.5 -40t-54.5 -109q0 -53 37 -82t111 -49l194 -52q68 -20 119 -42.5t101.5 -62.5t77 -101.5t26.5 -143.5q0 -176 -128 -273.5t-335 -97.5z" glyph-name="germandbls" horiz-adv-x="1476" unicode="ß"/><glyph d="M692 1290h-172l-254 297h226zM606 1202q219 0 348 -100.5t129 -290.5v-811h-235v127h-17q-182 -152 -401 -152q-176 0 -275.5 89.5t-99.5 242.5q0 164 114 254t296 141l383 103v8q0 100 -65.5 154.5t-188.5 54.5q-221 0 -383 -182l-133 147q202 215 528 215zM489 156 q182 0 359 180v285l-342 -99q-213 -61 -213 -200q0 -74 52 -120t144 -46z" glyph-name="agrave" horiz-adv-x="1210" unicode="à"/><glyph d="M944 1587l-252 -297h-172l199 297h225zM606 1202q219 0 348 -100.5t129 -290.5v-811h-235v127h-17q-182 -152 -401 -152q-176 0 -275.5 89.5t-99.5 242.5q0 164 114 254t296 141l383 103v8q0 100 -65.5 154.5t-188.5 54.5q-221 0 -383 -182l-133 147q202 215 528 215z M489 156q182 0 359 180v285l-342 -99q-213 -61 -213 -200q0 -74 52 -120t144 -46z" glyph-name="aacute" horiz-adv-x="1210" unicode="á"/><glyph d="M606 1460l-102 -170h-191l195 297h194l195 -297h-188zM606 1202q219 0 348 -100.5t129 -290.5v-811h-235v127h-17q-182 -152 -401 -152q-176 0 -275.5 89.5t-99.5 242.5q0 164 114 254t296 141l383 103v8q0 100 -65.5 154.5t-188.5 54.5q-221 0 -383 -182l-133 147 q202 215 528 215zM489 156q182 0 359 180v285l-342 -99q-213 -61 -213 -200q0 -74 52 -120t144 -46z" glyph-name="acircumflex" horiz-adv-x="1210" unicode="â"/><glyph d="M473 1460q-74 0 -70 -123h-120q0 252 174 252q72 0 119 -34.5t83.5 -68.5t77.5 -34q72 0 72 135h119q0 -264 -180 -264q-53 0 -94.5 21.5t-64 47t-53 47t-63.5 21.5zM606 1202q219 0 348 -100.5t129 -290.5v-811h-235v127h-17q-182 -152 -401 -152q-176 0 -275.5 89.5 t-99.5 242.5q0 164 114 254t296 141l383 103v8q0 100 -65.5 154.5t-188.5 54.5q-221 0 -383 -182l-133 147q202 215 528 215zM489 156q182 0 359 180v285l-342 -99q-213 -61 -213 -200q0 -74 52 -120t144 -46z" glyph-name="atilde" horiz-adv-x="1210" unicode="ã"/><glyph d="M553 1587v-237h-221v237h221zM879 1587v-237h-222v237h222zM606 1202q219 0 348 -100.5t129 -290.5v-811h-235v127h-17q-182 -152 -401 -152q-176 0 -275.5 89.5t-99.5 242.5q0 164 114 254t296 141l383 103v8q0 100 -65.5 154.5t-188.5 54.5q-221 0 -383 -182l-133 147 q202 215 528 215zM489 156q182 0 359 180v285l-342 -99q-213 -61 -213 -200q0 -74 52 -120t144 -46z" glyph-name="adieresis" horiz-adv-x="1210" unicode="ä"/><glyph d="M606 1251q-88 0 -148.5 61.5t-60.5 149.5q0 86 61.5 146.5t147.5 60.5t147.5 -60.5t61.5 -146.5q0 -88 -60.5 -149.5t-148.5 -61.5zM606 1554q-41 0 -66.5 -25.5t-25.5 -68.5q0 -41 25.5 -66.5t66.5 -25.5q39 0 66.5 26.5t27.5 65.5t-27.5 66.5t-66.5 27.5zM606 1202 q219 0 348 -100.5t129 -290.5v-811h-235v127h-17q-182 -152 -401 -152q-176 0 -275.5 89.5t-99.5 242.5q0 164 114 254t296 141l383 103v8q0 100 -65.5 154.5t-188.5 54.5q-221 0 -383 -182l-133 147q202 215 528 215zM489 156q182 0 359 180v285l-342 -99 q-213 -61 -213 -200q0 -74 52 -120t144 -46z" glyph-name="aring" horiz-adv-x="1210" unicode="å"/><glyph d="M1831 614q0 -51 -6 -90h-819q10 -158 99 -257t249 -99q193 0 299 143l153 -137q-176 -197 -454 -197q-311 0 -469 207q-242 -209 -473 -209q-166 0 -260.5 89.5t-94.5 242.5q0 86 33 154.5t93.5 114t122 75t140.5 51.5l347 101l2 37q-16 172 -226 172q-215 0 -364 -172 l-127 147q201 215 504 215q246 0 364 -135q145 135 369 135q254 0 386 -169t132 -419zM1307 1010q-152 0 -226.5 -92.5t-81.5 -231.5h598q-4 154 -77.5 239t-212.5 85zM799 340l-2 14q-33 111 -33 232v24l-277 -88q-195 -63 -194 -200q0 -74 46 -120t132 -46q166 0 328 184z " glyph-name="ae" horiz-adv-x="1896" unicode="æ"/><glyph d="M625 166q242 0 307 250l196 -58q-47 -180 -175 -279t-308 -108l-61 -96l39 -12q154 -45 153 -176q0 -90 -62.5 -138.5t-150.5 -48.5q-150 0 -217 123l109 64q31 -72 102 -72q37 0 59.5 21.5t22.5 54.5q0 74 -100 102l-117 37l86 150q-203 35 -322.5 191.5t-119.5 414.5 q0 293 151.5 454.5t396.5 161.5q190 0 327.5 -100.5t186.5 -286.5l-198 -67q-59 258 -305 258q-147 0 -234.5 -103.5t-87.5 -316.5q0 -211 87.5 -315.5t234.5 -104.5z" glyph-name="ccedilla" horiz-adv-x="1171" unicode="ç"/><glyph d="M686 1290h-172l-254 297h225zM1133 614q0 -33 -7 -90h-821q12 -160 101.5 -258t248.5 -98q193 0 299 143l154 -137q-178 -197 -455 -197q-281 0 -434 167t-153 442q0 268 142 442t406 174q254 0 386.5 -169t132.5 -419zM606 1010q-152 0 -225.5 -92.5t-79.5 -231.5h598 q-4 154 -79 239t-214 85z" glyph-name="egrave" horiz-adv-x="1198" unicode="è"/><glyph d="M938 1587l-252 -297h-172l199 297h225zM1133 614q0 -33 -7 -90h-821q12 -160 101.5 -258t248.5 -98q193 0 299 143l154 -137q-178 -197 -455 -197q-281 0 -434 167t-153 442q0 268 142 442t406 174q254 0 386.5 -169t132.5 -419zM606 1010q-152 0 -225.5 -92.5 t-79.5 -231.5h598q-4 154 -79 239t-214 85z" glyph-name="eacute" horiz-adv-x="1198" unicode="é"/><glyph d="M600 1460l-102 -170h-191l195 297h194l195 -297h-189zM1133 614q0 -33 -7 -90h-821q12 -160 101.5 -258t248.5 -98q193 0 299 143l154 -137q-178 -197 -455 -197q-281 0 -434 167t-153 442q0 268 142 442t406 174q254 0 386.5 -169t132.5 -419zM606 1010 q-152 0 -225.5 -92.5t-79.5 -231.5h598q-4 154 -79 239t-214 85z" glyph-name="ecircumflex" horiz-adv-x="1198" unicode="ê"/><glyph d="M547 1587v-237h-221v237h221zM872 1587v-237h-221v237h221zM1133 614q0 -33 -7 -90h-821q12 -160 101.5 -258t248.5 -98q193 0 299 143l154 -137q-178 -197 -455 -197q-281 0 -434 167t-153 442q0 268 142 442t406 174q254 0 386.5 -169t132.5 -419zM606 1010 q-152 0 -225.5 -92.5t-79.5 -231.5h598q-4 154 -79 239t-214 85z" glyph-name="edieresis" horiz-adv-x="1198" unicode="ë"/><glyph d="M184 1290l-254 297h226l200 -297h-172zM152 0v1178h237v-1178h-237z" glyph-name="igrave" horiz-adv-x="542" unicode="ì"/><glyph d="M184 1290l199 297h225l-252 -297h-172zM152 0v1178h237v-1178h-237z" glyph-name="iacute" horiz-adv-x="542" unicode="í"/><glyph d="M270 1460l-102 -170h-191l195 297h195l194 -297h-188zM152 0v1178h237v-1178h-237z" glyph-name="icircumflex" horiz-adv-x="542" unicode="î"/><glyph d="M-2 1350v237h221v-237h-221zM324 1350v237h221v-237h-221zM152 0v1178h237v-1178h-237z" glyph-name="idieresis" horiz-adv-x="542" unicode="ï"/><glyph d="M883 1376q252 -291 252 -725q0 -322 -143.5 -495.5t-391.5 -173.5q-254 0 -396.5 170t-142.5 426q0 250 135.5 413.5t370.5 163.5q225 0 340 -147q-55 184 -219 329l-391 -80l-21 95l312 61q-125 84 -293 137l82 152q256 -86 428 -246l254 51l16 -92zM596 172 q147 0 222 113.5t75 292.5q0 182 -78 287.5t-225.5 105.5t-218 -106.5t-70.5 -280.5q0 -186 76 -299t219 -113z" glyph-name="eth" horiz-adv-x="1222" unicode="ð"/><glyph d="M772 1323q-53 0 -94 21.5t-63.5 47t-53.5 47t-63 21.5q-74 0 -70 -123h-121q0 252 174 252q72 0 119 -34.5t84 -68.5t78 -34q72 0 72 135h118q0 -264 -180 -264zM152 0v1178h237v-150h12q49 78 138.5 126t208.5 48q176 0 278 -108.5t102 -307.5v-786h-235v727 q0 276 -223 277q-133 0 -206 -86.5t-73 -229.5v-688h-239z" glyph-name="ntilde" horiz-adv-x="1257" unicode="ñ"/><glyph d="M528 1290l-254 297h226l200 -297h-172zM614.5 -25q-245.5 0 -397 160t-151.5 451q0 293 151.5 454.5t397 161.5t397 -161.5t151.5 -454.5q0 -291 -151.5 -451t-397 -160zM618.5 170q145.5 0 229.5 102.5t84 313.5t-84 315.5t-229.5 104.5t-229.5 -103.5t-84 -316.5 q0 -211 84 -313.5t229.5 -102.5z" glyph-name="ograve" horiz-adv-x="1230" unicode="ò"/><glyph d="M528 1290l199 297h225l-252 -297h-172zM614.5 -25q-245.5 0 -397 160t-151.5 451q0 293 151.5 454.5t397 161.5t397 -161.5t151.5 -454.5q0 -291 -151.5 -451t-397 -160zM618.5 170q145.5 0 229.5 102.5t84 313.5t-84 315.5t-229.5 104.5t-229.5 -103.5t-84 -316.5 q0 -211 84 -313.5t229.5 -102.5z" glyph-name="oacute" horiz-adv-x="1230" unicode="ó"/><glyph d="M614 1460l-102 -170h-190l194 297h195l194 -297h-188zM614.5 1202q245.5 0 397 -161.5t151.5 -454.5q0 -291 -151.5 -451t-397 -160t-397 160t-151.5 451q0 293 151.5 454.5t397 161.5zM618.5 170q145.5 0 229.5 102.5t84 313.5t-84 315.5t-229.5 104.5t-229.5 -103.5 t-84 -316.5q0 -211 84 -313.5t229.5 -102.5z" glyph-name="ocircumflex" horiz-adv-x="1230" unicode="ô"/><glyph d="M758 1323q-53 0 -94 21.5t-63.5 47t-53.5 47t-64 21.5q-74 0 -69 -123h-121q0 252 174 252q72 0 119 -34.5t84 -68.5t78 -34q72 0 71 135h119q0 -264 -180 -264zM614.5 -25q-245.5 0 -397 160t-151.5 451q0 293 151.5 454.5t397 161.5t397 -161.5t151.5 -454.5 q0 -291 -151.5 -451t-397 -160zM618.5 170q145.5 0 229.5 102.5t84 313.5t-84 315.5t-229.5 104.5t-229.5 -103.5t-84 -316.5q0 -211 84 -313.5t229.5 -102.5z" glyph-name="otilde" horiz-adv-x="1230" unicode="õ"/><glyph d="M342 1350v237h221v-237h-221zM668 1350v237h221v-237h-221zM614.5 -25q-245.5 0 -397 160t-151.5 451q0 293 151.5 454.5t397 161.5t397 -161.5t151.5 -454.5q0 -291 -151.5 -451t-397 -160zM618.5 170q145.5 0 229.5 102.5t84 313.5t-84 315.5t-229.5 104.5 t-229.5 -103.5t-84 -316.5q0 -211 84 -313.5t229.5 -102.5z" glyph-name="odieresis" horiz-adv-x="1230" unicode="ö"/><glyph d="M471 897v254h262v-254h-262zM94 489v199h1014v-199h-1014zM471 29v254h262v-254h-262z" glyph-name="divide" horiz-adv-x="1206" unicode="÷"/><glyph d="M1069 963q94 -152 94 -377q0 -291 -151.5 -451t-397.5 -160q-248 0 -393 156l-39 -37l-73 72l49 49q-92 145 -92 371q0 293 151.5 454.5t396.5 161.5q248 0 394 -158l39 37l73 -69zM305 586q0 -111 27 -201l522 508q-80 113 -236 113q-145 0 -229 -103.5t-84 -316.5z M618 170q145 0 229.5 102.5t84.5 313.5q0 123 -31 213l-522 -512q79 -117 239 -117z" glyph-name="oslash" horiz-adv-x="1230" unicode="ø"/><glyph d="M549 1290l-254 297h225l201 -297h-172zM516 -23q-178 0 -283.5 112t-105.5 310v779h238v-727q0 -276 227 -277q129 0 207 84t78 248v672h239v-1178h-237v150h-11q-116 -173 -352 -173z" glyph-name="ugrave" horiz-adv-x="1269" unicode="ù"/><glyph d="M549 1290l199 297h225l-252 -297h-172zM516 -23q-178 0 -283.5 112t-105.5 310v779h238v-727q0 -276 227 -277q129 0 207 84t78 248v672h239v-1178h-237v150h-11q-116 -173 -352 -173z" glyph-name="uacute" horiz-adv-x="1269" unicode="ú"/><glyph d="M635 1460l-103 -170h-190l195 297h194l195 -297h-189zM877 1178h239v-1178h-237v150h-11q-117 -172 -352 -173q-178 0 -283.5 112t-105.5 310v779h238v-727q0 -276 227 -277q129 0 207 84t78 248v672z" glyph-name="ucircumflex" horiz-adv-x="1269" unicode="û"/><glyph d="M360 1350v237h222v-237h-222zM686 1350v237h221v-237h-221zM516 -23q-178 0 -283.5 112t-105.5 310v779h238v-727q0 -276 227 -277q129 0 207 84t78 248v672h239v-1178h-237v150h-11q-116 -173 -352 -173z" glyph-name="udieresis" horiz-adv-x="1269" unicode="ü"/><glyph d="M440 1290l199 297h225l-252 -297h-172zM23 -410v195h133q117 0 179 57.5t62 159.5q0 61 -26 135l-365 1041h256l258 -885h15l256 885h258l-422 -1223q-72 -199 -173.5 -282t-291.5 -83h-139z" glyph-name="yacute" horiz-adv-x="1054" unicode="ý"/><glyph d="M154 -410v1997h239v-561h8q125 176 356.5 176t355.5 -169t124 -443q0 -276 -125 -445.5t-356 -169.5q-240 0 -359 177h-8v-562h-235zM688.5 170q147.5 0 227 108.5t79.5 311.5q0 199 -78.5 306.5t-228.5 107.5q-147 0 -228 -111t-81 -303q0 -199 81 -309.5t228.5 -110.5z " glyph-name="thorn" horiz-adv-x="1310" unicode="þ"/><glyph d="M254 1350v237h221v-237h-221zM580 1350v237h221v-237h-221zM23 -410v195h133q117 0 179 57.5t62 159.5q0 61 -26 135l-365 1041h256l258 -885h15l256 885h258l-422 -1223q-72 -199 -173.5 -282t-291.5 -83h-139z" glyph-name="ydieresis" horiz-adv-x="1054" unicode="ÿ"/><glyph d="M930 1452v-141h-649v141h649zM606 1202q219 0 348 -100.5t129 -290.5v-811h-235v127h-17q-182 -152 -401 -152q-176 0 -275.5 89.5t-99.5 242.5q0 164 114 254t296 141l383 103v8q0 100 -65.5 154.5t-188.5 54.5q-221 0 -383 -182l-133 147q202 215 528 215zM489 156 q182 0 359 180v285l-342 -99q-213 -61 -213 -200q0 -74 52 -120t144 -46z" glyph-name="amacron" horiz-adv-x="1210" unicode="ā"/><glyph d="M604 1298q-131 0 -212 73t-81 216h148q0 -88 40 -131t105.5 -43t105.5 44t40 130h151q0 -143 -82 -216t-215 -73zM606 1202q219 0 348 -100.5t129 -290.5v-811h-235v127h-17q-182 -152 -401 -152q-176 0 -275.5 89.5t-99.5 242.5q0 164 114 254t296 141l383 103v8 q0 100 -65.5 154.5t-188.5 54.5q-221 0 -383 -182l-133 147q202 215 528 215zM489 156q182 0 359 180v285l-342 -99q-213 -61 -213 -200q0 -74 52 -120t144 -46z" glyph-name="abreve" horiz-adv-x="1210" unicode="ă"/><glyph d="M1083 0q-102 -70 -146 -124t-44 -132q0 -39 22.5 -60.5t57.5 -21.5q63 0 110 47v-147q-61 -23 -122 -23q-100 0 -154.5 49.5t-54.5 132.5q0 162 204 279h-108v127h-17q-182 -152 -401 -152q-176 0 -275.5 89.5t-99.5 242.5q0 164 114 254t296 141l383 103v8 q0 100 -65.5 154.5t-188.5 54.5q-221 0 -383 -182l-133 147q203 215 528 215q219 0 348 -100.5t129 -290.5v-811zM489 156q182 0 359 180v285l-342 -99q-213 -61 -213 -200q0 -74 52 -120t144 -46z" glyph-name="aogonek" horiz-adv-x="1210" unicode="ą"/><glyph d="M739 1700l199 297h225l-252 -297h-172zM825 -31q-340 0 -535.5 218.5t-195.5 607.5q0 387 195.5 606t535.5 219q242 0 413 -118t247 -333l-228 -86q-49 152 -160.5 233t-271.5 81q-229 0 -357 -161t-128 -441.5t128 -442.5t357 -162q162 0 272.5 82t159.5 234l228 -86 q-76 -215 -247 -333t-413 -118z" glyph-name="Cacute" horiz-adv-x="1542" unicode="Ć"/><glyph d="M500 1290l198 297h226l-252 -297h-172zM614 -29q-246 0 -397 162t-151 453q0 293 151.5 454.5t396.5 161.5q190 0 327.5 -100.5t186.5 -286.5l-198 -67q-59 258 -305 258q-147 0 -234.5 -103.5t-87.5 -316.5q0 -211 87 -315.5t235 -104.5q242 0 307 250l196 -58 q-49 -186 -186.5 -286.5t-327.5 -100.5z" glyph-name="cacute" horiz-adv-x="1171" unicode="ć"/><glyph d="M694 1759v238h258v-238h-258zM825 -31q-340 0 -535.5 218.5t-195.5 607.5q0 387 195.5 606t535.5 219q242 0 413 -118t247 -333l-228 -86q-49 152 -160.5 233t-271.5 81q-229 0 -357 -161t-128 -441.5t128 -442.5t357 -162q162 0 272.5 82t159.5 234l228 -86 q-76 -215 -247 -333t-413 -118z" glyph-name="Cdotaccent" horiz-adv-x="1542" unicode="Ċ"/><glyph d="M457 1350v237h258v-237h-258zM614 -29q-246 0 -397 162t-151 453q0 293 151.5 454.5t396.5 161.5q190 0 327.5 -100.5t186.5 -286.5l-198 -67q-59 258 -305 258q-147 0 -234.5 -103.5t-87.5 -316.5q0 -211 87 -315.5t235 -104.5q242 0 307 250l196 -58 q-49 -186 -186.5 -286.5t-327.5 -100.5z" glyph-name="cdotaccent" horiz-adv-x="1171" unicode="ċ"/><glyph d="M922 1700h-195l-195 297h191l102 -168l101 168h190zM825 190q162 0 272.5 82t159.5 234l228 -86q-76 -215 -247 -333t-413 -118q-340 0 -535.5 218.5t-195.5 607.5q0 387 195.5 606t535.5 219q242 0 413 -118t247 -333l-228 -86q-49 152 -160.5 233t-271.5 81 q-229 0 -357 -161t-128 -441.5t128 -442.5t357 -162z" glyph-name="Ccaron" horiz-adv-x="1542" unicode="Č"/><glyph d="M682 1290h-195l-194 297h190l103 -168l100 168h191zM625 166q242 0 307 250l196 -58q-49 -186 -186 -286.5t-328 -100.5q-246 0 -397 162t-151 453q0 293 151.5 454.5t396.5 161.5q190 0 327.5 -100.5t186.5 -286.5l-198 -67q-59 258 -305 258q-147 0 -234.5 -103.5 t-87.5 -316.5q0 -211 87.5 -315.5t234.5 -104.5z" glyph-name="ccaron" horiz-adv-x="1171" unicode="č"/><glyph d="M944 1700h-194l-195 297h190l103 -168l100 168h191zM809 1587q395 0 595 -206.5t200 -596.5q0 -379 -203 -581.5t-594 -202.5h-617v1587h619zM780 221q297 0 434.5 142.5t137.5 433.5q0 287 -132.5 430t-414.5 143h-365v-1149h340z" glyph-name="Dcaron" horiz-adv-x="1695" unicode="Ď"/><glyph d="M555 -25q-233 0 -358 169t-125 446q0 274 125 443t356 169q221 0 354 -162h8v547h240v-1587h-235v137h-9q-127 -162 -356 -162zM1251 905v111q57 4 97.5 22.5t62 42t32.5 63.5t13 70.5t2 79.5h-184v293h350v-293q0 -174 -81 -273.5t-292 -115.5zM629 170q141 0 222 111.5 t81 310.5q0 190 -82 301t-221 111q-156 0 -236 -106.5t-80 -305.5q1 -422 316 -422z" glyph-name="dcaron" horiz-adv-x="1603" unicode="ď"/><glyph d="M809 1587q395 0 595 -206.5t200 -596.5q0 -379 -203 -581.5t-594 -202.5h-617v729h-147v133h147v725h619zM780 221q297 0 434.5 142.5t137.5 433.5q0 287 -132.5 430t-414.5 143h-365v-508h252v-133h-252v-508h340z" glyph-name="Dcroat" horiz-adv-x="1695" unicode="Đ"/><glyph d="M1305 1442v-133h-150v-1309h-235v137h-9q-127 -162 -356 -162q-233 0 -358 169t-125 446q0 274 125 443t356 169q221 0 354 -162h8v269h-260v133h260v145h240v-145h150zM629 170q141 0 222 111.5t81 310.5q0 190 -82 301t-221 111q-156 0 -236 -106.5t-80 -305.5 q1 -422 316 -422z" glyph-name="dcroat" horiz-adv-x="1308" unicode="đ"/><glyph d="M457 1720v142h649v-142h-649zM190 0v1587h1141v-215h-891v-446h817v-217h-817v-494h930v-215h-1180z" glyph-name="Emacron" horiz-adv-x="1447" unicode="Ē"/><glyph d="M924 1452v-141h-650v141h650zM1133 614q0 -33 -7 -90h-821q12 -160 101.5 -258t248.5 -98q193 0 299 143l154 -137q-178 -197 -455 -197q-281 0 -434 167t-153 442q0 268 142 442t406 174q254 0 386.5 -169t132.5 -419zM606 1010q-152 0 -225.5 -92.5t-79.5 -231.5h598 q-4 154 -79 239t-214 85z" glyph-name="emacron" horiz-adv-x="1198" unicode="ē"/><glyph d="M778 1708q-131 0 -212 72.5t-81 216.5h148q0 -88 40 -131t105.5 -43t105.5 44t40 130h151q0 -143 -82 -216t-215 -73zM190 0v1587h1141v-215h-891v-446h817v-217h-817v-494h930v-215h-1180z" glyph-name="Ebreve" horiz-adv-x="1447" unicode="Ĕ"/><glyph d="M598 1298q-131 0 -212 73t-81 216h148q0 -88 39.5 -131t105.5 -43t105.5 44t39.5 130h152q0 -143 -82 -216t-215 -73zM1133 614q0 -33 -7 -90h-821q12 -160 101.5 -258t248.5 -98q193 0 299 143l154 -137q-178 -197 -455 -197q-281 0 -434 167t-153 442q0 268 142 442 t406 174q254 0 386.5 -169t132.5 -419zM606 1010q-152 0 -225.5 -92.5t-79.5 -231.5h598q-4 154 -79 239t-214 85z" glyph-name="ebreve" horiz-adv-x="1198" unicode="ĕ"/><glyph d="M651 1759v238h258v-238h-258zM190 0v1587h1141v-215h-891v-446h817v-217h-817v-494h930v-215h-1180z" glyph-name="Edotaccent" horiz-adv-x="1447" unicode="Ė"/><glyph d="M727 1587v-237h-258v237h258zM1133 614q0 -33 -7 -90h-821q12 -160 101.5 -258t248.5 -98q193 0 299 143l154 -137q-178 -197 -455 -197q-281 0 -434 167t-153 442q0 268 142 442t406 174q254 0 386.5 -169t132.5 -419zM606 1010q-152 0 -225.5 -92.5t-79.5 -231.5h598 q-4 154 -79 239t-214 85z" glyph-name="edotaccent" horiz-adv-x="1198" unicode="ė"/><glyph d="M1370 0q-102 -70 -146 -124t-44 -132q0 -39 22.5 -60.5t57.5 -21.5q63 0 110 47v-147q-61 -23 -123 -23q-100 0 -154.5 49.5t-54.5 132.5q0 162 205 279h-1053v1587h1141v-215h-891v-446h817v-217h-817v-494h930v-215z" glyph-name="Eogonek" horiz-adv-x="1447" unicode="Ę"/><glyph d="M1133 614q0 -33 -7 -90h-821q12 -160 101.5 -258t248.5 -98q193 0 299 143l154 -137q-41 -45 -74 -70h4q-102 -70 -146 -124t-44 -132q0 -39 22.5 -60t57.5 -21q63 0 110 47v-148q-61 -23 -123 -22q-100 0 -154 49t-54 133q0 82 59 160q-49 -8 -113 -9q-281 0 -434 167 t-153 442q0 268 142 442t406 174q254 0 386.5 -169t132.5 -419zM606 1010q-152 0 -225.5 -92.5t-79.5 -231.5h598q-4 154 -79 239t-214 85z" glyph-name="eogonek" horiz-adv-x="1198" unicode="ę"/><glyph d="M877 1700h-195l-195 297h191l102 -168l101 168h190zM440 215h930v-215h-1180v1587h1141v-215h-891v-446h817v-217h-817v-494z" glyph-name="Ecaron" horiz-adv-x="1447" unicode="Ě"/><glyph d="M696 1290h-194l-195 297h191l102 -168l100 168h191zM1133 614q0 -33 -7 -90h-821q12 -160 101.5 -258t248.5 -98q193 0 299 143l154 -137q-178 -197 -455 -197q-281 0 -434 167t-153 442q0 268 142 442t406 174q254 0 386.5 -169t132.5 -419zM606 1010 q-152 0 -225.5 -92.5t-79.5 -231.5h598q-4 154 -79 239t-214 85z" glyph-name="ecaron" horiz-adv-x="1198" unicode="ě"/><glyph d="M834 1870l-103 -170h-190l194 297h195l194 -297h-188zM881 840h655v-840h-209v223h-12q-72 -113 -202 -182.5t-306 -69.5q-336 0 -525.5 226.5t-189.5 597.5q0 381 202 602t550 221q242 0 414 -117t247 -315l-219 -84q-117 299 -442 299q-238 0 -370 -164t-132 -436 q0 -266 124 -436t372 -170q203 0 326.5 119.5t142.5 322.5h-426v203z" glyph-name="Gcircumflex" horiz-adv-x="1667" unicode="Ĝ"/><glyph d="M645 1460l-102 -170h-191l195 297h194l195 -297h-188zM899 1178h240v-1094q0 -270 -150.5 -393t-390.5 -123q-375 0 -524 262l186 115q100 -193 334 -193q141 0 223 78t82 246v108h-8q-113 -162 -340 -161q-223 0 -354 164.5t-131 420.5q0 268 132 431t361 163 q215 0 326 -158h14v134zM621 207q152 0 226.5 104.5t74.5 292.5q0 178 -77 293t-233 115q-150 0 -226.5 -112t-76.5 -296q0 -178 78 -287.5t234 -109.5z" glyph-name="gcircumflex" horiz-adv-x="1292" unicode="ĝ"/><glyph d="M831 1708q-131 0 -211.5 72.5t-80.5 216.5h147q0 -88 40 -131t105.5 -43t105.5 44t40 130h151q0 -143 -82 -216t-215 -73zM881 840h655v-840h-209v223h-12q-72 -113 -202 -182.5t-306 -69.5q-336 0 -525.5 226.5t-189.5 597.5q0 381 202 602t550 221q242 0 414 -117 t247 -315l-219 -84q-117 299 -442 299q-238 0 -370 -164t-132 -436q0 -266 124 -436t372 -170q203 0 326.5 119.5t142.5 322.5h-426v203z" glyph-name="Gbreve" horiz-adv-x="1667" unicode="Ğ"/><glyph d="M643 1298q-131 0 -212 73t-81 216h148q0 -88 40 -131t105.5 -43t105 44t39.5 130h152q0 -143 -82 -216t-215 -73zM598 -432q-375 0 -524 262l186 115q100 -193 334 -193q141 0 223 78t82 246v108h-8q-113 -162 -340 -161q-223 0 -354 164.5t-131 420.5q0 268 132 431 t361 163q215 0 326 -158h14v134h240v-1094q0 -270 -150.5 -393t-390.5 -123zM621 207q152 0 226.5 104.5t74.5 292.5q0 178 -77 293t-233 115q-150 0 -226.5 -112t-76.5 -296q0 -178 78 -287.5t234 -109.5z" glyph-name="gbreve" horiz-adv-x="1292" unicode="ğ"/><glyph d="M961 1997v-238h-259v238h259zM881 840h655v-840h-209v223h-12q-72 -113 -202 -182.5t-306 -69.5q-336 0 -525.5 226.5t-189.5 597.5q0 381 202 602t550 221q242 0 414 -117t247 -315l-219 -84q-117 299 -442 299q-238 0 -370 -164t-132 -436q0 -266 124 -436t372 -170 q203 0 326.5 119.5t142.5 322.5h-426v203z" glyph-name="Gdotaccent" horiz-adv-x="1667" unicode="Ġ"/><glyph d="M516 1350v237h258v-237h-258zM598 -432q-375 0 -524 262l186 115q100 -193 334 -193q141 0 223 78t82 246v108h-8q-113 -162 -340 -161q-223 0 -354 164.5t-131 420.5q0 268 132 431t361 163q215 0 326 -158h14v134h240v-1094q0 -270 -150.5 -393t-390.5 -123zM621 207 q152 0 226.5 104.5t74.5 292.5q0 178 -77 293t-233 115q-150 0 -226.5 -112t-76.5 -296q0 -178 78 -287.5t234 -109.5z" glyph-name="gdotaccent" horiz-adv-x="1292" unicode="ġ"/><glyph d="M881 840h655v-840h-209v223h-12q-72 -113 -202 -182.5t-306 -69.5q-336 0 -525.5 226.5t-189.5 597.5q0 381 202 602t550 221q242 0 414 -117t247 -315l-219 -84q-117 299 -442 299q-238 0 -370 -164t-132 -436q0 -266 124 -436t372 -170q203 0 326.5 119.5t142.5 322.5 h-426v203zM586 -461l129 303h235l-239 -303h-125z" glyph-name="Gcommaaccent" horiz-adv-x="1667" unicode="Ģ"/><glyph d="M535 1290l194 297h137l-108 -297h-223zM598 -432q-375 0 -524 262l186 115q100 -193 334 -193q141 0 223 78t82 246v108h-8q-113 -162 -340 -161q-223 0 -354 164.5t-131 420.5q0 268 132 431t361 163q215 0 326 -158h14v134h240v-1094q0 -270 -150.5 -393t-390.5 -123z M621 207q152 0 226.5 104.5t74.5 292.5q0 178 -77 293t-233 115q-150 0 -226.5 -112t-76.5 -296q0 -178 78 -287.5t234 -109.5z" glyph-name="gcommaaccent" horiz-adv-x="1292" unicode="ģ"/><glyph d="M842 1870l-103 -170h-190l194 297h195l195 -297h-189zM1241 1587h250v-1587h-250v711h-801v-711h-250v1587h250v-663h801v663z" glyph-name="Hcircumflex" horiz-adv-x="1681" unicode="Ĥ"/><glyph d="M270 1870l-102 -170h-191l195 297h195l194 -297h-188zM743 1202q178 0 282.5 -114.5t104.5 -315.5v-772h-237v727q0 276 -219 277q-137 0 -210 -86.5t-73 -229.5v-688h-237v1587h237v-559h10q121 174 342 174z" glyph-name="hcircumflex" horiz-adv-x="1257" unicode="ĥ"/><glyph d="M1581 1327v-139h-90v-1188h-250v711h-801v-711h-250v1188h-88v139h88v260h250v-260h801v260h250v-260h90zM1241 924v264h-801v-264h801z" glyph-name="Hbar" horiz-adv-x="1681" unicode="Ħ"/><glyph d="M743 1202q178 0 282.5 -114.5t104.5 -315.5v-772h-237v727q0 276 -219 277q-137 0 -210 -86.5t-73 -229.5v-688h-237v1309h-115v133h115v145h237v-145h297v-133h-297v-281h10q121 174 342 174z" glyph-name="hbar" horiz-adv-x="1257" unicode="ħ"/><glyph d="M459 1733q-53 0 -94 21.5t-63.5 47t-53.5 47t-64 21.5q-74 0 -69 -123h-121q0 252 174 252q72 0 119 -35t84 -68.5t78 -33.5q72 0 71 135h119q0 -264 -180 -264zM190 0v1587h250v-1587h-250z" glyph-name="Itilde" horiz-adv-x="632" unicode="Ĩ"/><glyph d="M414 1323q-53 0 -94 21.5t-64 47t-53.5 47t-63.5 21.5q-74 0 -69 -123h-121q0 252 174 252q72 0 119 -34.5t83.5 -68.5t77.5 -34q72 0 72 135h119q0 -264 -180 -264zM152 0v1178h237v-1178h-237z" glyph-name="itilde" horiz-adv-x="542" unicode="ĩ"/><glyph d="M-8 1720v142h649v-142h-649zM190 0v1587h250v-1587h-250z" glyph-name="Imacron" horiz-adv-x="632" unicode="Ī"/><glyph d="M-53 1311v141h649v-141h-649zM152 0v1178h237v-1178h-237z" glyph-name="imacron" horiz-adv-x="542" unicode="ī"/><glyph d="M313 1708q-131 0 -212 72.5t-81 216.5h148q0 -88 40 -131t105.5 -43t105.5 44t40 130h151q0 -143 -82 -216t-215 -73zM190 0v1587h250v-1587h-250z" glyph-name="Ibreve" horiz-adv-x="632" unicode="Ĭ"/><glyph d="M268 1298q-131 0 -212 73t-81 216h148q0 -88 40 -131t105.5 -43t105.5 44t40 130h151q0 -143 -82 -216t-215 -73zM152 0v1178h237v-1178h-237z" glyph-name="ibreve" horiz-adv-x="542" unicode="ĭ"/><glyph d="M252 -256q0 -39 22.5 -60.5t57.5 -21.5q63 0 110 47v-147q-61 -23 -123 -23q-100 0 -154 49.5t-54 132.5q0 162 204 279h-125v1587h250v-1587h2q-102 -70 -146 -124t-44 -132z" glyph-name="Iogonek" horiz-adv-x="632" unicode="Į"/><glyph d="M141 1587h258v-237h-258v237zM391 0q-102 -70 -146 -124t-44 -132q0 -39 22.5 -60.5t57.5 -21.5q63 0 110 47v-147q-61 -23 -123 -23q-100 0 -154.5 49.5t-54.5 132.5q0 162 205 279h-112v1178h237v-1178h2z" glyph-name="iogonek" horiz-adv-x="542" unicode="į"/><glyph d="M186 1759v238h258v-238h-258zM190 0v1587h250v-1587h-250z" glyph-name="Idotaccent" horiz-adv-x="632" unicode="İ"/><glyph d="M152 0v1178h237v-1178h-237z" glyph-name="dotlessi" horiz-adv-x="542" unicode="ı"/><glyph d="M190 0v1587h250v-1587h-250zM664 0v215h174q133 0 195.5 62.5t62.5 218.5v1091h252v-1118q0 -242 -120 -355.5t-354 -113.5h-210z" glyph-name="IJ" horiz-adv-x="1513" unicode="Ĳ"/><glyph d="M141 1350v237h258v-237h-258zM686 1350v237h258v-237h-258zM152 0v1178h237v-1178h-237zM428 -410v177h113q78 0 116.5 46t38.5 124v1241h238v-1254q0 -154 -91 -244t-261 -90h-154z" glyph-name="ij" horiz-adv-x="1087" unicode="ĳ"/><glyph d="M588 1870l-103 -170h-190l194 297h195l195 -297h-189zM463 496v1091h252v-1118q0 -242 -120 -355.5t-353 -113.5h-211v215h174q133 0 195.5 62.5t62.5 218.5z" glyph-name="Jcircumflex" horiz-adv-x="880" unicode="Ĵ"/><glyph d="M272 1460l-102 -170h-190l194 297h195l194 -297h-188zM154 -63v1241h237v-1254q0 -154 -91 -244t-261 -90h-154v177h113q78 0 117 46t39 124z" glyph-name="jcircumflex" horiz-adv-x="544" unicode="ĵ"/><glyph d="M190 0v1587h250v-788h19l717 788h309l-563 -608l626 -979h-295l-491 780h-25l-297 -319v-461h-250zM600 -461l129 303h236l-240 -303h-125z" glyph-name="Kcommaaccent" horiz-adv-x="1570" unicode="Ķ"/><glyph d="M154 0v1587h237v-874h23l448 465h291l-461 -469l516 -709h-286l-381 537h-23l-127 -129v-408h-237zM410 -461l129 303h235l-239 -303h-125z" glyph-name="kcommaaccent" horiz-adv-x="1202" unicode="ķ"/><glyph d="M152 0v1178h239v-465h23l448 465h291l-463 -469l518 -709h-286l-381 537h-23l-127 -129v-408h-239z" glyph-name="kgreenlandic" horiz-adv-x="1202" unicode="ĸ"/><glyph d="M229 1700l199 297h225l-252 -297h-172zM190 0v1587h250v-1370h750v-217h-1000z" glyph-name="Lacute" horiz-adv-x="1220" unicode="Ĺ"/><glyph d="M190 0v1587h250v-1370h750v-217h-1000zM442 -461l129 303h236l-240 -303h-125z" glyph-name="Lcommaaccent" horiz-adv-x="1220" unicode="Ļ"/><glyph d="M154 0v1587h237v-1587h-237zM25 -461l129 303h235l-239 -303h-125z" glyph-name="lcommaaccent" horiz-adv-x="544" unicode="ļ"/><glyph d="M190 0v1587h250v-1370h750v-217h-1000zM805 905v111q57 4 97 22.5t61.5 42t33 63.5t13.5 70.5t2 79.5h-185v293h351v-293q0 -174 -81 -273.5t-292 -115.5z" glyph-name="Lcaron" horiz-adv-x="1220" unicode="Ľ"/><glyph d="M190 0v1587h250v-1370h750v-217h-1000zM842 649v291h352v-291h-352z" glyph-name="Ldot" horiz-adv-x="1282" unicode="Ŀ"/><glyph d="M440 217h750v-217h-1000v655l-102 -73v200l102 76v729h250v-543l215 160v-213l-215 -155v-619z" glyph-name="Lslash" horiz-adv-x="1220" unicode="Ł"/><glyph d="M555 1104v-213l-164 -119v-772h-237v600l-166 -119v201l166 123v782h237v-604z" glyph-name="lslash" horiz-adv-x="544" unicode="ł"/><glyph d="M758 1700l198 297h226l-252 -297h-172zM190 0v1587h304l739 -1251h12v1251h250v-1587h-307l-737 1260h-11v-1260h-250z" glyph-name="Nacute" horiz-adv-x="1685" unicode="Ń"/><glyph d="M543 1290l198 297h226l-252 -297h-172zM152 0v1178h237v-150h12q49 78 138.5 126t208.5 48q176 0 278 -108.5t102 -307.5v-786h-235v727q0 276 -223 277q-133 0 -206 -86.5t-73 -229.5v-688h-239z" glyph-name="nacute" horiz-adv-x="1257" unicode="ń"/><glyph d="M190 0v1587h304l739 -1251h12v1251h250v-1587h-307l-737 1260h-11v-1260h-250zM596 -461l129 303h236l-240 -303h-125z" glyph-name="Ncommaaccent" horiz-adv-x="1685" unicode="Ņ"/><glyph d="M152 0v1178h237v-150h12q49 78 138.5 126t208.5 48q176 0 278 -108.5t102 -307.5v-786h-235v727q0 276 -223 277q-133 0 -206 -86.5t-73 -229.5v-688h-239zM381 -461l129 303h235l-239 -303h-125z" glyph-name="ncommaaccent" horiz-adv-x="1257" unicode="ņ"/><glyph d="M940 1700h-195l-194 297h190l103 -168l100 168h191zM1245 1587h250v-1587h-307l-737 1260h-11v-1260h-250v1587h304l739 -1251h12v1251z" glyph-name="Ncaron" horiz-adv-x="1685" unicode="Ň"/><glyph d="M725 1290h-195l-194 297h190l103 -168l100 168h191zM748 1202q176 0 278 -108.5t102 -307.5v-786h-235v727q0 276 -223 277q-133 0 -206 -86.5t-73 -229.5v-688h-239v1178h237v-150h12q49 78 138.5 126t208.5 48z" glyph-name="ncaron" horiz-adv-x="1257" unicode="ň"/><glyph d="M141 905v111q57 4 97.5 22.5t62 42t32.5 63.5t13 70.5t2 79.5h-184v293h350v-293q0 -174 -81 -273.5t-292 -115.5zM764 0v1178h237v-150h13q49 78 138 126t208 48q176 0 278.5 -108.5t102.5 -307.5v-786h-236v727q0 276 -223 277q-133 0 -205.5 -86.5t-72.5 -229.5v-688 h-240z" glyph-name="napostrophe" horiz-adv-x="1869" unicode="ŉ"/><glyph d="M1004 -324v150h104q53 0 82 22.5t29 59.5q0 39 -23 76l-745 1276h-11v-1260h-250v1587h304l739 -1253h12v1253h250v-1587q0 -154 -69.5 -239t-266.5 -85h-155z" glyph-name="Eng" horiz-adv-x="1685" unicode="Ŋ"/><glyph d="M684 -324v144h66q90 0 115.5 45t25.5 135v727q0 276 -219 277q-137 0 -210 -86.5t-73 -229.5v-688h-237v1178h237v-150h10q129 174 342 174q178 0 282.5 -114.5t104.5 -315.5v-772q0 -152 -71.5 -238t-265.5 -86h-107z" glyph-name="eng" horiz-adv-x="1255" unicode="ŋ"/><glyph d="M502 1720v142h649v-142h-649zM825 -31q-340 0 -535.5 218.5t-195.5 607.5q0 387 195.5 606t535.5 219q338 0 536 -219t198 -606q0 -389 -197 -607.5t-537 -218.5zM825.5 190q229.5 0 358.5 162t129 442.5t-129 442.5t-358.5 162t-357.5 -161t-128 -443.5t128 -443.5 t357.5 -161z" glyph-name="Omacron" horiz-adv-x="1652" unicode="Ō"/><glyph d="M291 1311v141h649v-141h-649zM614.5 -25q-245.5 0 -397 160t-151.5 451q0 293 151.5 454.5t397 161.5t397 -161.5t151.5 -454.5q0 -291 -151.5 -451t-397 -160zM618.5 170q145.5 0 229.5 102.5t84 313.5t-84 315.5t-229.5 104.5t-229.5 -103.5t-84 -316.5 q0 -211 84 -313.5t229.5 -102.5z" glyph-name="omacron" horiz-adv-x="1230" unicode="ō"/><glyph d="M823 1708q-131 0 -212 72.5t-81 216.5h148q0 -88 40 -131t105.5 -43t105.5 44t40 130h151q0 -143 -82 -216t-215 -73zM825 -31q-340 0 -535.5 218.5t-195.5 607.5q0 387 195.5 606t535.5 219q338 0 536 -219t198 -606q0 -389 -197 -607.5t-537 -218.5zM825.5 190 q229.5 0 358.5 162t129 442.5t-129 442.5t-358.5 162t-357.5 -161t-128 -443.5t128 -443.5t357.5 -161z" glyph-name="Obreve" horiz-adv-x="1652" unicode="Ŏ"/><glyph d="M612 1298q-131 0 -212 73t-81 216h148q0 -88 40 -131t105.5 -43t105.5 44t40 130h151q0 -143 -82 -216t-215 -73zM614.5 -25q-245.5 0 -397 160t-151.5 451q0 293 151.5 454.5t397 161.5t397 -161.5t151.5 -454.5q0 -291 -151.5 -451t-397 -160zM618.5 170 q145.5 0 229.5 102.5t84 313.5t-84 315.5t-229.5 104.5t-229.5 -103.5t-84 -316.5q0 -211 84 -313.5t229.5 -102.5z" glyph-name="obreve" horiz-adv-x="1230" unicode="ŏ"/><glyph d="M561 1700l209 297h215l-252 -297h-172zM915 1700l211 297h234l-275 -297h-170zM825 -31q-340 0 -535.5 218.5t-195.5 607.5q0 387 195.5 606t535.5 219q338 0 536 -219t198 -606q0 -389 -197 -607.5t-537 -218.5zM825.5 190q229.5 0 358.5 162t129 442.5t-129 442.5 t-358.5 162t-357.5 -161t-128 -443.5t128 -443.5t357.5 -161z" glyph-name="Ohungarumlaut" horiz-adv-x="1652" unicode="Ő"/><glyph d="M350 1290l209 297h215l-252 -297h-172zM705 1290l210 297h234l-275 -297h-169zM614.5 -25q-245.5 0 -397 160t-151.5 451q0 293 151.5 454.5t397 161.5t397 -161.5t151.5 -454.5q0 -291 -151.5 -451t-397 -160zM618.5 170q145.5 0 229.5 102.5t84 313.5t-84 315.5 t-229.5 104.5t-229.5 -103.5t-84 -316.5q0 -211 84 -313.5t229.5 -102.5z" glyph-name="ohungarumlaut" horiz-adv-x="1230" unicode="ő"/><glyph d="M889 0q-391 0 -594 203t-203 581q0 389 200 596t595 207h1431v-215h-907v-469h817v-217h-817v-469h930v-217h-1452zM915 221h246v1149h-270q-285 0 -417 -143.5t-132 -429.5q0 -291 138 -433.5t435 -142.5z" glyph-name="OE" horiz-adv-x="2422" unicode="Œ"/><glyph d="M2005 614q0 -33 -6 -90h-821q12 -160 101 -258t249 -98q193 0 299 143l153 -137q-178 -197 -454 -197q-315 0 -471 211q-147 -213 -441 -213q-246 0 -397 160t-151 451q0 293 151.5 454.5t396.5 161.5q291 0 437 -211q152 211 436 211q254 0 386 -169t132 -419z M1479 1010q-152 0 -225.5 -92.5t-79.5 -231.5h598q-4 154 -79 239t-214 85zM618.5 170q145.5 0 229.5 102.5t84 313.5t-84 315.5t-229.5 104.5t-229.5 -103.5t-84 -316.5q0 -211 84 -313.5t229.5 -102.5z" glyph-name="oe" horiz-adv-x="2070" unicode="œ"/><glyph d="M1124 1997l-252 -297h-172l199 297h225zM1337 715q-80 -68 -207 -101l347 -614h-275l-321 590h-441v-590h-250v1587h703q295 0 438 -121q147 -127 148 -372q-1 -252 -142 -379zM440 1372v-565h439q195 0 274 67q78 68 78 213q0 139 -72 211q-76 74 -280 74h-439z" glyph-name="Racute" horiz-adv-x="1572" unicode="Ŕ"/><glyph d="M315 1290l199 297h225l-252 -297h-172zM152 0v1178h235v-201h10q43 121 142.5 173t259.5 52v-215q-233 -8 -320.5 -125t-87.5 -381v-481h-239z" glyph-name="racute" horiz-adv-x="802" unicode="ŕ"/><glyph d="M1337 715q-80 -68 -207 -101l347 -614h-275l-321 590h-441v-590h-250v1587h703q295 0 438 -121q147 -127 148 -372q-1 -252 -142 -379zM440 1372v-565h439q195 0 274 67q78 68 78 213q0 139 -72 211q-76 74 -280 74h-439zM539 -461l129 303h235l-239 -303h-125z" glyph-name="Rcommaaccent" horiz-adv-x="1572" unicode="Ŗ"/><glyph d="M152 0v1178h235v-201h10q43 121 142.5 173t259.5 52v-215q-233 -8 -320.5 -125t-87.5 -381v-481h-239zM25 -461l129 303h235l-239 -303h-125z" glyph-name="rcommaaccent" horiz-adv-x="802" unicode="ŗ"/><glyph d="M883 1700h-195l-194 297h190l102 -168l101 168h190zM1337 715q-80 -68 -207 -101l347 -614h-275l-321 590h-441v-590h-250v1587h703q295 0 438 -121q147 -127 148 -372q-1 -252 -142 -379zM440 1372v-565h439q195 0 274 67q78 68 78 213q0 139 -72 211q-76 74 -280 74 h-439z" glyph-name="Rcaron" horiz-adv-x="1572" unicode="Ř"/><glyph d="M500 1290h-195l-194 297h190l102 -168l101 168h190zM397 977q43 121 142.5 173t259.5 52v-215q-233 -8 -320.5 -125t-87.5 -381v-481h-239v1178h235v-201h10z" glyph-name="rcaron" horiz-adv-x="802" unicode="ř"/><glyph d="M612 1700l199 297h225l-252 -297h-172zM733 -31q-227 0 -408.5 91.5t-273.5 261.5l176 153q78 -137 216.5 -214t301.5 -77q147 0 238.5 67.5t91.5 201.5q0 203 -266 247l-227 37q-219 37 -336 145.5t-117 284.5q0 205 149.5 329t405.5 124q358 0 594 -250l-145 -166 q-186 203 -459 203q-139 0 -220 -59.5t-81 -159.5q0 -170 264 -217l240 -41q205 -35 325.5 -148.5t120.5 -308.5q0 -229 -163 -366.5t-427 -137.5z" glyph-name="Sacute" horiz-adv-x="1396" unicode="Ś"/><glyph d="M438 1290l199 297h225l-252 -297h-172zM524 -25q-147 0 -277 70t-208 176l147 141q55 -86 145.5 -145t207.5 -59q92 0 152.5 43t60.5 127q0 68 -45 102.5t-136 56.5l-178 48q-299 80 -299 327q0 160 118 250t312 90q285 0 447 -225l-140 -129q-49 82 -134 130t-181 48 q-86 0 -139 -39t-53 -108q0 -53 37.5 -83t109.5 -48l168 -46q70 -18 122 -41.5t109.5 -63.5t88 -103.5t30.5 -147.5q0 -174 -131 -272.5t-334 -98.5z" glyph-name="sacute" horiz-adv-x="1048" unicode="ś"/><glyph d="M1323 473q0 -225 -156.5 -361.5t-410.5 -142.5l-60 -94l39 -12q154 -45 154 -176q0 -90 -62.5 -138.5t-150.5 -48.5q-150 0 -217 123l108 64q31 -72 103 -72q37 0 59.5 21.5t22.5 54.5q0 74 -101 102l-116 37l81 145q-188 23 -336.5 111t-228.5 236l176 153 q78 -137 216.5 -214t301.5 -77q147 0 238.5 67.5t91.5 201.5q0 203 -266 247l-227 37q-219 37 -336 145.5t-117 284.5q0 205 149.5 329t405.5 124q358 0 594 -250l-145 -166q-186 203 -459 203q-139 0 -220 -59.5t-81 -159.5q0 -170 264 -217l240 -41q205 -35 325.5 -148.5 t120.5 -308.5z" glyph-name="Scedilla" horiz-adv-x="1396" unicode="Ş"/><glyph d="M989 346q0 -160 -111.5 -256t-289.5 -113l-66 -102l39 -12q154 -45 154 -176q0 -90 -62.5 -138.5t-150.5 -48.5q-150 0 -217 123l108 64q31 -72 103 -72q37 0 59.5 21.5t22.5 54.5q0 74 -101 102l-117 37l86 152q-125 16 -232.5 81.5t-174.5 157.5l147 141 q55 -86 145.5 -145t207.5 -59q92 0 152.5 43t60.5 127q0 68 -45 102.5t-136 56.5l-178 48q-299 80 -299 327q0 160 118 250t312 90q285 0 447 -225l-140 -129q-49 82 -134 130t-181 48q-86 0 -139 -39t-53 -108q0 -53 37.5 -83t109.5 -48l168 -46q70 -18 122 -41.5 t109.5 -63.5t88 -103.5t30.5 -147.5z" glyph-name="scedilla" horiz-adv-x="1048" unicode="ş"/><glyph d="M795 1700h-195l-194 297h190l102 -168l101 168h190zM877 930q205 -35 325.5 -148.5t120.5 -308.5q0 -229 -163 -366.5t-427 -137.5q-227 0 -408.5 91.5t-273.5 261.5l176 153q78 -137 216.5 -214t301.5 -77q147 0 238.5 67.5t91.5 201.5q0 203 -266 247l-227 37 q-219 37 -336 145.5t-117 284.5q0 205 149.5 329t405.5 124q358 0 594 -250l-145 -166q-186 203 -459 203q-139 0 -220 -59.5t-81 -159.5q0 -170 264 -217z" glyph-name="Scaron" horiz-adv-x="1396" unicode="Š"/><glyph d="M623 1290h-195l-195 297h191l102 -168l101 168h190zM639 702q70 -18 122 -41.5t109.5 -63.5t88 -103.5t30.5 -147.5q0 -174 -131 -272.5t-334 -98.5q-147 0 -277 70t-208 176l147 141q55 -86 145.5 -145t207.5 -59q92 0 152.5 43t60.5 127q0 68 -45 102.5t-136 56.5 l-178 48q-299 80 -299 327q0 160 118 250t312 90q285 0 447 -225l-140 -129q-49 82 -134 130t-181 48q-86 0 -139 -39t-53 -108q0 -53 37.5 -83t109.5 -48z" glyph-name="scaron" horiz-adv-x="1048" unicode="š"/><glyph d="M793 0h-50l-77 -125l39 -12q154 -45 153 -176q0 -90 -62.5 -138.5t-150.5 -48.5q-150 0 -217 123l109 64q31 -72 102 -72q37 0 59.5 21.5t22.5 54.5q0 74 -100 102l-117 37l96 170h-57v1372h-512v215h1274v-215h-512v-1372z" glyph-name="Tcommaaccent" horiz-adv-x="1335" unicode="Ţ"/><glyph d="M698 1016h-274v-637q0 -109 31.5 -149t119.5 -40h123v-190h-192l-78 -125l39 -12q154 -45 154 -176q0 -90 -62.5 -138.5t-150.5 -48.5q-150 0 -218 123l109 64q31 -72 102 -72q37 0 59.5 21.5t22.5 54.5q0 74 -100 102l-117 37l105 184q-186 51 -187 318v684h-166v162 h166v409h240v-409h274v-162z" glyph-name="tcommaaccent" horiz-adv-x="751" unicode="ţ"/><glyph d="M764 1700h-195l-194 297h190l103 -168l100 168h190zM31 1587h1274v-215h-512v-1372h-250v1372h-512v215z" glyph-name="Tcaron" horiz-adv-x="1335" unicode="Ť"/><glyph d="M606 1313v110q57 4 97 22.5t61.5 42t33 63.5t13.5 71t2 80h-184v293h350v-293q0 -174 -81 -273.5t-292 -115.5zM487 0q-156 0 -229.5 81t-73.5 251v684h-166v162h166v409h240v-409h274v-162h-274v-637q0 -109 31.5 -149t119.5 -40h123v-190h-211z" glyph-name="tcaron" horiz-adv-x="751" unicode="ť"/><glyph d="M1305 1372h-512v-510h198v-133h-198v-729h-250v729h-201v133h201v510h-512v215h1274v-215z" glyph-name="Tbar" horiz-adv-x="1335" unicode="Ŧ"/><glyph d="M739 553h-278v-174q0 -109 31.5 -149t119.5 -40h123v-190h-211q-156 0 -229.5 81t-73.5 251v221h-164v137h164v326h-166v162h166v409h240v-409h274v-162h-274v-326h278v-137z" glyph-name="tbar" horiz-adv-x="837" unicode="ŧ"/><glyph d="M940 1733q-53 0 -94 21.5t-63.5 47t-53.5 47t-63 21.5q-74 0 -70 -123h-121q0 252 174 252q72 0 119 -35t84 -68.5t78 -33.5q72 0 71 135h119q0 -264 -180 -264zM796.5 -31q-307.5 0 -473 161t-165.5 460v997h252v-1016q0 -184 101 -283.5t286 -99.5q182 0 283.5 99.5 t101.5 283.5v1016h254v-985q0 -305 -166 -469t-473.5 -164z" glyph-name="Utilde" horiz-adv-x="1593" unicode="Ũ"/><glyph d="M776 1323q-53 0 -94 21.5t-63.5 47t-53 47t-63.5 21.5q-74 0 -70 -123h-121q0 252 174 252q72 0 119 -34.5t84 -68.5t78 -34q72 0 72 135h118q0 -264 -180 -264zM516 -23q-178 0 -283.5 112t-105.5 310v779h238v-727q0 -276 227 -277q129 0 207 84t78 248v672h239v-1178 h-237v150h-11q-116 -173 -352 -173z" glyph-name="utilde" horiz-adv-x="1269" unicode="ũ"/><glyph d="M473 1720v142h649v-142h-649zM796.5 -31q-307.5 0 -473 161t-165.5 460v997h252v-1016q0 -184 101 -283.5t286 -99.5q182 0 283.5 99.5t101.5 283.5v1016h254v-985q0 -305 -166 -469t-473.5 -164z" glyph-name="Umacron" horiz-adv-x="1593" unicode="Ū"/><glyph d="M309 1311v141h649v-141h-649zM516 -23q-178 0 -283.5 112t-105.5 310v779h238v-727q0 -276 227 -277q129 0 207 84t78 248v672h239v-1178h-237v150h-11q-116 -173 -352 -173z" glyph-name="umacron" horiz-adv-x="1269" unicode="ū"/><glyph d="M797 1661q-88 0 -148.5 61.5t-60.5 149.5q0 86 61.5 146.5t147.5 60.5t147.5 -60.5t61.5 -146.5q0 -88 -60.5 -149.5t-148.5 -61.5zM797 1778q39 0 66.5 26.5t27.5 65.5t-27.5 66.5t-66.5 27.5q-41 0 -66.5 -25.5t-25.5 -68.5q0 -41 25.5 -66.5t66.5 -25.5zM796.5 -31 q-307.5 0 -473 161t-165.5 460v997h252v-1016q0 -184 101 -283.5t286 -99.5q182 0 283.5 99.5t101.5 283.5v1016h254v-985q0 -305 -166 -469t-473.5 -164z" glyph-name="Uring" horiz-adv-x="1593" unicode="Ů"/><glyph d="M635 1251q-88 0 -148.5 61.5t-60.5 149.5q0 86 61.5 146.5t147.5 60.5t147.5 -60.5t61.5 -146.5q0 -88 -60.5 -149.5t-148.5 -61.5zM635 1368q39 0 66.5 26.5t27.5 65.5t-27.5 66.5t-66.5 27.5q-41 0 -66.5 -25.5t-25.5 -68.5q0 -41 25.5 -66.5t66.5 -25.5zM516 -23 q-178 0 -283.5 112t-105.5 310v779h238v-727q0 -276 227 -277q129 0 207 84t78 248v672h239v-1178h-237v150h-11q-116 -173 -352 -173z" glyph-name="uring" horiz-adv-x="1269" unicode="ů"/><glyph d="M532 1700l209 297h215l-251 -297h-173zM887 1700l211 297h233l-274 -297h-170zM796.5 -31q-307.5 0 -473 161t-165.5 460v997h252v-1016q0 -184 101 -283.5t286 -99.5q182 0 283.5 99.5t101.5 283.5v1016h254v-985q0 -305 -166 -469t-473.5 -164z" glyph-name="Uhungarumlaut" horiz-adv-x="1593" unicode="Ű"/><glyph d="M371 1290l209 297h215l-252 -297h-172zM725 1290l211 297h233l-274 -297h-170zM516 -23q-178 0 -283.5 112t-105.5 310v779h238v-727q0 -276 227 -277q129 0 207 84t78 248v672h239v-1178h-237v150h-11q-116 -173 -352 -173z" glyph-name="uhungarumlaut" horiz-adv-x="1269" unicode="ű"/><glyph d="M1182 1587h254v-985q0 -244 -106.5 -398.5t-309.5 -207.5q-98 -68 -141 -122t-43 -130q0 -39 22.5 -60.5t56.5 -21.5q63 0 111 47v-147q-61 -23 -123 -23q-100 0 -154.5 49.5t-54.5 132.5q0 139 158 250q-18 -2 -55 -2q-307 0 -473 161t-166 460v997h252v-1016 q0 -184 101 -283.5t286 -99.5q182 0 283.5 99.5t101.5 283.5v1016z" glyph-name="Uogonek" horiz-adv-x="1593" unicode="Ų"/><glyph d="M928 -256q0 -39 22.5 -60.5t57.5 -21.5q63 0 110 47v-147q-61 -23 -123 -23q-100 0 -154.5 49.5t-54.5 132.5q0 162 205 279h-112v150h-11q-117 -172 -352 -173q-178 0 -283.5 112t-105.5 310v779h238v-727q0 -276 227 -277q129 0 207 84t78 248v672h239v-1178h2 q-102 -70 -146 -124t-44 -132z" glyph-name="uogonek" horiz-adv-x="1269" unicode="ų"/><glyph d="M1096 1870l-103 -170h-190l194 297h195l194 -297h-188zM1878 1587h262l-348 -1587h-367l-329 1360h-4l-326 -1360h-367l-348 1587h262l277 -1368h10l338 1368h317l338 -1368h9z" glyph-name="Wcircumflex" horiz-adv-x="2191" unicode="Ŵ"/><glyph d="M860 1460l-102 -170h-191l195 297h194l195 -297h-188zM1427 1178h263l-269 -1178h-340l-215 856h-12l-213 -856h-342l-264 1178h260l180 -992h10l267 992h217l266 -992h10z" glyph-name="wcircumflex" horiz-adv-x="1722" unicode="ŵ"/><glyph d="M674 1870l-103 -170h-190l194 297h195l195 -297h-189zM1059 1587h270l-530 -991v-596h-250v596l-531 991h271l383 -737h10z" glyph-name="Ycircumflex" horiz-adv-x="1345" unicode="Ŷ"/><glyph d="M526 1460l-102 -170h-191l195 297h195l194 -297h-188zM791 1178h258l-422 -1223q-72 -199 -173.5 -282t-291.5 -83h-139v195h133q117 0 179 57.5t62 159.5q0 61 -26 135l-365 1041h256l258 -885h15z" glyph-name="ycircumflex" horiz-adv-x="1054" unicode="ŷ"/><glyph d="M399 1759v238h222v-238h-222zM725 1759v238h221v-238h-221zM549 0v596l-531 991h271l383 -737h10l377 737h270l-530 -991v-596h-250z" glyph-name="Ydieresis" horiz-adv-x="1345" unicode="Ÿ"/><glyph d="M604 1700l199 297h225l-252 -297h-172zM61 0v178l920 1190v4h-868v215h1192v-188l-912 -1178v-6h912v-215h-1244z" glyph-name="Zacute" horiz-adv-x="1378" unicode="Ź"/><glyph d="M436 1290l199 297h225l-252 -297h-172zM51 0v174l629 801v6h-606v197h901v-187l-613 -786v-6h629v-199h-940z" glyph-name="zacute" horiz-adv-x="1046" unicode="ź"/><glyph d="M559 1759v238h258v-238h-258zM61 0v178l920 1190v4h-868v215h1192v-188l-912 -1178v-6h912v-215h-1244z" glyph-name="Zdotaccent" horiz-adv-x="1378" unicode="Ż"/><glyph d="M393 1350v237h258v-237h-258zM51 0v174l629 801v6h-606v197h901v-187l-613 -786v-6h629v-199h-940z" glyph-name="zdotaccent" horiz-adv-x="1046" unicode="ż"/><glyph d="M786 1700h-194l-195 297h191l102 -168l101 168h190zM1305 1399l-912 -1178v-6h912v-215h-1244v178l920 1190v4h-868v215h1192v-188z" glyph-name="Zcaron" horiz-adv-x="1378" unicode="Ž"/><glyph d="M621 1290h-195l-195 297h191l102 -168l101 168h190zM362 199h629v-199h-940v174l629 801v6h-606v197h901v-187l-613 -786v-6z" glyph-name="zcaron" horiz-adv-x="1046" unicode="ž"/><glyph d="M96 -457v203q123 0 182.5 54.5t59.5 199.5v1016h-195v162h197v75q0 154 91 244t261 90h152v-176h-121q-70 0 -107.5 -42t-37.5 -120v-71h266v-162h-266v-1016q-1 -457 -482 -457z" glyph-name="florin" horiz-adv-x="946" unicode="ƒ"/><glyph d="M1569 1585q0 -229 -168 -233q158 -211 158 -557q0 -389 -197 -607.5t-537 -218.5t-535.5 218.5t-195.5 607.5q0 387 195.5 606t535.5 219q270 0 453 -141q47 -20 84 -21q53 0 73.5 36t20.5 116v78h113v-103zM825.5 190q229.5 0 358.5 162t129 442.5t-129 442.5 t-358.5 162t-357.5 -161t-128 -443.5t128 -443.5t357.5 -161z" glyph-name="Ohorn" horiz-adv-x="1652" unicode="Ơ"/><glyph d="M1143 1278h112v-102q0 -233 -170 -234h-4q82 -145 82 -356q0 -291 -151.5 -451t-397 -160t-397 160t-151.5 451q0 293 151.5 454.5t396.5 161.5q236 0 381 -145q27 -8 54 -8q53 0 73.5 35.5t20.5 115.5v78zM618.5 170q145.5 0 229.5 102.5t84 313.5t-84 315.5 t-229.5 104.5t-229.5 -103.5t-84 -316.5q0 -211 84 -313.5t229.5 -102.5z" glyph-name="ohorn" horiz-adv-x="1230" unicode="ơ"/><glyph d="M1608 1688h112v-103q0 -233 -170 -233q-57 0 -114 28v-778q0 -305 -166 -469t-473.5 -164t-473 161t-165.5 460v997h252v-1016q0 -184 101 -283.5t286 -99.5q182 0 283.5 99.5t101.5 283.5v1016h254v-110q43 -18 77 -19q53 0 74 36t21 116v78z" glyph-name="Uhorn" horiz-adv-x="1593" unicode="Ư"/><glyph d="M1274 1278h112v-102q0 -233 -169 -234q-53 0 -101 23v-965h-237v150h-11q-117 -172 -352 -173q-178 0 -283.5 112t-105.5 310v779h238v-727q0 -276 227 -277q129 0 207 84t78 248v672h239v-117q37 -12 64 -12q53 0 73.5 35.5t20.5 115.5v78z" glyph-name="uhorn" horiz-adv-x="1269" unicode="ư"/><glyph d="M901 1700h-194l-195 297h190l103 -168l100 168h191zM1311 0l-137 373h-742l-137 -373h-268l606 1587h340l606 -1587h-268zM506 578h594l-291 792h-12z" glyph-name="uni01CD" horiz-adv-x="1605" unicode="Ǎ"/><glyph d="M702 1290h-194l-195 297h191l102 -168l101 168h190zM606 1202q219 0 348 -100.5t129 -290.5v-811h-235v127h-17q-182 -152 -401 -152q-176 0 -275.5 89.5t-99.5 242.5q0 164 114 254t296 141l383 103v8q0 100 -65.5 154.5t-188.5 54.5q-221 0 -383 -182l-133 147 q202 215 528 215zM489 156q182 0 359 180v285l-342 -99q-213 -61 -213 -200q0 -74 52 -120t144 -46z" glyph-name="uni01CE" horiz-adv-x="1210" unicode="ǎ"/><glyph d="M412 1700h-195l-194 297h190l102 -168l101 168h190zM190 0v1587h250v-1587h-250z" glyph-name="uni01CF" horiz-adv-x="632" unicode="Ǐ"/><glyph d="M367 1290h-195l-195 297h191l102 -168l101 168h190zM152 0v1178h237v-1178h-237z" glyph-name="uni01D0" horiz-adv-x="542" unicode="ǐ"/><glyph d="M922 1700h-195l-195 297h191l102 -168l101 168h190zM825 1620q338 0 536 -219t198 -606q0 -389 -197 -607.5t-537 -218.5t-535.5 218.5t-195.5 607.5q0 387 195.5 606t535.5 219zM825.5 190q229.5 0 358.5 162t129 442.5t-129 442.5t-358.5 162t-357.5 -161t-128 -443.5 t128 -443.5t357.5 -161z" glyph-name="uni01D1" horiz-adv-x="1652" unicode="Ǒ"/><glyph d="M711 1290h-195l-194 297h190l102 -168l101 168h190zM614.5 1202q245.5 0 397 -161.5t151.5 -454.5q0 -291 -151.5 -451t-397 -160t-397 160t-151.5 451q0 293 151.5 454.5t397 161.5zM618.5 170q145.5 0 229.5 102.5t84 313.5t-84 315.5t-229.5 104.5t-229.5 -103.5 t-84 -316.5q0 -211 84 -313.5t229.5 -102.5z" glyph-name="uni01D2" horiz-adv-x="1230" unicode="ǒ"/><glyph d="M893 1700h-195l-194 297h190l103 -168l100 168h190zM1182 1587h254v-985q0 -305 -166 -469t-473.5 -164t-473 161t-165.5 460v997h252v-1016q0 -184 101 -283.5t286 -99.5q182 0 283.5 99.5t101.5 283.5v1016z" glyph-name="uni01D3" horiz-adv-x="1593" unicode="Ǔ"/><glyph d="M731 1290h-194l-195 297h190l103 -168l100 168h191zM877 1178h239v-1178h-237v150h-11q-117 -172 -352 -173q-178 0 -283.5 112t-105.5 310v779h238v-727q0 -276 227 -277q129 0 207 84t78 248v672z" glyph-name="uni01D4" horiz-adv-x="1269" unicode="ǔ"/><glyph d="M473 2130v141h649v-141h-649zM524 1759v238h221v-238h-221zM850 1759v238h221v-238h-221zM796.5 -31q-307.5 0 -473 161t-165.5 460v997h252v-1016q0 -184 101 -283.5t286 -99.5q182 0 283.5 99.5t101.5 283.5v1016h254v-985q0 -305 -166 -469t-473.5 -164z" glyph-name="uni01D5" horiz-adv-x="1593" unicode="Ǖ"/><glyph d="M309 1720v142h649v-142h-649zM360 1350v237h222v-237h-222zM686 1350v237h221v-237h-221zM516 -23q-178 0 -283.5 112t-105.5 310v779h238v-727q0 -276 227 -277q129 0 207 84t78 248v672h239v-1178h-237v150h-11q-116 -173 -352 -173z" glyph-name="uni01D6" horiz-adv-x="1269" unicode="ǖ"/><glyph d="M711 2109l198 297h226l-252 -297h-172zM524 1759v238h221v-238h-221zM850 1759v238h221v-238h-221zM796.5 -31q-307.5 0 -473 161t-165.5 460v997h252v-1016q0 -184 101 -283.5t286 -99.5q182 0 283.5 99.5t101.5 283.5v1016h254v-985q0 -305 -166 -469t-473.5 -164z" glyph-name="uni01D7" horiz-adv-x="1593" unicode="Ǘ"/><glyph d="M549 1700l199 297h225l-252 -297h-172zM360 1350v237h222v-237h-222zM686 1350v237h221v-237h-221zM516 -23q-178 0 -283.5 112t-105.5 310v779h238v-727q0 -276 227 -277q129 0 207 84t78 248v672h239v-1178h-237v150h-11q-116 -173 -352 -173z" glyph-name="uni01D8" horiz-adv-x="1269" unicode="ǘ"/><glyph d="M893 2109h-195l-194 297h190l103 -168l100 168h190zM524 1759v238h221v-238h-221zM850 1759v238h221v-238h-221zM1182 1587h254v-985q0 -305 -166 -469t-473.5 -164t-473 161t-165.5 460v997h252v-1016q0 -184 101 -283.5t286 -99.5q182 0 283.5 99.5t101.5 283.5v1016z " glyph-name="uni01D9" horiz-adv-x="1593" unicode="Ǚ"/><glyph d="M731 1700h-194l-195 297h190l103 -168l100 168h191zM360 1350v237h222v-237h-222zM686 1350v237h221v-237h-221zM877 1178h239v-1178h-237v150h-11q-117 -172 -352 -173q-178 0 -283.5 112t-105.5 310v779h238v-727q0 -276 227 -277q129 0 207 84t78 248v672z" glyph-name="uni01DA" horiz-adv-x="1269" unicode="ǚ"/><glyph d="M711 2109l-254 297h225l201 -297h-172zM524 1759v238h221v-238h-221zM850 1759v238h221v-238h-221zM796.5 -31q-307.5 0 -473 161t-165.5 460v997h252v-1016q0 -184 101 -283.5t286 -99.5q182 0 283.5 99.5t101.5 283.5v1016h254v-985q0 -305 -166 -469t-473.5 -164z" glyph-name="uni01DB" horiz-adv-x="1593" unicode="Ǜ"/><glyph d="M549 1700l-254 297h225l201 -297h-172zM360 1350v237h222v-237h-222zM686 1350v237h221v-237h-221zM516 -23q-178 0 -283.5 112t-105.5 310v779h238v-727q0 -276 227 -277q129 0 207 84t78 248v672h239v-1178h-237v150h-11q-116 -173 -352 -173z" glyph-name="uni01DC" horiz-adv-x="1269" unicode="ǜ"/><glyph d="M930 1700h-195l-194 297h190l103 -168l100 168h190zM881 840h655v-840h-209v223h-12q-72 -113 -202 -182.5t-306 -69.5q-336 0 -525.5 226.5t-189.5 597.5q0 381 202 602t550 221q242 0 414 -117t247 -315l-219 -84q-117 299 -442 299q-238 0 -370 -164t-132 -436 q0 -266 124 -436t372 -170q203 0 326.5 119.5t142.5 322.5h-426v203z" glyph-name="Gcaron" horiz-adv-x="1667" unicode="Ǧ"/><glyph d="M741 1290h-194l-195 297h191l102 -168l100 168h191zM899 1178h240v-1094q0 -270 -150.5 -393t-390.5 -123q-375 0 -524 262l186 115q100 -193 334 -193q141 0 223 78t82 246v108h-8q-113 -162 -340 -161q-223 0 -354 164.5t-131 420.5q0 268 132 431t361 163 q215 0 326 -158h14v134zM621 207q152 0 226.5 104.5t74.5 292.5q0 178 -77 293t-233 115q-150 0 -226.5 -112t-76.5 -296q0 -178 78 -287.5t234 -109.5z" glyph-name="gcaron" horiz-adv-x="1292" unicode="ǧ"/><glyph d="M1049 -2q-100 -70 -143.5 -123t-43.5 -131q0 -39 22.5 -60.5t57.5 -21.5q63 0 111 47v-147q-61 -23 -123 -23q-100 0 -154.5 49.5t-54.5 132.5q0 139 158 250q-16 -2 -54 -2q-340 0 -535.5 218.5t-195.5 607.5q0 387 195.5 606t535.5 219q338 0 536 -219t198 -606 q0 -317 -134 -524t-376 -273zM340 794.5q0 -282.5 128 -443.5t357.5 -161t358.5 162t129 442.5t-129 442.5t-358.5 162t-357.5 -161t-128 -443.5z" glyph-name="uni01EA" horiz-adv-x="1652" unicode="Ǫ"/><glyph d="M791 0q-102 -70 -146.5 -124t-44.5 -132q0 -39 22.5 -60.5t57.5 -21.5q63 0 111 47v-147q-61 -23 -123 -23q-100 0 -154.5 49.5t-54.5 132.5q0 143 166 254h-11q-246 0 -397 160t-151 451q0 293 151.5 454.5t397 161.5t397 -161.5t151.5 -454.5q0 -236 -100 -385.5 t-272 -200.5zM305 586q0 -211 84 -313.5t229.5 -102.5t229.5 102.5t84 313.5t-84 315.5t-229.5 104.5t-229.5 -103.5t-84 -316.5z" glyph-name="uni01EB" horiz-adv-x="1230" unicode="ǫ"/><glyph d="M606 1251q-88 0 -148.5 61.5t-60.5 149.5q0 86 61.5 146.5t147.5 60.5q33 0 68 -10l129 190h225l-240 -282q27 -49 27 -105q0 -88 -60.5 -149.5t-148.5 -61.5zM606 1554q-41 0 -66.5 -25.5t-25.5 -68.5q0 -41 25.5 -66.5t66.5 -25.5q39 0 66.5 26.5t27.5 65.5 q0 35 -20.5 60.5t-52.5 31.5h-23zM606 1202q219 0 348 -100.5t129 -290.5v-811h-235v127h-17q-182 -152 -401 -152q-176 0 -275.5 89.5t-99.5 242.5q0 164 114 254t296 141l383 103v8q0 100 -65.5 154.5t-188.5 54.5q-221 0 -383 -182l-133 147q202 215 528 215zM489 156 q182 0 359 180v285l-342 -99q-213 -61 -213 -200q0 -74 52 -120t144 -46z" glyph-name="aringacute" horiz-adv-x="1210" unicode="ǻ"/><glyph d="M1024 1700l199 297h225l-252 -297h-172zM29 0l581 1587h1495v-213h-897v-473h817v-213h-817v-469h930v-219h-1186v334h-526l-117 -334h-280zM500 551h452v813h-172z" glyph-name="AEacute" horiz-adv-x="2217" unicode="Ǽ"/><glyph d="M1286 1587l-252 -297h-172l199 297h225zM1831 614q0 -51 -6 -90h-819q10 -158 99 -257t249 -99q193 0 299 143l153 -137q-176 -197 -454 -197q-311 0 -469 207q-242 -209 -473 -209q-166 0 -260.5 89.5t-94.5 242.5q0 86 33 154.5t93.5 114t122 75t140.5 51.5l347 101 l2 37q-16 172 -226 172q-215 0 -364 -172l-127 147q201 215 504 215q246 0 364 -135q145 135 369 135q254 0 386 -169t132 -419zM1307 1010q-152 0 -226.5 -92.5t-81.5 -231.5h598q-4 154 -77.5 239t-212.5 85zM799 340l-2 14q-33 111 -33 232v24l-277 -88 q-195 -63 -194 -200q0 -74 46 -120t132 -46q166 0 328 184z" glyph-name="aeacute" horiz-adv-x="1896" unicode="ǽ"/><glyph d="M1163 1997l-252 -297h-172l199 297h225zM1436 1298q123 -201 123 -503q0 -389 -197 -607.5t-537 -218.5q-328 0 -518 201l-55 -55l-109 104l72 72q-121 203 -121 504q0 387 195.5 606t535.5 219q328 0 518 -201l54 54l110 -103zM340 795q0 -184 57 -322l777 776 q-131 150 -349 150q-229 0 -357 -160.5t-128 -443.5zM825 190q229 0 358.5 162t129.5 443q0 184 -58 323l-778 -778q127 -150 348 -150z" glyph-name="Oslashacute" horiz-adv-x="1652" unicode="Ǿ"/><glyph d="M952 1587l-252 -297h-172l199 297h225zM1069 963q94 -152 94 -377q0 -291 -151.5 -451t-397.5 -160q-248 0 -393 156l-39 -37l-73 72l49 49q-92 145 -92 371q0 293 151.5 454.5t396.5 161.5q248 0 394 -158l39 37l73 -69zM305 586q0 -111 27 -201l522 508 q-80 113 -236 113q-145 0 -229 -103.5t-84 -316.5zM618 170q145 0 229.5 102.5t84.5 313.5q0 123 -31 213l-522 -512q79 -117 239 -117z" glyph-name="oslashacute" horiz-adv-x="1230" unicode="ǿ"/><glyph d="M733 -31q-227 0 -408.5 91.5t-273.5 261.5l176 153q78 -137 216.5 -214t301.5 -77q147 0 238.5 67.5t91.5 201.5q0 203 -266 247l-227 37q-219 37 -336 145.5t-117 284.5q0 205 149.5 329t405.5 124q358 0 594 -250l-145 -166q-186 203 -459 203q-139 0 -220 -59.5 t-81 -159.5q0 -170 264 -217l240 -41q205 -35 325.5 -148.5t120.5 -308.5q0 -229 -163 -366.5t-427 -137.5zM451 -461l129 303h235l-240 -303h-124z" glyph-name="Scommaaccent" horiz-adv-x="1396" unicode="Ș"/><glyph d="M524 -25q-147 0 -277 70t-208 176l147 141q55 -86 145.5 -145t207.5 -59q92 0 152.5 43t60.5 127q0 68 -45 102.5t-136 56.5l-178 48q-299 80 -299 327q0 160 118 250t312 90q285 0 447 -225l-140 -129q-49 82 -134 130t-181 48q-86 0 -139 -39t-53 -108q0 -53 37.5 -83 t109.5 -48l168 -46q70 -18 122 -41.5t109.5 -63.5t88 -103.5t30.5 -147.5q0 -174 -131 -272.5t-334 -98.5zM279 -461l129 303h235l-240 -303h-124z" glyph-name="scommaaccent" horiz-adv-x="1048" unicode="ș"/><glyph d="M543 0v1372h-512v215h1274v-215h-512v-1372h-250zM420 -461l129 303h235l-239 -303h-125z" glyph-name="uni021A" horiz-adv-x="1335" unicode="Ț"/><glyph d="M487 0q-156 0 -229.5 81t-73.5 251v684h-166v162h166v409h240v-409h274v-162h-274v-637q0 -109 31.5 -149t119.5 -40h123v-190h-211zM182 -461l129 303h236l-240 -303h-125z" glyph-name="uni021B" horiz-adv-x="751" unicode="ț"/><glyph d="M348 1720v142h649v-142h-649zM549 0v596l-531 991h271l383 -737h10l377 737h270l-530 -991v-596h-250z" glyph-name="uni0232" horiz-adv-x="1345" unicode="Ȳ"/><glyph d="M203 1311v141h649v-141h-649zM23 -410v195h133q117 0 179 57.5t62 159.5q0 61 -26 135l-365 1041h256l258 -885h15l256 885h258l-422 -1223q-72 -199 -173.5 -282t-291.5 -83h-139z" glyph-name="uni0233" horiz-adv-x="1054" unicode="ȳ"/><glyph d="M-115 -410v177h113q78 0 117 46t39 124v1241h237v-1254q0 -154 -91 -244t-261 -90h-154z" glyph-name="uni0237" horiz-adv-x="544" unicode="ȷ"/><glyph d="M-53 -324v144h61q92 0 118 45t26 135v1178h237v-150h12q125 174 340 174q180 0 283.5 -114.5t103.5 -315.5v-772h-235v727q0 276 -219 277q-137 0 -210 -86.5t-73 -229.5v-688q0 -152 -72.5 -238t-267.5 -86h-104z" glyph-name="uni0272" horiz-adv-x="1255" unicode="ɲ"/><glyph d="M637 1290h-188l-103 170l-102 -170h-191l195 297h194z" glyph-name="circumflex" horiz-adv-x="692" unicode="ˆ"/><glyph d="M449 1587h190l-195 -297h-194l-195 297h191l102 -168z" glyph-name="caron" horiz-adv-x="694" unicode="ˇ"/><glyph d="M385 1298q-131 0 -212 73t-81 216h148q0 -88 39.5 -131t105.5 -43t105.5 44t39.5 130h152q0 -143 -82 -216t-215 -73z" glyph-name="breve" horiz-adv-x="774" unicode="˘"/><glyph d="M145 1350v237h258v-237h-258z" glyph-name="dotaccent" horiz-adv-x="550" unicode="˙"/><glyph d="M303 1251q-88 0 -148.5 61.5t-60.5 149.5q0 86 61.5 146.5t147.5 60.5t147.5 -60.5t61.5 -146.5q0 -88 -60.5 -149.5t-148.5 -61.5zM303 1368q39 0 66.5 26.5t27.5 65.5t-27.5 66.5t-66.5 27.5q-41 0 -66.5 -25.5t-25.5 -68.5q0 -41 25.5 -66.5t66.5 -25.5z" glyph-name="ring" horiz-adv-x="606" unicode="˚"/><glyph d="M293 -461q-100 0 -154.5 49.5t-54.5 132.5q0 172 231 293l101 -14q-102 -70 -146.5 -124t-44.5 -132q0 -39 22.5 -60.5t57.5 -21.5q63 0 111 47v-147q-62 -23 -123 -23z" glyph-name="ogonek" horiz-adv-x="522" unicode="˛"/><glyph d="M578 1323q-53 0 -94.5 21.5t-64 47t-53 47t-63.5 21.5q-74 0 -70 -123h-120q0 252 174 252q72 0 119 -34.5t83.5 -68.5t77.5 -34q72 0 72 135h119q0 -264 -180 -264z" glyph-name="tilde" horiz-adv-x="868" unicode="˜"/><glyph d="M49 1290l209 297h215l-252 -297h-172zM403 1290l211 297h234l-275 -297h-170z" glyph-name="hungarumlaut" horiz-adv-x="880" unicode="˝"/><glyph d="M-225 1290l-254 297h225l201 -297h-172z" glyph-name="gravecomb" unicode="̀"/><glyph d="M-463 1290l199 297h225l-252 -297h-172z" glyph-name="acutecomb" unicode="́"/><glyph d="M-55 1290h-189l-102 170l-103 -170h-190l195 297h194z" glyph-name="uni0302" unicode="̂"/><glyph d="M-291 1323q-53 0 -94 21.5t-63.5 47t-53 47t-63.5 21.5q-74 0 -70 -123h-121q0 252 174 252q72 0 119 -34.5t84 -68.5t78 -34q72 0 72 135h118q0 -264 -180 -264z" glyph-name="tildecomb" unicode="̃"/><glyph d="M-791 1311v141h650v-141h-650z" glyph-name="uni0304" unicode="̄"/><glyph d="M-389 1298q-131 0 -212 73t-81 216h147q0 -88 40 -131t105.5 -43t105.5 44t40 130h152q0 -143 -82 -216t-215 -73z" glyph-name="uni0306" unicode="̆"/><glyph d="M-406 1350v237h259v-237h-259z" glyph-name="uni0307" unicode="̇"/><glyph d="M-692 1350v237h221v-237h-221zM-367 1350v237h222v-237h-222z" glyph-name="uni0308" unicode="̈"/><glyph d="M-358 1272v127q125 16 125 98q0 33 -23 54.5t-61 21.5q-47 0 -95 -37l-57 92q78 47 168 47q96 0 154.5 -48t58.5 -124q0 -119 -135 -157v-74h-135z" glyph-name="hookabovecomb" unicode="̉"/><glyph d="M-303 1251q-88 0 -148.5 61.5t-60.5 149.5q0 86 61.5 146.5t147.5 60.5t147.5 -60.5t61.5 -146.5q0 -88 -60.5 -149.5t-148.5 -61.5zM-303 1368q39 0 66.5 26.5t27.5 65.5t-27.5 66.5t-66.5 27.5q-41 0 -66.5 -25.5t-25.5 -68.5q0 -41 25.5 -66.5t66.5 -25.5z" glyph-name="uni030A" unicode="̊"/><glyph d="M-831 1290l208 297h215l-251 -297h-172zM-477 1290l211 297h233l-274 -297h-170z" glyph-name="uni030B" unicode="̋"/><glyph d="M-246 1587h191l-195 -297h-194l-195 297h190l103 -168z" glyph-name="uni030C" unicode="̌"/><glyph d="M-428 1290l195 297h137l-109 -297h-223z" glyph-name="uni0312" unicode="̒"/><glyph d="M-293 1225q-96 0 -182 71l45 64q51 -29 100 -29q53 0 73.5 36t20.5 116v78h113v-103q0 -233 -170 -233z" glyph-name="uni031B" unicode="̛"/><glyph d="M-375 -410v220h230v-220h-230z" glyph-name="dotbelowcomb" unicode="̣"/><glyph d="M-408 -461l129 303h236l-240 -303h-125z" glyph-name="uni0326" unicode="̦"/><glyph d="M-293 -500q-150 0 -217 123l109 64q31 -72 102 -72q37 0 59.5 21.5t22.5 54.5q0 74 -100 102l-117 37l110 195h146l-94 -150l39 -12q154 -45 153 -176q0 -90 -62.5 -138.5t-150.5 -48.5z" glyph-name="uni0327" unicode="̧"/><glyph d="M-229 -461q-100 0 -154.5 49.5t-54.5 132.5q0 172 231 293l101 -14q-102 -70 -146.5 -124t-44.5 -132q0 -39 22.5 -60.5t57.5 -21.5q63 0 111 47v-147q-62 -23 -123 -23z" glyph-name="uni0328" unicode="̨"/><glyph d="M-791 510v133h650v-133h-650z" glyph-name="uni0335" unicode="̵"/><glyph d="M-1620 500v139h1479v-139h-1479z" glyph-name="uni0336" unicode="̶"/><glyph d="M-616 426v201l567 422v-213z" glyph-name="uni0337" unicode="̷"/><glyph d="M-926 76l-73 71l938 916l73 -70z" glyph-name="uni0338" unicode="̸"/><glyph d="M895 1587l565 -1587h-1392l565 1587h262zM764 1346l-377 -1133h752z" glyph-name="Delta" horiz-adv-x="1525" unicode="Δ"/><glyph d="M152 0v201h333q-152 92 -240.5 260t-88.5 356q0 317 224 540.5t535 223.5q313 0 535.5 -225.5t222.5 -546.5q0 -186 -83 -352t-228 -260h317v-197h-600v193q168 41 275.5 210.5t107.5 389.5q0 266 -157.5 425.5t-389.5 159.5q-236 0 -392 -162.5t-156 -418.5 q0 -213 110.5 -376t274.5 -228v-193h-600z" glyph-name="Omega" horiz-adv-x="1830" unicode="Ω"/><glyph d="M229 -410v1588h236v-719q0 -276 227 -277q129 0 207 84t78 248v664h242v-1178h-240v150h-10q-113 -172 -353 -173q-104 0 -176 50v-437h-211z" glyph-name="mu" horiz-adv-x="1406" unicode="μ"/><glyph d="M1051 -23q-240 0 -240 269v731h-428v-977h-203v977h-117v201h1072v-201h-123v-713q0 -104 78 -104q39 0 73 33l51 -173q-73 -43 -163 -43z" glyph-name="pi" horiz-adv-x="1241" unicode="π"/><glyph d="M1010 1700l-254 297h225l201 -297h-172zM399 0l-348 1587h262l277 -1368h10l338 1368h317l338 -1368h9l276 1368h262l-348 -1587h-367l-329 1360h-4l-326 -1360h-367z" glyph-name="Wgrave" horiz-adv-x="2191" unicode="Ẁ"/><glyph d="M774 1290l-254 297h225l201 -297h-172zM299 0l-264 1178h260l180 -992h10l267 992h217l266 -992h10l182 992h263l-269 -1178h-340l-215 856h-12l-213 -856h-342z" glyph-name="wgrave" horiz-adv-x="1722" unicode="ẁ"/><glyph d="M1010 1700l198 297h226l-252 -297h-172zM399 0l-348 1587h262l277 -1368h10l338 1368h317l338 -1368h9l276 1368h262l-348 -1587h-367l-329 1360h-4l-326 -1360h-367z" glyph-name="Wacute" horiz-adv-x="2191" unicode="Ẃ"/><glyph d="M774 1290l199 297h225l-252 -297h-172zM299 0l-264 1178h260l180 -992h10l267 992h217l266 -992h10l182 992h263l-269 -1178h-340l-215 856h-12l-213 -856h-342z" glyph-name="wacute" horiz-adv-x="1722" unicode="ẃ"/><glyph d="M823 1759v238h221v-238h-221zM1149 1759v238h221v-238h-221zM399 0l-348 1587h262l277 -1368h10l338 1368h317l338 -1368h9l276 1368h262l-348 -1587h-367l-329 1360h-4l-326 -1360h-367z" glyph-name="Wdieresis" horiz-adv-x="2191" unicode="Ẅ"/><glyph d="M588 1350v237h221v-237h-221zM913 1350v237h222v-237h-222zM299 0l-264 1178h260l180 -992h10l267 992h217l266 -992h10l182 992h263l-269 -1178h-340l-215 856h-12l-213 -856h-342z" glyph-name="wdieresis" horiz-adv-x="1722" unicode="ẅ"/><glyph d="M1137 872q373 -76 372 -415q0 -223 -156.5 -353.5t-418.5 -130.5q-188 0 -356 68l102 211q150 -61 264 -62q139 0 224 64.5t85 191.5q0 57 -19.5 101.5t-43 68t-64.5 42t-62.5 23.5t-57.5 13l-310 68l398 547q-150 111 -330 110q-98 0 -168 -25.5t-102.5 -56t-51 -81 t-20.5 -76t-2 -64.5v-1116h-252v1135q0 98 26.5 179t89 153.5t182.5 112.5t288 40q365 0 622 -258l-338 -467z" glyph-name="uni1E9E" horiz-adv-x="1568" unicode="ẞ"/><glyph d="M1579 0h-268l-137 373h-742l-137 -373h-268l606 1587h340zM506 578h594l-291 792h-12zM690 -410v220h230v-220h-230z" glyph-name="uni1EA0" horiz-adv-x="1605" unicode="Ạ"/><glyph d="M606 1202q219 0 348 -100.5t129 -290.5v-811h-235v127h-17q-182 -152 -401 -152q-176 0 -275.5 89.5t-99.5 242.5q0 164 114 254t296 141l383 103v8q0 100 -65.5 154.5t-188.5 54.5q-221 0 -383 -182l-133 147q202 215 528 215zM489 156q182 0 359 180v285l-342 -99 q-213 -61 -213 -200q0 -74 52 -120t144 -46zM492 -410v220h229v-220h-229z" glyph-name="uni1EA1" horiz-adv-x="1210" unicode="ạ"/><glyph d="M778 1982q-49 0 -94 -36l-57 92q78 47 168 47q96 0 154.5 -48t58.5 -124q0 -119 -136 -158v-74h-135v127q125 16 125 99q0 33 -22.5 54t-61.5 21zM1311 0l-137 373h-742l-137 -373h-268l606 1587h340l606 -1587h-268zM506 578h594l-291 792h-12z" glyph-name="uni1EA2" horiz-adv-x="1605" unicode="Ả"/><glyph d="M580 1573q-47 0 -95 -37l-57 92q78 47 168 47q96 0 154.5 -48t58.5 -124q0 -119 -135 -157v-74h-135v127q125 16 125 98q0 33 -22.5 54.5t-61.5 21.5zM606 1202q219 0 348 -100.5t129 -290.5v-811h-235v127h-17q-182 -152 -401 -152q-176 0 -275.5 89.5t-99.5 242.5 q0 164 114 254t296 141l383 103v8q0 100 -65.5 154.5t-188.5 54.5q-221 0 -383 -182l-133 147q202 215 528 215zM489 156q182 0 359 180v285l-342 -99q-213 -61 -213 -200q0 -74 52 -120t144 -46z" glyph-name="uni1EA3" horiz-adv-x="1210" unicode="ả"/><glyph d="M1141 2406l-252 -297h-172l198 297h226zM803 1870l-103 -170h-190l195 297h194l195 -297h-189zM1311 0l-137 373h-742l-137 -373h-268l606 1587h340l606 -1587h-268zM506 578h594l-291 792h-12z" glyph-name="uni1EA4" horiz-adv-x="1605" unicode="Ấ"/><glyph d="M944 1997l-252 -297h-172l199 297h225zM606 1460l-102 -170h-191l195 297h194l195 -297h-188zM606 1202q219 0 348 -100.5t129 -290.5v-811h-235v127h-17q-182 -152 -401 -152q-176 0 -275.5 89.5t-99.5 242.5q0 164 114 254t296 141l383 103v8q0 100 -65.5 154.5 t-188.5 54.5q-221 0 -383 -182l-133 147q202 215 528 215zM489 156q182 0 359 180v285l-342 -99q-213 -61 -213 -200q0 -74 52 -120t144 -46z" glyph-name="uni1EA5" horiz-adv-x="1210" unicode="ấ"/><glyph d="M889 2109h-172l-254 297h225zM510 1700l195 297h194l195 -297h-189l-102 170l-103 -170h-190zM1311 0l-137 373h-742l-137 -373h-268l606 1587h340l606 -1587h-268zM506 578h594l-291 792h-12z" glyph-name="uni1EA6" horiz-adv-x="1605" unicode="Ầ"/><glyph d="M692 1700h-172l-254 297h226zM313 1290l195 297h194l195 -297h-188l-103 170l-102 -170h-191zM606 1202q219 0 348 -100.5t129 -290.5v-811h-235v127h-17q-182 -152 -401 -152q-176 0 -275.5 89.5t-99.5 242.5q0 164 114 254t296 141l383 103v8q0 100 -65.5 154.5 t-188.5 54.5q-221 0 -383 -182l-133 147q202 215 528 215zM489 156q182 0 359 180v285l-342 -99q-213 -61 -213 -200q0 -74 52 -120t144 -46z" glyph-name="uni1EA7" horiz-adv-x="1210" unicode="ầ"/><glyph d="M778 2392q-49 0 -96 -37l-57 92q78 47 168 47q96 0 154.5 -48t58.5 -124q0 -121 -136 -157v-74h-135v127q125 16 125 98q0 33 -21.5 54.5t-60.5 21.5zM803 1870l-103 -170h-190l195 297h194l195 -297h-189zM1311 0l-137 373h-742l-137 -373h-268l606 1587h340l606 -1587 h-268zM506 578h594l-291 792h-12z" glyph-name="uni1EA8" horiz-adv-x="1605" unicode="Ẩ"/><glyph d="M582 1982q-49 0 -97 -36l-57 92q78 47 168 47q96 0 154.5 -48t58.5 -124q0 -121 -135 -158v-74h-135v127q125 16 125 99q0 33 -21.5 54t-60.5 21zM606 1460l-102 -170h-191l195 297h194l195 -297h-188zM606 1202q219 0 348 -100.5t129 -290.5v-811h-235v127h-17 q-182 -152 -401 -152q-176 0 -275.5 89.5t-99.5 242.5q0 164 114 254t296 141l383 103v8q0 100 -65.5 154.5t-188.5 54.5q-221 0 -383 -182l-133 147q202 215 528 215zM489 156q182 0 359 180v285l-342 -99q-213 -61 -213 -200q0 -74 52 -120t144 -46z" glyph-name="uni1EA9" horiz-adv-x="1210" unicode="ẩ"/><glyph d="M670 2279q-72 0 -68 -122h-121q0 252 172 251q72 0 120 -34.5t84 -68.5t77 -34q74 0 74 135h116q0 -264 -178 -264q-53 0 -94 21.5t-63.5 47t-53 47t-65.5 21.5zM705 1997h194l195 -297h-189l-102 170l-103 -170h-190zM1311 0l-137 373h-742l-137 -373h-268l606 1587h340 l606 -1587h-268zM506 578h594l-291 792h-12z" glyph-name="uni1EAA" horiz-adv-x="1605" unicode="Ẫ"/><glyph d="M473 1870q-72 0 -67 -123h-121q0 252 172 252q72 0 120 -35t83.5 -68.5t76.5 -33.5q74 0 74 135h117q0 -264 -178 -264q-53 0 -94.5 21.5t-64 47t-53 47t-65.5 21.5zM508 1587h194l195 -297h-188l-103 170l-102 -170h-191zM606 1202q219 0 348 -100.5t129 -290.5v-811 h-235v127h-17q-182 -152 -401 -152q-176 0 -275.5 89.5t-99.5 242.5q0 164 114 254t296 141l383 103v8q0 100 -65.5 154.5t-188.5 54.5q-221 0 -383 -182l-133 147q202 215 528 215zM489 156q182 0 359 180v285l-342 -99q-213 -61 -213 -200q0 -74 52 -120t144 -46z" glyph-name="uni1EAB" horiz-adv-x="1210" unicode="ẫ"/><glyph d="M803 1870l-103 -170h-190l195 297h194l195 -297h-189zM1579 0h-268l-137 373h-742l-137 -373h-268l606 1587h340zM506 578h594l-291 792h-12zM690 -410v220h230v-220h-230z" glyph-name="uni1EAC" horiz-adv-x="1605" unicode="Ậ"/><glyph d="M606 1460l-102 -170h-191l195 297h194l195 -297h-188zM606 1202q219 0 348 -100.5t129 -290.5v-811h-235v127h-17q-182 -152 -401 -152q-176 0 -275.5 89.5t-99.5 242.5q0 164 114 254t296 141l383 103v8q0 100 -65.5 154.5t-188.5 54.5q-221 0 -383 -182l-133 147 q202 215 528 215zM489 156q182 0 359 180v285l-342 -99q-213 -61 -213 -200q0 -74 52 -120t144 -46zM492 -410v220h229v-220h-229z" glyph-name="uni1EAD" horiz-adv-x="1210" unicode="ậ"/><glyph d="M1143 2406l-252 -297h-174l201 297h225zM803 1708q-131 0 -212 72.5t-81 216.5h147q0 -88 40 -131t105.5 -43t105.5 44t40 130h152q0 -143 -82 -216t-215 -73zM1311 0l-137 373h-742l-137 -373h-268l606 1587h340l606 -1587h-268zM506 578h594l-291 792h-12z" glyph-name="uni1EAE" horiz-adv-x="1605" unicode="Ắ"/><glyph d="M944 1997l-252 -297h-174l201 297h225zM604 1298q-131 0 -212 73t-81 216h148q0 -88 40 -131t105.5 -43t105.5 44t40 130h151q0 -143 -82 -216t-215 -73zM606 1202q219 0 348 -100.5t129 -290.5v-811h-235v127h-17q-182 -152 -401 -152q-176 0 -275.5 89.5t-99.5 242.5 q0 164 114 254t296 141l383 103v8q0 100 -65.5 154.5t-188.5 54.5q-221 0 -383 -182l-133 147q202 215 528 215zM489 156q182 0 359 180v285l-342 -99q-213 -61 -213 -200q0 -74 52 -120t144 -46z" glyph-name="uni1EAF" horiz-adv-x="1210" unicode="ắ"/><glyph d="M891 2109h-174l-252 297h225zM657 1997q0 -88 40 -131t105.5 -43t105.5 44t40 130h152q0 -143 -82 -216t-215 -73q-131 0 -212 72.5t-81 216.5h147zM1311 0l-137 373h-742l-137 -373h-268l606 1587h340l606 -1587h-268zM506 578h594l-291 792h-12z" glyph-name="uni1EB0" horiz-adv-x="1605" unicode="Ằ"/><glyph d="M692 1700h-174l-252 297h226zM459 1587q0 -88 40 -131t105.5 -43t105.5 44t40 130h151q0 -143 -82 -216t-215 -73q-131 0 -212 73t-81 216h148zM606 1202q219 0 348 -100.5t129 -290.5v-811h-235v127h-17q-182 -152 -401 -152q-176 0 -275.5 89.5t-99.5 242.5 q0 164 114 254t296 141l383 103v8q0 100 -65.5 154.5t-188.5 54.5q-221 0 -383 -182l-133 147q202 215 528 215zM489 156q182 0 359 180v285l-342 -99q-213 -61 -213 -200q0 -74 52 -120t144 -46z" glyph-name="uni1EB1" horiz-adv-x="1210" unicode="ằ"/><glyph d="M778 2392q-49 0 -94 -37l-57 92q78 47 168 47q96 0 154.5 -48t58.5 -124q0 -119 -136 -157v-74h-135v127q125 16 125 98q0 33 -22.5 54.5t-61.5 21.5zM803 1708q-131 0 -212 72.5t-81 216.5h147q0 -88 40 -131t105.5 -43t105.5 44t40 130h152q0 -143 -82 -216t-215 -73z M1311 0l-137 373h-742l-137 -373h-268l606 1587h340l606 -1587h-268zM506 578h594l-291 792h-12z" glyph-name="uni1EB2" horiz-adv-x="1605" unicode="Ẳ"/><glyph d="M580 1982q-47 0 -95 -36l-57 92q78 47 168 47q96 0 154.5 -48t58.5 -124q0 -119 -135 -158v-74h-135v127q125 16 125 99q0 33 -22.5 54t-61.5 21zM604 1298q-131 0 -212 73t-81 216h148q0 -88 40 -131t105.5 -43t105.5 44t40 130h151q0 -143 -82 -216t-215 -73zM606 1202 q219 0 348 -100.5t129 -290.5v-811h-235v127h-17q-182 -152 -401 -152q-176 0 -275.5 89.5t-99.5 242.5q0 164 114 254t296 141l383 103v8q0 100 -65.5 154.5t-188.5 54.5q-221 0 -383 -182l-133 147q202 215 528 215zM489 156q182 0 359 180v285l-342 -99 q-213 -61 -213 -200q0 -74 52 -120t144 -46z" glyph-name="uni1EB3" horiz-adv-x="1210" unicode="ẳ"/><glyph d="M672 2279q-70 0 -70 -122h-121q0 252 174 251q72 0 120 -34.5t84 -68.5t77 -34q74 0 74 135h116q0 -264 -178 -264q-68 0 -115 35t-83.5 68.5t-77.5 33.5zM802.5 1823q65.5 0 105.5 44t40 130h152q0 -143 -82 -216t-215 -73q-131 0 -212 72.5t-81 216.5h147 q0 -88 40 -131t105.5 -43zM1311 0l-137 373h-742l-137 -373h-268l606 1587h340l606 -1587h-268zM506 578h594l-291 792h-12z" glyph-name="uni1EB4" horiz-adv-x="1605" unicode="Ẵ"/><glyph d="M473 1870q-70 0 -70 -123h-120q0 252 174 252q72 0 120 -35t83.5 -68.5t76.5 -33.5q74 0 74 135h117q0 -264 -178 -264q-68 0 -115 34.5t-84 68.5t-78 34zM604.5 1413q65.5 0 105.5 44t40 130h151q0 -143 -82 -216t-215 -73q-131 0 -212 73t-81 216h148q0 -88 40 -131 t105.5 -43zM606 1202q219 0 348 -100.5t129 -290.5v-811h-235v127h-17q-182 -152 -401 -152q-176 0 -275.5 89.5t-99.5 242.5q0 164 114 254t296 141l383 103v8q0 100 -65.5 154.5t-188.5 54.5q-221 0 -383 -182l-133 147q202 215 528 215zM489 156q182 0 359 180v285 l-342 -99q-213 -61 -213 -200q0 -74 52 -120t144 -46z" glyph-name="uni1EB5" horiz-adv-x="1210" unicode="ẵ"/><glyph d="M803 1708q-131 0 -212 72.5t-81 216.5h147q0 -88 40 -131t105.5 -43t105.5 44t40 130h152q0 -143 -82 -216t-215 -73zM1579 0h-268l-137 373h-742l-137 -373h-268l606 1587h340zM506 578h594l-291 792h-12zM690 -410v220h230v-220h-230z" glyph-name="uni1EB6" horiz-adv-x="1605" unicode="Ặ"/><glyph d="M604 1298q-131 0 -212 73t-81 216h148q0 -88 40 -131t105.5 -43t105.5 44t40 130h151q0 -143 -82 -216t-215 -73zM606 1202q219 0 348 -100.5t129 -290.5v-811h-235v127h-17q-182 -152 -401 -152q-176 0 -275.5 89.5t-99.5 242.5q0 164 114 254t296 141l383 103v8 q0 100 -65.5 154.5t-188.5 54.5q-221 0 -383 -182l-133 147q202 215 528 215zM489 156q182 0 359 180v285l-342 -99q-213 -61 -213 -200q0 -74 52 -120t144 -46zM492 -410v220h229v-220h-229z" glyph-name="uni1EB7" horiz-adv-x="1210" unicode="ặ"/><glyph d="M190 0v1587h1141v-215h-891v-446h817v-217h-817v-494h930v-215h-1180zM666 -410v220h229v-220h-229z" glyph-name="uni1EB8" horiz-adv-x="1447" unicode="Ẹ"/><glyph d="M1133 614q0 -33 -7 -90h-821q12 -160 101.5 -258t248.5 -98q193 0 299 143l154 -137q-178 -197 -455 -197q-281 0 -434 167t-153 442q0 268 142 442t406 174q254 0 386.5 -169t132.5 -419zM606 1010q-152 0 -225.5 -92.5t-79.5 -231.5h598q-4 154 -79 239t-214 85z M485 -410v220h230v-220h-230z" glyph-name="uni1EB9" horiz-adv-x="1198" unicode="ẹ"/><glyph d="M713 1681v127q125 16 125 99q0 33 -22.5 54t-61.5 21q-49 0 -95 -36l-57 92q78 47 168 47q96 0 154.5 -48t58.5 -124q0 -119 -135 -158v-74h-135zM190 0v1587h1141v-215h-891v-446h817v-217h-817v-494h930v-215h-1180z" glyph-name="uni1EBA" horiz-adv-x="1447" unicode="Ẻ"/><glyph d="M573 1573q-49 0 -94 -37l-57 92q78 47 168 47q96 0 154.5 -48t58.5 -124q0 -119 -135 -157v-74h-136v127q125 16 125 98q0 33 -22.5 54.5t-61.5 21.5zM1133 614q0 -33 -7 -90h-821q12 -160 101.5 -258t248.5 -98q193 0 299 143l154 -137q-178 -197 -455 -197 q-281 0 -434 167t-153 442q0 268 142 442t406 174q254 0 386.5 -169t132.5 -419zM606 1010q-152 0 -225.5 -92.5t-79.5 -231.5h598q-4 154 -79 239t-214 85z" glyph-name="uni1EBB" horiz-adv-x="1198" unicode="ẻ"/><glyph d="M924 1733q-53 0 -94.5 21.5t-64 47t-53 47t-63.5 21.5q-74 0 -69 -123h-121q0 252 174 252q72 0 119 -35t83.5 -68.5t77.5 -33.5q72 0 72 135h119q0 -264 -180 -264zM190 0v1587h1141v-215h-891v-446h817v-217h-817v-494h930v-215h-1180z" glyph-name="uni1EBC" horiz-adv-x="1447" unicode="Ẽ"/><glyph d="M467 1460q-74 0 -70 -123h-121q0 252 175 252q72 0 118.5 -34.5t83.5 -68.5t78 -34q72 0 72 135h119q0 -264 -181 -264q-53 0 -94 21.5t-63.5 47t-53 47t-63.5 21.5zM1133 614q0 -33 -7 -90h-821q12 -160 101.5 -258t248.5 -98q193 0 299 143l154 -137 q-178 -197 -455 -197q-281 0 -434 167t-153 442q0 268 142 442t406 174q254 0 386.5 -169t132.5 -419zM606 1010q-152 0 -225.5 -92.5t-79.5 -231.5h598q-4 154 -79 239t-214 85z" glyph-name="uni1EBD" horiz-adv-x="1198" unicode="ẽ"/><glyph d="M1118 2406l-252 -297h-172l199 297h225zM780 1870l-102 -170h-191l195 297h195l194 -297h-188zM440 215h930v-215h-1180v1587h1141v-215h-891v-446h817v-217h-817v-494z" glyph-name="uni1EBE" horiz-adv-x="1447" unicode="Ế"/><glyph d="M938 1997l-252 -297h-172l199 297h225zM600 1460l-102 -170h-191l195 297h194l195 -297h-189zM1133 614q0 -33 -7 -90h-821q12 -160 101.5 -258t248.5 -98q193 0 299 143l154 -137q-178 -197 -455 -197q-281 0 -434 167t-153 442q0 268 142 442t406 174q254 0 386.5 -169 t132.5 -419zM606 1010q-152 0 -225.5 -92.5t-79.5 -231.5h598q-4 154 -79 239t-214 85z" glyph-name="uni1EBF" horiz-adv-x="1198" unicode="ế"/><glyph d="M866 2109h-172l-254 297h226zM487 1700l195 297h195l194 -297h-188l-103 170l-102 -170h-191zM440 215h930v-215h-1180v1587h1141v-215h-891v-446h817v-217h-817v-494z" glyph-name="uni1EC0" horiz-adv-x="1447" unicode="Ề"/><glyph d="M686 1700h-172l-254 297h225zM307 1290l195 297h194l195 -297h-189l-102 170l-102 -170h-191zM1133 614q0 -33 -7 -90h-821q12 -160 101.5 -258t248.5 -98q193 0 299 143l154 -137q-178 -197 -455 -197q-281 0 -434 167t-153 442q0 268 142 442t406 174q254 0 386.5 -169 t132.5 -419zM606 1010q-152 0 -225.5 -92.5t-79.5 -231.5h598q-4 154 -79 239t-214 85z" glyph-name="uni1EC1" horiz-adv-x="1198" unicode="ề"/><glyph d="M756 2392q-51 0 -97 -37l-57 92q78 47 168 47q96 0 154.5 -48t58.5 -124q0 -121 -135 -157v-74h-135v127q125 16 125 98q0 33 -21.5 54.5t-60.5 21.5zM780 1870l-102 -170h-191l195 297h195l194 -297h-188zM440 215h930v-215h-1180v1587h1141v-215h-891v-446h817v-217 h-817v-494z" glyph-name="uni1EC2" horiz-adv-x="1447" unicode="Ể"/><glyph d="M575 1982q-51 0 -96 -36l-57 92q78 47 168 47q96 0 154.5 -48t58.5 -124q0 -121 -135 -158v-74h-136v127q125 16 125 99q0 33 -21.5 54t-60.5 21zM600 1460l-102 -170h-191l195 297h194l195 -297h-189zM1133 614q0 -33 -7 -90h-821q12 -160 101.5 -258t248.5 -98 q193 0 299 143l154 -137q-178 -197 -455 -197q-281 0 -434 167t-153 442q0 268 142 442t406 174q254 0 386.5 -169t132.5 -419zM606 1010q-152 0 -225.5 -92.5t-79.5 -231.5h598q-4 154 -79 239t-214 85z" glyph-name="uni1EC3" horiz-adv-x="1198" unicode="ể"/><glyph d="M647 2279q-72 0 -67 -122h-121q0 252 172 251q72 0 120 -34.5t83.5 -68.5t76.5 -34q74 0 74 135h117q0 -264 -178 -264q-53 0 -94.5 21.5t-64 47t-53 47t-65.5 21.5zM682 1997h195l194 -297h-188l-103 170l-102 -170h-191zM440 215h930v-215h-1180v1587h1141v-215h-891 v-446h817v-217h-817v-494z" glyph-name="uni1EC4" horiz-adv-x="1447" unicode="Ễ"/><glyph d="M467 1870q-72 0 -68 -123h-120q0 252 172 252q72 0 119.5 -35t83.5 -68.5t77 -33.5q74 0 74 135h117q0 -264 -179 -264q-53 0 -94 21.5t-63.5 47t-53 47t-65.5 21.5zM502 1587h194l195 -297h-189l-102 170l-102 -170h-191zM1133 614q0 -33 -7 -90h-821 q12 -160 101.5 -258t248.5 -98q193 0 299 143l154 -137q-178 -197 -455 -197q-281 0 -434 167t-153 442q0 268 142 442t406 174q254 0 386.5 -169t132.5 -419zM606 1010q-152 0 -225.5 -92.5t-79.5 -231.5h598q-4 154 -79 239t-214 85z" glyph-name="uni1EC5" horiz-adv-x="1198" unicode="ễ"/><glyph d="M780 1870l-102 -170h-191l195 297h195l194 -297h-188zM440 215h930v-215h-1180v1587h1141v-215h-891v-446h817v-217h-817v-494zM666 -410v220h229v-220h-229z" glyph-name="uni1EC6" horiz-adv-x="1447" unicode="Ệ"/><glyph d="M600 1460l-102 -170h-191l195 297h194l195 -297h-189zM1133 614q0 -33 -7 -90h-821q12 -160 101.5 -258t248.5 -98q193 0 299 143l154 -137q-178 -197 -455 -197q-281 0 -434 167t-153 442q0 268 142 442t406 174q254 0 386.5 -169t132.5 -419zM606 1010 q-152 0 -225.5 -92.5t-79.5 -231.5h598q-4 154 -79 239t-214 85zM485 -410v220h230v-220h-230z" glyph-name="uni1EC7" horiz-adv-x="1198" unicode="ệ"/><glyph d="M248 1681v127q125 16 125 99q0 33 -22.5 54t-61.5 21q-47 0 -94 -36l-58 92q78 47 168 47q96 0 154.5 -48t58.5 -124q0 -119 -135 -158v-74h-135zM190 0v1587h250v-1587h-250z" glyph-name="uni1EC8" horiz-adv-x="632" unicode="Ỉ"/><glyph d="M203 1272v127q125 16 125 98q0 33 -22.5 54.5t-61.5 21.5q-47 0 -94 -37l-58 92q78 47 168 47q96 0 154.5 -48t58.5 -124q0 -119 -135 -157v-74h-135zM152 0v1178h237v-1178h-237z" glyph-name="uni1EC9" horiz-adv-x="542" unicode="ỉ"/><glyph d="M190 0v1587h250v-1587h-250zM201 -410v220h229v-220h-229z" glyph-name="uni1ECA" horiz-adv-x="632" unicode="Ị"/><glyph d="M141 1350v237h258v-237h-258zM152 0v1178h237v-1178h-237zM156 -410v220h229v-220h-229z" glyph-name="uni1ECB" horiz-adv-x="542" unicode="ị"/><glyph d="M825 -31q-340 0 -535.5 218.5t-195.5 607.5q0 387 195.5 606t535.5 219q338 0 536 -219t198 -606q0 -389 -197 -607.5t-537 -218.5zM825.5 190q229.5 0 358.5 162t129 442.5t-129 442.5t-358.5 162t-357.5 -161t-128 -443.5t128 -443.5t357.5 -161zM711 -410v220h229 v-220h-229z" glyph-name="uni1ECC" horiz-adv-x="1652" unicode="Ọ"/><glyph d="M614.5 -25q-245.5 0 -397 160t-151.5 451q0 293 151.5 454.5t397 161.5t397 -161.5t151.5 -454.5q0 -291 -151.5 -451t-397 -160zM618.5 170q145.5 0 229.5 102.5t84 313.5t-84 315.5t-229.5 104.5t-229.5 -103.5t-84 -316.5q0 -211 84 -313.5t229.5 -102.5zM500 -410 v220h229v-220h-229z" glyph-name="uni1ECD" horiz-adv-x="1230" unicode="ọ"/><glyph d="M758 1681v127q125 16 125 99q0 33 -22.5 54t-61.5 21q-49 0 -94 -36l-58 92q78 47 168 47q96 0 154.5 -48t58.5 -124q0 -119 -135 -158v-74h-135zM825 -31q-340 0 -535.5 218.5t-195.5 607.5q0 387 195.5 606t535.5 219q338 0 536 -219t198 -606q0 -389 -197 -607.5 t-537 -218.5zM825.5 190q229.5 0 358.5 162t129 442.5t-129 442.5t-358.5 162t-357.5 -161t-128 -443.5t128 -443.5t357.5 -161z" glyph-name="uni1ECE" horiz-adv-x="1652" unicode="Ỏ"/><glyph d="M547 1272v127q125 16 125 98q0 33 -22.5 54.5t-61.5 21.5q-47 0 -94 -37l-58 92q78 47 168 47q96 0 154.5 -48t58.5 -124q0 -119 -135 -157v-74h-135zM614.5 -25q-245.5 0 -397 160t-151.5 451q0 293 151.5 454.5t397 161.5t397 -161.5t151.5 -454.5q0 -291 -151.5 -451 t-397 -160zM618.5 170q145.5 0 229.5 102.5t84 313.5t-84 315.5t-229.5 104.5t-229.5 -103.5t-84 -316.5q0 -211 84 -313.5t229.5 -102.5z" glyph-name="uni1ECF" horiz-adv-x="1230" unicode="ỏ"/><glyph d="M1163 2406l-252 -297h-172l199 297h225zM825 1870l-102 -170h-191l195 297h195l194 -297h-188zM825 1620q338 0 536 -219t198 -606q0 -389 -197 -607.5t-537 -218.5t-535.5 218.5t-195.5 607.5q0 387 195.5 606t535.5 219zM825.5 190q229.5 0 358.5 162t129 442.5 t-129 442.5t-358.5 162t-357.5 -161t-128 -443.5t128 -443.5t357.5 -161z" glyph-name="uni1ED0" horiz-adv-x="1652" unicode="Ố"/><glyph d="M952 1997l-252 -297h-172l199 297h225zM614 1460l-102 -170h-190l194 297h195l194 -297h-188zM614.5 1202q245.5 0 397 -161.5t151.5 -454.5q0 -291 -151.5 -451t-397 -160t-397 160t-151.5 451q0 293 151.5 454.5t397 161.5zM618.5 170q145.5 0 229.5 102.5t84 313.5 t-84 315.5t-229.5 104.5t-229.5 -103.5t-84 -316.5q0 -211 84 -313.5t229.5 -102.5z" glyph-name="uni1ED1" horiz-adv-x="1230" unicode="ố"/><glyph d="M911 2109h-172l-254 297h226zM532 1700l195 297h195l194 -297h-188l-103 170l-102 -170h-191zM825 1620q338 0 536 -219t198 -606q0 -389 -197 -607.5t-537 -218.5t-535.5 218.5t-195.5 607.5q0 387 195.5 606t535.5 219zM825.5 190q229.5 0 358.5 162t129 442.5 t-129 442.5t-358.5 162t-357.5 -161t-128 -443.5t128 -443.5t357.5 -161z" glyph-name="uni1ED2" horiz-adv-x="1652" unicode="Ồ"/><glyph d="M700 1700h-172l-254 297h226zM322 1290l194 297h195l194 -297h-188l-103 170l-102 -170h-190zM614.5 1202q245.5 0 397 -161.5t151.5 -454.5q0 -291 -151.5 -451t-397 -160t-397 160t-151.5 451q0 293 151.5 454.5t397 161.5zM618.5 170q145.5 0 229.5 102.5t84 313.5 t-84 315.5t-229.5 104.5t-229.5 -103.5t-84 -316.5q0 -211 84 -313.5t229.5 -102.5z" glyph-name="uni1ED3" horiz-adv-x="1230" unicode="ồ"/><glyph d="M801 2392q-51 0 -96 -37l-58 92q78 47 168 47q96 0 154.5 -48t58.5 -124q0 -121 -135 -157v-74h-135v127q125 16 125 98q0 33 -21.5 54.5t-60.5 21.5zM825 1870l-102 -170h-191l195 297h195l194 -297h-188zM825 1620q338 0 536 -219t198 -606q0 -389 -197 -607.5 t-537 -218.5t-535.5 218.5t-195.5 607.5q0 387 195.5 606t535.5 219zM825.5 190q229.5 0 358.5 162t129 442.5t-129 442.5t-358.5 162t-357.5 -161t-128 -443.5t128 -443.5t357.5 -161z" glyph-name="uni1ED4" horiz-adv-x="1652" unicode="Ổ"/><glyph d="M590 1982q-49 0 -96 -36l-58 92q78 47 168 47q96 0 154.5 -48t58.5 -124q0 -121 -135 -158v-74h-135v127q125 16 125 99q0 33 -21.5 54t-60.5 21zM614 1460l-102 -170h-190l194 297h195l194 -297h-188zM614.5 1202q245.5 0 397 -161.5t151.5 -454.5q0 -291 -151.5 -451 t-397 -160t-397 160t-151.5 451q0 293 151.5 454.5t397 161.5zM618.5 170q145.5 0 229.5 102.5t84 313.5t-84 315.5t-229.5 104.5t-229.5 -103.5t-84 -316.5q0 -211 84 -313.5t229.5 -102.5z" glyph-name="uni1ED5" horiz-adv-x="1230" unicode="ổ"/><glyph d="M692 2279q-72 0 -67 -122h-121q0 252 172 251q72 0 120 -34.5t83.5 -68.5t76.5 -34q74 0 74 135h117q0 -264 -178 -264q-53 0 -94 21.5t-64 47t-53.5 47t-65.5 21.5zM727 1997h195l194 -297h-188l-103 170l-102 -170h-191zM825 1620q338 0 536 -219t198 -606 q0 -389 -197 -607.5t-537 -218.5t-535.5 218.5t-195.5 607.5q0 387 195.5 606t535.5 219zM825.5 190q229.5 0 358.5 162t129 442.5t-129 442.5t-358.5 162t-357.5 -161t-128 -443.5t128 -443.5t357.5 -161z" glyph-name="uni1ED6" horiz-adv-x="1652" unicode="Ỗ"/><glyph d="M481 1870q-72 0 -67 -123h-121q0 252 172 252q72 0 120 -35t84 -68.5t76 -33.5q74 0 74 135h117q0 -264 -178 -264q-53 0 -94 21.5t-63.5 47t-53.5 47t-66 21.5zM516 1587h195l194 -297h-188l-103 170l-102 -170h-190zM614.5 1202q245.5 0 397 -161.5t151.5 -454.5 q0 -291 -151.5 -451t-397 -160t-397 160t-151.5 451q0 293 151.5 454.5t397 161.5zM618.5 170q145.5 0 229.5 102.5t84 313.5t-84 315.5t-229.5 104.5t-229.5 -103.5t-84 -316.5q0 -211 84 -313.5t229.5 -102.5z" glyph-name="uni1ED7" horiz-adv-x="1230" unicode="ỗ"/><glyph d="M825 1870l-102 -170h-191l195 297h195l194 -297h-188zM825 1620q338 0 536 -219t198 -606q0 -389 -197 -607.5t-537 -218.5t-535.5 218.5t-195.5 607.5q0 387 195.5 606t535.5 219zM825.5 190q229.5 0 358.5 162t129 442.5t-129 442.5t-358.5 162t-357.5 -161 t-128 -443.5t128 -443.5t357.5 -161zM711 -410v220h229v-220h-229z" glyph-name="uni1ED8" horiz-adv-x="1652" unicode="Ộ"/><glyph d="M614 1460l-102 -170h-190l194 297h195l194 -297h-188zM614.5 1202q245.5 0 397 -161.5t151.5 -454.5q0 -291 -151.5 -451t-397 -160t-397 160t-151.5 451q0 293 151.5 454.5t397 161.5zM618.5 170q145.5 0 229.5 102.5t84 313.5t-84 315.5t-229.5 104.5t-229.5 -103.5 t-84 -316.5q0 -211 84 -313.5t229.5 -102.5zM500 -410v220h229v-220h-229z" glyph-name="uni1ED9" horiz-adv-x="1230" unicode="ộ"/><glyph d="M1163 1997l-252 -297h-172l199 297h225zM1569 1585q0 -229 -168 -233q158 -211 158 -557q0 -389 -197 -607.5t-537 -218.5t-535.5 218.5t-195.5 607.5q0 387 195.5 606t535.5 219q270 0 453 -141q47 -20 84 -21q53 0 73.5 36t20.5 116v78h113v-103zM825.5 190 q229.5 0 358.5 162t129 442.5t-129 442.5t-358.5 162t-357.5 -161t-128 -443.5t128 -443.5t357.5 -161z" glyph-name="uni1EDA" horiz-adv-x="1652" unicode="Ớ"/><glyph d="M952 1587l-252 -297h-172l199 297h225zM1143 1278h112v-102q0 -233 -170 -234h-4q82 -145 82 -356q0 -291 -151.5 -451t-397 -160t-397 160t-151.5 451q0 293 151.5 454.5t396.5 161.5q236 0 381 -145q27 -8 54 -8q53 0 73.5 35.5t20.5 115.5v78zM618.5 170 q145.5 0 229.5 102.5t84 313.5t-84 315.5t-229.5 104.5t-229.5 -103.5t-84 -316.5q0 -211 84 -313.5t229.5 -102.5z" glyph-name="uni1EDB" horiz-adv-x="1230" unicode="ớ"/><glyph d="M911 1700h-172l-254 297h226zM1569 1585q0 -229 -168 -233q158 -211 158 -557q0 -389 -197 -607.5t-537 -218.5t-535.5 218.5t-195.5 607.5q0 387 195.5 606t535.5 219q270 0 453 -141q47 -20 84 -21q53 0 73.5 36t20.5 116v78h113v-103zM825.5 190q229.5 0 358.5 162 t129 442.5t-129 442.5t-358.5 162t-357.5 -161t-128 -443.5t128 -443.5t357.5 -161z" glyph-name="uni1EDC" horiz-adv-x="1652" unicode="Ờ"/><glyph d="M700 1290h-172l-254 297h226zM1143 1278h112v-102q0 -233 -170 -234h-4q82 -145 82 -356q0 -291 -151.5 -451t-397 -160t-397 160t-151.5 451q0 293 151.5 454.5t396.5 161.5q236 0 381 -145q27 -8 54 -8q53 0 73.5 35.5t20.5 115.5v78zM618.5 170q145.5 0 229.5 102.5 t84 313.5t-84 315.5t-229.5 104.5t-229.5 -103.5t-84 -316.5q0 -211 84 -313.5t229.5 -102.5z" glyph-name="uni1EDD" horiz-adv-x="1230" unicode="ờ"/><glyph d="M799 1982q-49 0 -94 -36l-58 92q78 47 168 47q96 0 154.5 -48t58.5 -124q0 -119 -135 -158v-74h-135v127q125 16 125 99q0 33 -22.5 54t-61.5 21zM1569 1585q0 -229 -168 -233q158 -211 158 -557q0 -389 -197 -607.5t-537 -218.5t-535.5 218.5t-195.5 607.5 q0 387 195.5 606t535.5 219q270 0 453 -141q47 -20 84 -21q53 0 73.5 36t20.5 116v78h113v-103zM825.5 190q229.5 0 358.5 162t129 442.5t-129 442.5t-358.5 162t-357.5 -161t-128 -443.5t128 -443.5t357.5 -161z" glyph-name="uni1EDE" horiz-adv-x="1652" unicode="Ở"/><glyph d="M588 1573q-47 0 -94 -37l-58 92q78 47 168 47q96 0 154.5 -48t58.5 -124q0 -119 -135 -157v-74h-135v127q125 16 125 98q0 33 -22.5 54.5t-61.5 21.5zM1143 1278h112v-102q0 -233 -170 -234h-4q82 -145 82 -356q0 -291 -151.5 -451t-397 -160t-397 160t-151.5 451 q0 293 151.5 454.5t396.5 161.5q236 0 381 -145q27 -8 54 -8q53 0 73.5 35.5t20.5 115.5v78zM618.5 170q145.5 0 229.5 102.5t84 313.5t-84 315.5t-229.5 104.5t-229.5 -103.5t-84 -316.5q0 -211 84 -313.5t229.5 -102.5z" glyph-name="uni1EDF" horiz-adv-x="1230" unicode="ở"/><glyph d="M694 1870q-74 0 -69 -123h-121q0 252 174 252q72 0 119 -35t84 -68.5t77 -33.5q72 0 72 135h119q0 -264 -180 -264q-53 0 -94 21.5t-64 47t-53.5 47t-63.5 21.5zM1569 1585q0 -229 -168 -233q158 -211 158 -557q0 -389 -197 -607.5t-537 -218.5t-535.5 218.5 t-195.5 607.5q0 387 195.5 606t535.5 219q270 0 453 -141q47 -20 84 -21q53 0 73.5 36t20.5 116v78h113v-103zM825.5 190q229.5 0 358.5 162t129 442.5t-129 442.5t-358.5 162t-357.5 -161t-128 -443.5t128 -443.5t357.5 -161z" glyph-name="uni1EE0" horiz-adv-x="1652" unicode="Ỡ"/><glyph d="M483 1460q-74 0 -69 -123h-121q0 252 174 252q72 0 119 -34.5t84 -68.5t78 -34q72 0 71 135h119q0 -264 -180 -264q-53 0 -94 21.5t-63.5 47t-53.5 47t-64 21.5zM1143 1278h112v-102q0 -233 -170 -234h-4q82 -145 82 -356q0 -291 -151.5 -451t-397 -160t-397 160 t-151.5 451q0 293 151.5 454.5t396.5 161.5q236 0 381 -145q27 -8 54 -8q53 0 73.5 35.5t20.5 115.5v78zM618.5 170q145.5 0 229.5 102.5t84 313.5t-84 315.5t-229.5 104.5t-229.5 -103.5t-84 -316.5q0 -211 84 -313.5t229.5 -102.5z" glyph-name="uni1EE1" horiz-adv-x="1230" unicode="ỡ"/><glyph d="M1569 1585q0 -229 -168 -233q158 -211 158 -557q0 -389 -197 -607.5t-537 -218.5t-535.5 218.5t-195.5 607.5q0 387 195.5 606t535.5 219q270 0 453 -141q47 -20 84 -21q53 0 73.5 36t20.5 116v78h113v-103zM825.5 190q229.5 0 358.5 162t129 442.5t-129 442.5 t-358.5 162t-357.5 -161t-128 -443.5t128 -443.5t357.5 -161zM711 -410v220h229v-220h-229z" glyph-name="uni1EE2" horiz-adv-x="1652" unicode="Ợ"/><glyph d="M1143 1278h112v-102q0 -233 -170 -234h-4q82 -145 82 -356q0 -291 -151.5 -451t-397 -160t-397 160t-151.5 451q0 293 151.5 454.5t396.5 161.5q236 0 381 -145q27 -8 54 -8q53 0 73.5 35.5t20.5 115.5v78zM618.5 170q145.5 0 229.5 102.5t84 313.5t-84 315.5 t-229.5 104.5t-229.5 -103.5t-84 -316.5q0 -211 84 -313.5t229.5 -102.5zM500 -410v220h229v-220h-229z" glyph-name="uni1EE3" horiz-adv-x="1230" unicode="ợ"/><glyph d="M796.5 -31q-307.5 0 -473 161t-165.5 460v997h252v-1016q0 -184 101 -283.5t286 -99.5q182 0 283.5 99.5t101.5 283.5v1016h254v-985q0 -305 -166 -469t-473.5 -164zM682 -410v220h229v-220h-229z" glyph-name="uni1EE4" horiz-adv-x="1593" unicode="Ụ"/><glyph d="M516 -23q-178 0 -283.5 112t-105.5 310v779h238v-727q0 -276 227 -277q129 0 207 84t78 248v672h239v-1178h-237v150h-11q-116 -173 -352 -173zM520 -410v220h230v-220h-230z" glyph-name="uni1EE5" horiz-adv-x="1269" unicode="ụ"/><glyph d="M729 1681v127q125 16 125 99q0 33 -22.5 54t-61.5 21q-49 0 -94 -36l-58 92q78 47 168 47q96 0 154.5 -48t58.5 -124q0 -119 -135 -158v-74h-135zM796.5 -31q-307.5 0 -473 161t-165.5 460v997h252v-1016q0 -184 101 -283.5t286 -99.5q182 0 283.5 99.5t101.5 283.5v1016 h254v-985q0 -305 -166 -469t-473.5 -164z" glyph-name="uni1EE6" horiz-adv-x="1593" unicode="Ủ"/><glyph d="M567 1272v127q125 16 125 98q0 33 -22.5 54.5t-61.5 21.5q-47 0 -94 -37l-57 92q78 47 168 47q96 0 154.5 -48t58.5 -124q0 -119 -136 -157v-74h-135zM516 -23q-178 0 -283.5 112t-105.5 310v779h238v-727q0 -276 227 -277q129 0 207 84t78 248v672h239v-1178h-237v150 h-11q-116 -173 -352 -173z" glyph-name="uni1EE7" horiz-adv-x="1269" unicode="ủ"/><glyph d="M1135 1997l-252 -297h-172l198 297h226zM1608 1688h112v-103q0 -233 -170 -233q-57 0 -114 28v-778q0 -305 -166 -469t-473.5 -164t-473 161t-165.5 460v997h252v-1016q0 -184 101 -283.5t286 -99.5q182 0 283.5 99.5t101.5 283.5v1016h254v-110q43 -18 77 -19 q53 0 74 36t21 116v78z" glyph-name="uni1EE8" horiz-adv-x="1593" unicode="Ứ"/><glyph d="M973 1587l-252 -297h-172l199 297h225zM1274 1278h112v-102q0 -233 -169 -234q-53 0 -101 23v-965h-237v150h-11q-117 -172 -352 -173q-178 0 -283.5 112t-105.5 310v779h238v-727q0 -276 227 -277q129 0 207 84t78 248v672h239v-117q37 -12 64 -12q53 0 73.5 35.5 t20.5 115.5v78z" glyph-name="uni1EE9" horiz-adv-x="1269" unicode="ứ"/><glyph d="M883 1700h-172l-254 297h225zM1608 1688h112v-103q0 -233 -170 -233q-57 0 -114 28v-778q0 -305 -166 -469t-473.5 -164t-473 161t-165.5 460v997h252v-1016q0 -184 101 -283.5t286 -99.5q182 0 283.5 99.5t101.5 283.5v1016h254v-110q43 -18 77 -19q53 0 74 36t21 116 v78z" glyph-name="uni1EEA" horiz-adv-x="1593" unicode="Ừ"/><glyph d="M721 1290h-172l-254 297h225zM1274 1278h112v-102q0 -233 -169 -234q-53 0 -101 23v-965h-237v150h-11q-117 -172 -352 -173q-178 0 -283.5 112t-105.5 310v779h238v-727q0 -276 227 -277q129 0 207 84t78 248v672h239v-117q37 -12 64 -12q53 0 73.5 35.5t20.5 115.5v78z " glyph-name="uni1EEB" horiz-adv-x="1269" unicode="ừ"/><glyph d="M770 1982q-49 0 -94 -36l-58 92q78 47 168 47q96 0 154.5 -48t58.5 -124q0 -119 -135 -158v-74h-135v127q125 16 125 99q0 33 -22.5 54t-61.5 21zM1608 1688h112v-103q0 -233 -170 -233q-57 0 -114 28v-778q0 -305 -166 -469t-473.5 -164t-473 161t-165.5 460v997h252 v-1016q0 -184 101 -283.5t286 -99.5q182 0 283.5 99.5t101.5 283.5v1016h254v-110q43 -18 77 -19q53 0 74 36t21 116v78z" glyph-name="uni1EEC" horiz-adv-x="1593" unicode="Ử"/><glyph d="M608 1573q-47 0 -94 -37l-57 92q78 47 168 47q96 0 154.5 -48t58.5 -124q0 -119 -136 -157v-74h-135v127q125 16 125 98q0 33 -22.5 54.5t-61.5 21.5zM1274 1278h112v-102q0 -233 -169 -234q-53 0 -101 23v-965h-237v150h-11q-117 -172 -352 -173q-178 0 -283.5 112 t-105.5 310v779h238v-727q0 -276 227 -277q129 0 207 84t78 248v672h239v-117q37 -12 64 -12q53 0 73.5 35.5t20.5 115.5v78z" glyph-name="uni1EED" horiz-adv-x="1269" unicode="ử"/><glyph d="M666 1870q-74 0 -70 -123h-121q0 252 174 252q72 0 119 -35t84 -68.5t78 -33.5q72 0 71 135h119q0 -264 -180 -264q-53 0 -94 21.5t-63.5 47t-53 47t-63.5 21.5zM1608 1688h112v-103q0 -233 -170 -233q-57 0 -114 28v-778q0 -305 -166 -469t-473.5 -164t-473 161 t-165.5 460v997h252v-1016q0 -184 101 -283.5t286 -99.5q182 0 283.5 99.5t101.5 283.5v1016h254v-110q43 -18 77 -19q53 0 74 36t21 116v78z" glyph-name="uni1EEE" horiz-adv-x="1593" unicode="Ữ"/><glyph d="M502 1460q-74 0 -70 -123h-121q0 252 174 252q72 0 119 -34.5t84 -68.5t78 -34q72 0 72 135h118q0 -264 -180 -264q-53 0 -94 21.5t-63.5 47t-53 47t-63.5 21.5zM1274 1278h112v-102q0 -233 -169 -234q-53 0 -101 23v-965h-237v150h-11q-117 -172 -352 -173 q-178 0 -283.5 112t-105.5 310v779h238v-727q0 -276 227 -277q129 0 207 84t78 248v672h239v-117q37 -12 64 -12q53 0 73.5 35.5t20.5 115.5v78z" glyph-name="uni1EEF" horiz-adv-x="1269" unicode="ữ"/><glyph d="M1608 1688h112v-103q0 -233 -170 -233q-57 0 -114 28v-778q0 -305 -166 -469t-473.5 -164t-473 161t-165.5 460v997h252v-1016q0 -184 101 -283.5t286 -99.5q182 0 283.5 99.5t101.5 283.5v1016h254v-110q43 -18 77 -19q53 0 74 36t21 116v78zM682 -410v220h229v-220 h-229z" glyph-name="uni1EF0" horiz-adv-x="1593" unicode="Ự"/><glyph d="M1274 1278h112v-102q0 -233 -169 -234q-53 0 -101 23v-965h-237v150h-11q-117 -172 -352 -173q-178 0 -283.5 112t-105.5 310v779h238v-727q0 -276 227 -277q129 0 207 84t78 248v672h239v-117q37 -12 64 -12q53 0 73.5 35.5t20.5 115.5v78zM520 -410v220h230v-220h-230z " glyph-name="uni1EF1" horiz-adv-x="1269" unicode="ự"/><glyph d="M588 1700l-254 297h225l201 -297h-172zM549 0v596l-531 991h271l383 -737h10l377 737h270l-530 -991v-596h-250z" glyph-name="Ygrave" horiz-adv-x="1345" unicode="Ỳ"/><glyph d="M440 1290l-254 297h226l200 -297h-172zM23 -410v195h133q117 0 179 57.5t62 159.5q0 61 -26 135l-365 1041h256l258 -885h15l256 885h258l-422 -1223q-72 -199 -173.5 -282t-291.5 -83h-139z" glyph-name="ygrave" horiz-adv-x="1054" unicode="ỳ"/><glyph d="M549 0v596l-531 991h271l383 -737h10l377 737h270l-530 -991v-596h-250zM559 -410v220h229v-220h-229z" glyph-name="uni1EF4" horiz-adv-x="1345" unicode="Ỵ"/><glyph d="M23 -410v195h133q117 0 179 57.5t62 159.5q0 61 -26 135l-365 1041h256l258 -885h15l256 885h258l-422 -1223q-72 -199 -173.5 -282t-291.5 -83h-139zM711 -410v220h229v-220h-229z" glyph-name="uni1EF5" horiz-adv-x="1054" unicode="ỵ"/><glyph d="M606 1681v127q125 16 125 99q0 33 -22.5 54t-61.5 21q-49 0 -94 -36l-57 92q78 47 168 47q96 0 154.5 -48t58.5 -124q0 -119 -136 -158v-74h-135zM549 0v596l-531 991h271l383 -737h10l377 737h270l-530 -991v-596h-250z" glyph-name="uni1EF6" horiz-adv-x="1345" unicode="Ỷ"/><glyph d="M461 1272v127q125 16 125 98q0 33 -22.5 54.5t-61.5 21.5q-47 0 -94 -37l-58 92q78 47 168 47q96 0 154.5 -48t58.5 -124q0 -119 -135 -157v-74h-135zM23 -410v195h133q117 0 179 57.5t62 159.5q0 61 -26 135l-365 1041h256l258 -885h15l256 885h258l-422 -1223 q-72 -199 -173.5 -282t-291.5 -83h-139z" glyph-name="uni1EF7" horiz-adv-x="1054" unicode="ỷ"/><glyph d="M815 1733q-53 0 -94 21.5t-63.5 47t-53.5 47t-63 21.5q-74 0 -70 -123h-121q0 252 174 252q72 0 119 -35t84 -68.5t78 -33.5q72 0 72 135h118q0 -264 -180 -264zM549 0v596l-531 991h271l383 -737h10l377 737h270l-530 -991v-596h-250z" glyph-name="uni1EF8" horiz-adv-x="1345" unicode="Ỹ"/><glyph d="M670 1323q-53 0 -94 21.5t-64 47t-53.5 47t-63.5 21.5q-74 0 -69 -123h-121q0 252 174 252q72 0 119 -34.5t83.5 -68.5t77.5 -34q72 0 72 135h119q0 -264 -180 -264zM23 -410v195h133q117 0 179 57.5t62 159.5q0 61 -26 135l-365 1041h256l258 -885h15l256 885h258 l-422 -1223q-72 -199 -173.5 -282t-291.5 -83h-139z" glyph-name="uni1EF9" horiz-adv-x="1054" unicode="ỹ"/><glyph d="M0 489v199h1151v-199h-1151z" glyph-name="endash" horiz-adv-x="1150" unicode="–"/><glyph d="M0 489v199h2300v-199h-2300z" glyph-name="emdash" horiz-adv-x="2299" unicode="—"/><glyph d="M143 928v293q0 176 81 275t294 114v-111q-57 -4 -98 -22.5t-62.5 -41t-33 -62.5t-13.5 -71.5t-2 -80.5h185v-293h-351z" glyph-name="quoteleft" horiz-adv-x="657" unicode="‘"/><glyph d="M141 905v111q57 4 97.5 22.5t62 42t32.5 63.5t13 70.5t2 79.5h-184v293h350v-293q0 -174 -81 -273.5t-292 -115.5z" glyph-name="quoteright" horiz-adv-x="657" unicode="’"/><glyph d="M141 -389v110q57 4 97.5 22.5t62 42.5t32.5 63.5t13 70.5t2 80h-184v293h350v-293q0 -174 -81 -273.5t-292 -115.5z" glyph-name="quotesinglbase" horiz-adv-x="657" unicode="‚"/><glyph d="M143 928v293q0 176 81 275t294 114v-111q-57 -4 -98 -22.5t-62.5 -41t-33 -62.5t-13.5 -71.5t-2 -80.5h185v-293h-351zM633 928v293q0 176 81 275t294 114v-111q-57 -4 -98.5 -22.5t-62 -41t-31.5 -63.5t-13 -70.5t-2 -80.5h182v-293h-350z" glyph-name="quotedblleft" horiz-adv-x="1148" unicode="“"/><glyph d="M141 905v111q57 4 97.5 22.5t62 42t32.5 63.5t13 70.5t2 79.5h-184v293h350v-293q0 -174 -81 -273.5t-292 -115.5zM631 905v111q57 4 98 22.5t62.5 42t33 63.5t13.5 70.5t2 79.5h-185v293h351v-293q0 -174 -81 -273.5t-294 -115.5z" glyph-name="quotedblright" horiz-adv-x="1148" unicode="”"/><glyph d="M141 -389v110q57 4 97.5 22.5t62 42.5t32.5 63.5t13 70.5t2 80h-184v293h350v-293q0 -174 -81 -273.5t-292 -115.5zM631 -389v110q57 4 98 22.5t62.5 42.5t33 63.5t13.5 70.5t2 80h-185v293h351v-293q0 -174 -81 -273.5t-294 -115.5z" glyph-name="quotedblbase" horiz-adv-x="1148" unicode="„"/><glyph d="M317 -229v1220h-249v187h249v409h203v-409h248v-187h-248v-1220h-203z" glyph-name="dagger" horiz-adv-x="835" unicode="†"/><glyph d="M356 -229v411h-247v187h247v622h-247v187h247v409h203v-409h248v-187h-248v-622h248v-187h-248v-411h-203z" glyph-name="daggerdbl" horiz-adv-x="915" unicode="‡"/><glyph d="M211 455v618h618v-618h-618z" glyph-name="bullet" horiz-adv-x="1040" unicode="•"/><glyph d="M207 0v293h289v-293h-289zM887 0v293h287v-293h-287z" glyph-name="twodotenleader" horiz-adv-x="1380" unicode="‥"/><glyph d="M207 0v293h289v-293h-289zM887 0v293h287v-293h-287zM1565 0v293h286v-293h-286z" glyph-name="ellipsis" horiz-adv-x="2060" unicode="…"/><glyph d="M430 911q-143 0 -245.5 102.5t-102.5 250.5q0 143 102.5 245.5t245.5 102.5q145 0 247.5 -101.5t102.5 -246.5q0 -150 -100 -251.5t-250 -101.5zM297 0l852 1587h213l-854 -1587h-211zM430 1096q70 0 119 49t49 118.5t-49 118t-119 48.5q-68 0 -118 -49.5t-50 -117 t50 -117.5t118 -50zM1223 -23q-143 0 -244.5 102.5t-101.5 248t101 247t245 101.5q145 0 248.5 -101.5t103.5 -246.5q0 -150 -101 -250.5t-251 -100.5zM2003 -23q-143 0 -245.5 102.5t-102.5 248t102.5 247t245.5 101.5q145 0 247.5 -101.5t102.5 -246.5q0 -150 -100 -250.5 t-250 -100.5zM1223 160q70 0 118 49t48 118.5t-48.5 119t-117.5 49.5q-68 0 -118 -50.5t-50 -118t50 -117.5t118 -50zM2003 160q70 0 119 49t49 118.5t-49 119t-119 49.5q-66 0 -116 -49.5t-50 -119t50 -118.5t116 -49z" glyph-name="perthousand" horiz-adv-x="2437" unicode="‰"/><glyph d="M444 113l-415 477l415 475h261l-422 -475l422 -477h-261z" glyph-name="guilsinglleft" horiz-adv-x="747" unicode="‹"/><glyph d="M43 113l420 477l-420 475h260l414 -475l-414 -477h-260z" glyph-name="guilsinglright" horiz-adv-x="747" unicode="›"/><glyph d="M-362 0l874 1587h172l-877 -1587h-169z" glyph-name="fraction" horiz-adv-x="321" unicode="⁄"/><glyph d="M1372 340l119 -197q-174 -166 -473 -166q-295 0 -470 160t-231 422h-204v133h186q-4 66 -4 99q0 47 2 69h-184v141h200q49 270 225.5 441.5t477.5 171.5q252 0 420 -125l-88 -207q-156 117 -334 117t-292 -107.5t-155 -290.5h658l-58 -141h-622q-2 -25 -2 -76 q0 -31 4 -92h547l-58 -133h-467q43 -170 157 -267t296 -97q211 0 350 145z" glyph-name="Euro" horiz-adv-x="1583" unicode="€"/><glyph d="M94 1470v117h547v-117h-209v-571h-129v571h-209zM1276 1587h205v-688h-123v604l-184 -604h-119l-185 598v-598h-127v688h209l162 -555z" glyph-name="trademark" horiz-adv-x="1710" unicode="™"/><glyph d="M618 160l-546 418l546 419v-319h1258v-201h-1258v-317z" glyph-name="arrowleft" horiz-adv-x="1990" unicode="←"/><glyph d="M373 -303v1257h-320l418 545l420 -545h-320v-1257h-198z" glyph-name="arrowup" horiz-adv-x="942" unicode="↑"/><glyph d="M1374 160v317h-1257v201h1257v319l545 -419z" glyph-name="arrowright" horiz-adv-x="1996" unicode="→"/><glyph d="M471 -315l-418 546h320v1258h198v-1258h320z" glyph-name="arrowdown" horiz-adv-x="942" unicode="↓"/><glyph d="M1317 -117l-891 889l-225 -225l-90 682l682 -90l-226 -226l889 -888z" glyph-name="uni2196" horiz-adv-x="1513" unicode="↖"/><glyph d="M197 -117l-142 142l891 888l-227 226l684 90l-90 -682l-228 225z" glyph-name="uni2197" horiz-adv-x="1513" unicode="↗"/><glyph d="M1403 -186l-682 90l225 225l-889 889l140 141l890 -889l226 226z" glyph-name="uni2198" horiz-adv-x="1513" unicode="↘"/><glyph d="M111 -186l90 682l225 -226l891 889l139 -141l-889 -889l226 -225z" glyph-name="uni2199" horiz-adv-x="1513" unicode="↙"/><glyph d="M614 -14q-236 0 -370.5 142t-134.5 376q0 283 182 477.5t440 194.5q221 0 313 -170h11q-8 188 -98.5 299.5t-241.5 111.5q-158 0 -238 -135l-151 111q123 213 399 213q274 0 409.5 -205t135.5 -541q0 -391 -172.5 -632.5t-483.5 -241.5zM614 195q182 0 296 144t114 345 q0 147 -67.5 226t-196.5 79q-186 0 -304 -150.5t-118 -338.5q0 -141 71.5 -223t204.5 -82z" glyph-name="partialdiff" horiz-adv-x="1409" unicode="∂"/><glyph d="M260 0v1384h-151v203h1259v-203h-156v-1384h-202v1384h-547v-1384h-203z" glyph-name="product" horiz-adv-x="1474" unicode="∏"/><glyph d="M88 0v102l643 693l-643 690v102h1188v-203h-825l569 -589l-569 -592h825v-203h-1188z" glyph-name="summation" horiz-adv-x="1382" unicode="∑"/><glyph d="M221 489v199h1014v-199h-1014z" glyph-name="minus" horiz-adv-x="1458" unicode="−"/><glyph d="M1120 1587h219l-700 -1761h-117l-278 795h-174v202h321l195 -628z" glyph-name="radical" horiz-adv-x="1400" unicode="√"/><glyph d="M498 229q-150 0 -248 100.5t-98 260.5q0 158 98 258t248 100q205 0 417 -225q213 225 420 225q150 0 248 -100t98 -258q0 -160 -98 -260.5t-248 -100.5q-207 0 -420 226q-212 -226 -417 -226zM510 410q121 0 285 180q-166 178 -285 178q-76 0 -126 -47t-50 -131t50 -132 t126 -48zM1323 410q76 0 126 48t50 132t-50 131t-126 47q-117 0 -285 -178q168 -180 285 -180z" glyph-name="infinity" horiz-adv-x="1832" unicode="∞"/><glyph d="M57 -514v203q195 0 277 73.5t82 251.5v1270q0 150 94 246t231 96q135 0 244 -92l-96 -160q-59 53 -131 53q-59 0 -99.5 -42t-40.5 -121v-1256q0 -252 -150.5 -387t-410.5 -135z" glyph-name="integral" horiz-adv-x="1034" unicode="∫"/><glyph d="M823 713q-63 0 -120.5 28.5t-93.5 62.5t-83 62.5t-92 28.5q-109 0 -104 -156h-180q0 160 67.5 253t194.5 93q72 0 132 -27.5t94 -61t79 -61.5t88 -28q113 0 113 172h186q0 -174 -74 -270t-207 -96zM823 84q-63 0 -120.5 28.5t-93.5 63.5t-83 63.5t-92 28.5 q-109 0 -104 -155h-180q0 160 67.5 252t194.5 92q72 0 132 -28t94 -61.5t79 -61t88 -27.5q113 0 113 174h186q0 -176 -74 -272.5t-207 -96.5z" glyph-name="approxequal" horiz-adv-x="1273" unicode="≈"/><glyph d="M1169 713h-346l-137 -248h483v-199h-591l-146 -266h-182l145 266h-239v199h350l135 248h-485v198h596l145 267h180l-145 -267h237v-198z" glyph-name="notequal" horiz-adv-x="1323" unicode="≠"/><glyph d="M1040 285l-915 467v206l915 469v-239l-665 -332l665 -330v-241zM125 0v201h903v-201h-903z" glyph-name="lessequal" horiz-adv-x="1200" unicode="≤"/><glyph d="M162 285v241l663 330l-663 332v239l915 -469v-206zM172 0v201h905v-201h-905z" glyph-name="greaterequal" horiz-adv-x="1200" unicode="≥"/><glyph d="M502 0l-428 805l428 807h213l424 -807l-424 -805h-213zM608 225l291 580l-291 581l-293 -581z" glyph-name="lozenge" horiz-adv-x="1214" unicode="◊"/><glyph d="M983 -70q-360 0 -615 255t-255 615.5t255 615.5t615 255t615 -255t255 -615.5t-255 -615.5t-615 -255zM983 12q328 0 558.5 230.5t230.5 558t-230.5 558t-558.5 230.5t-559 -230.5t-231 -558t231 -558t559 -230.5zM528 461q-16 0 -27.5 11t-11.5 28v602q0 16 11.5 28.5 t27.5 12.5q18 0 30.5 -12.5t12.5 -28.5v-602q0 -39 -43 -39zM983 461q-39 0 -39 39v602q0 16 11.5 28.5t27.5 12.5t27.5 -12.5t11.5 -28.5v-602q0 -39 -39 -39zM1433.5 461q-16.5 0 -24.5 10l-305 303q-10 14 -10 27q0 16 10 26l305 303q8 12 24.5 12.5t29 -12t12.5 -29 t-11 -26.5l-274 -274l274 -275q10 -10 11 -26q0 -14 -12.5 -26.5t-29 -12.5zM682 762q-39 0 -39 39t39 39h149q16 0 28.5 -11.5t12.5 -28t-12 -27.5t-29 -11h-149z" glyph-name="uniF8FF" horiz-adv-x="1964" unicode=""/><glyph d="M502 1700l198 297h226l-252 -297h-172zM31 0v215h174q133 0 195.5 62.5t62.5 218.5v1091h252v-1118q0 -242 -120 -355.5t-353 -113.5h-211z" glyph-name="J.aalt" horiz-adv-x="880"/><glyph d="M141 1350v237h258v-237h-258zM152 0v1178h237v-1178h-237z" glyph-name="i.aalt" horiz-adv-x="542"/><glyph d="M186 1290l199 297h225l-252 -297h-172zM-115 -410v177h113q78 0 117 46t39 124v1241h237v-1254q0 -154 -91 -244t-261 -90h-154z" glyph-name="j.aalt" horiz-adv-x="544"/><glyph d="M555 -25q-233 0 -358 169t-125 446q0 274 125 443t356 169q221 0 354 -162h8v138h240v-1178h-235v137h-9q-127 -162 -356 -162zM629 176q141 0 222 110.5t81 305.5q0 186 -82 294.5t-221 108.5q-156 0 -236 -105.5t-80 -297.5q0 -201 80 -308.5t236 -107.5z" glyph-name="a.salt" horiz-adv-x="1306"/><glyph d="M567 1290l199 297h225l-252 -297h-172zM555 -25q-233 0 -358 169t-125 446q0 274 125 443t356 169q221 0 354 -162h8v138h240v-1178h-235v137h-9q-127 -162 -356 -162zM629 176q141 0 222 110.5t81 305.5q0 186 -82 294.5t-221 108.5q-156 0 -236 -105.5t-80 -297.5 q0 -201 80 -308.5t236 -107.5z" glyph-name="aacute.salt" horiz-adv-x="1306"/><glyph d="M651 1298q-131 0 -212 73t-81 216h148q0 -88 40 -131t105.5 -43t105.5 44t40 130h151q0 -143 -82 -216t-215 -73zM555 -25q-233 0 -358 169t-125 446q0 274 125 443t356 169q221 0 354 -162h8v138h240v-1178h-235v137h-9q-127 -162 -356 -162zM629 176q141 0 222 110.5 t81 305.5q0 186 -82 294.5t-221 108.5q-156 0 -236 -105.5t-80 -297.5q0 -201 80 -308.5t236 -107.5z" glyph-name="abreve.salt" horiz-adv-x="1306"/><glyph d="M565 1700l201 297h225l-252 -297h-174zM651 1298q-131 0 -212 73t-81 216h148q0 -88 40 -131t105.5 -43t105.5 44t40 130h151q0 -143 -82 -216t-215 -73zM555 -25q-233 0 -358 169t-125 446q0 274 125 443t356 169q221 0 354 -162h8v138h240v-1178h-235v137h-9 q-127 -162 -356 -162zM629 176q141 0 222 110.5t81 305.5q0 186 -82 294.5t-221 108.5q-156 0 -236 -105.5t-80 -297.5q0 -201 80 -308.5t236 -107.5z" glyph-name="uni1EAF.salt" horiz-adv-x="1306"/><glyph d="M651 1298q-131 0 -212 73t-81 216h148q0 -88 40 -131t105.5 -43t105.5 44t40 130h151q0 -143 -82 -216t-215 -73zM555 -25q-233 0 -358 169t-125 446q0 274 125 443t356 169q221 0 354 -162h8v138h240v-1178h-235v137h-9q-127 -162 -356 -162zM629 176q141 0 222 110.5 t81 305.5q0 186 -82 294.5t-221 108.5q-156 0 -236 -105.5t-80 -297.5q0 -201 80 -308.5t236 -107.5zM539 -410v220h229v-220h-229z" glyph-name="uni1EB7.salt" horiz-adv-x="1306"/><glyph d="M565 1700l-252 297h226l200 -297h-174zM651 1298q-131 0 -212 73t-81 216h148q0 -88 40 -131t105.5 -43t105.5 44t40 130h151q0 -143 -82 -216t-215 -73zM555 -25q-233 0 -358 169t-125 446q0 274 125 443t356 169q221 0 354 -162h8v138h240v-1178h-235v137h-9 q-127 -162 -356 -162zM629 176q141 0 222 110.5t81 305.5q0 186 -82 294.5t-221 108.5q-156 0 -236 -105.5t-80 -297.5q0 -201 80 -308.5t236 -107.5z" glyph-name="uni1EB1.salt" horiz-adv-x="1306"/><glyph d="M586 1681v127q125 16 125 99q0 33 -22.5 54t-61.5 21q-49 0 -95 -36l-57 92q78 47 168 47q96 0 154.5 -48t58.5 -124q0 -119 -135 -158v-74h-135zM651 1298q-131 0 -212 73t-81 216h148q0 -88 40 -131t105.5 -43t105.5 44t40 130h151q0 -143 -82 -216t-215 -73zM555 -25 q-233 0 -358 169t-125 446q0 274 125 443t356 169q221 0 354 -162h8v138h240v-1178h-235v137h-9q-127 -162 -356 -162zM629 176q141 0 222 110.5t81 305.5q0 186 -82 294.5t-221 108.5q-156 0 -236 -105.5t-80 -297.5q0 -201 80 -308.5t236 -107.5z" glyph-name="uni1EB3.salt" horiz-adv-x="1306"/><glyph d="M797 1733q-68 0 -115 34.5t-84 68.5t-78 34q-70 0 -69 -123h-121q0 252 174 252q72 0 120 -35t83.5 -68.5t76.5 -33.5q74 0 74 135h117q0 -264 -178 -264zM651 1298q-131 0 -212 73t-81 216h148q0 -88 40 -131t105.5 -43t105.5 44t40 130h151q0 -143 -82 -216t-215 -73z M555 -25q-233 0 -358 169t-125 446q0 274 125 443t356 169q221 0 354 -162h8v138h240v-1178h-235v137h-9q-127 -162 -356 -162zM629 176q141 0 222 110.5t81 305.5q0 186 -82 294.5t-221 108.5q-156 0 -236 -105.5t-80 -297.5q0 -201 80 -308.5t236 -107.5z" glyph-name="uni1EB5.salt" horiz-adv-x="1306"/><glyph d="M750 1290h-195l-195 297h191l102 -168l101 168h190zM915 1178h240v-1178h-235v137h-9q-127 -162 -356 -162q-233 0 -358 169t-125 446q0 274 125 443t356 169q221 0 354 -162h8v138zM629 176q141 0 222 110.5t81 305.5q0 186 -82 294.5t-221 108.5q-156 0 -236 -105.5 t-80 -297.5q0 -201 80 -308.5t236 -107.5z" glyph-name="uni01CE.salt" horiz-adv-x="1306"/><glyph d="M653 1460l-102 -170h-191l195 297h195l194 -297h-188zM915 1178h240v-1178h-235v137h-9q-127 -162 -356 -162q-233 0 -358 169t-125 446q0 274 125 443t356 169q221 0 354 -162h8v138zM629 176q141 0 222 110.5t81 305.5q0 186 -82 294.5t-221 108.5q-156 0 -236 -105.5 t-80 -297.5q0 -201 80 -308.5t236 -107.5z" glyph-name="acircumflex.salt" horiz-adv-x="1306"/><glyph d="M991 1997l-252 -297h-172l199 297h225zM653 1460l-102 -170h-191l195 297h195l194 -297h-188zM915 1178h240v-1178h-235v137h-9q-127 -162 -356 -162q-233 0 -358 169t-125 446q0 274 125 443t356 169q221 0 354 -162h8v138zM629 176q141 0 222 110.5t81 305.5 q0 186 -82 294.5t-221 108.5q-156 0 -236 -105.5t-80 -297.5q0 -201 80 -308.5t236 -107.5z" glyph-name="uni1EA5.salt" horiz-adv-x="1306"/><glyph d="M653 1460l-102 -170h-191l195 297h195l194 -297h-188zM915 1178h240v-1178h-235v137h-9q-127 -162 -356 -162q-233 0 -358 169t-125 446q0 274 125 443t356 169q221 0 354 -162h8v138zM629 176q141 0 222 110.5t81 305.5q0 186 -82 294.5t-221 108.5q-156 0 -236 -105.5 t-80 -297.5q0 -201 80 -308.5t236 -107.5zM539 -410v220h229v-220h-229z" glyph-name="uni1EAD.salt" horiz-adv-x="1306"/><glyph d="M739 1700h-172l-254 297h226zM360 1290l195 297h195l194 -297h-188l-103 170l-102 -170h-191zM915 1178h240v-1178h-235v137h-9q-127 -162 -356 -162q-233 0 -358 169t-125 446q0 274 125 443t356 169q221 0 354 -162h8v138zM629 176q141 0 222 110.5t81 305.5 q0 186 -82 294.5t-221 108.5q-156 0 -236 -105.5t-80 -297.5q0 -201 80 -308.5t236 -107.5z" glyph-name="uni1EA7.salt" horiz-adv-x="1306"/><glyph d="M629 1982q-51 0 -97 -36l-57 92q78 47 168 47q96 0 154.5 -48t58.5 -124q0 -121 -135 -158v-74h-135v127q125 16 125 99q0 33 -21.5 54t-60.5 21zM653 1460l-102 -170h-191l195 297h195l194 -297h-188zM915 1178h240v-1178h-235v137h-9q-127 -162 -356 -162 q-233 0 -358 169t-125 446q0 274 125 443t356 169q221 0 354 -162h8v138zM629 176q141 0 222 110.5t81 305.5q0 186 -82 294.5t-221 108.5q-156 0 -236 -105.5t-80 -297.5q0 -201 80 -308.5t236 -107.5z" glyph-name="uni1EA9.salt" horiz-adv-x="1306"/><glyph d="M520 1870q-72 0 -67 -123h-121q0 252 172 252q72 0 120 -35t83.5 -68.5t76.5 -33.5q74 0 74 135h117q0 -264 -178 -264q-53 0 -94 21.5t-64 47t-53.5 47t-65.5 21.5zM555 1587h195l194 -297h-188l-103 170l-102 -170h-191zM915 1178h240v-1178h-235v137h-9 q-127 -162 -356 -162q-233 0 -358 169t-125 446q0 274 125 443t356 169q221 0 354 -162h8v138zM629 176q141 0 222 110.5t81 305.5q0 186 -82 294.5t-221 108.5q-156 0 -236 -105.5t-80 -297.5q0 -201 80 -308.5t236 -107.5z" glyph-name="uni1EAB.salt" horiz-adv-x="1306"/><glyph d="M381 1350v237h221v-237h-221zM707 1350v237h221v-237h-221zM555 -25q-233 0 -358 169t-125 446q0 274 125 443t356 169q221 0 354 -162h8v138h240v-1178h-235v137h-9q-127 -162 -356 -162zM629 176q141 0 222 110.5t81 305.5q0 186 -82 294.5t-221 108.5 q-156 0 -236 -105.5t-80 -297.5q0 -201 80 -308.5t236 -107.5z" glyph-name="adieresis.salt" horiz-adv-x="1306"/><glyph d="M555 -25q-233 0 -358 169t-125 446q0 274 125 443t356 169q221 0 354 -162h8v138h240v-1178h-235v137h-9q-127 -162 -356 -162zM629 176q141 0 222 110.5t81 305.5q0 186 -82 294.5t-221 108.5q-156 0 -236 -105.5t-80 -297.5q0 -201 80 -308.5t236 -107.5zM539 -410v220 h229v-220h-229z" glyph-name="uni1EA1.salt" horiz-adv-x="1306"/><glyph d="M567 1290l-254 297h226l200 -297h-172zM555 -25q-233 0 -358 169t-125 446q0 274 125 443t356 169q221 0 354 -162h8v138h240v-1178h-235v137h-9q-127 -162 -356 -162zM629 176q141 0 222 110.5t81 305.5q0 186 -82 294.5t-221 108.5q-156 0 -236 -105.5t-80 -297.5 q0 -201 80 -308.5t236 -107.5z" glyph-name="agrave.salt" horiz-adv-x="1306"/><glyph d="M586 1272v127q125 16 125 98q0 33 -22.5 54.5t-61.5 21.5q-49 0 -95 -37l-57 92q78 47 168 47q96 0 154.5 -48t58.5 -124q0 -119 -135 -157v-74h-135zM555 -25q-233 0 -358 169t-125 446q0 274 125 443t356 169q221 0 354 -162h8v138h240v-1178h-235v137h-9 q-127 -162 -356 -162zM629 176q141 0 222 110.5t81 305.5q0 186 -82 294.5t-221 108.5q-156 0 -236 -105.5t-80 -297.5q0 -201 80 -308.5t236 -107.5z" glyph-name="uni1EA3.salt" horiz-adv-x="1306"/><glyph d="M330 1311v141h649v-141h-649zM555 -25q-233 0 -358 169t-125 446q0 274 125 443t356 169q221 0 354 -162h8v138h240v-1178h-235v137h-9q-127 -162 -356 -162zM629 176q141 0 222 110.5t81 305.5q0 186 -82 294.5t-221 108.5q-156 0 -236 -105.5t-80 -297.5 q0 -201 80 -308.5t236 -107.5z" glyph-name="amacron.salt" horiz-adv-x="1306"/><glyph d="M1155 0q-102 -70 -146 -124t-44 -132q0 -39 22.5 -60.5t56.5 -21.5q63 0 111 47v-147q-61 -23 -123 -23q-100 0 -154.5 49.5t-54.5 132.5q0 162 205 279h-108v137h-9q-127 -162 -356 -162q-233 0 -358 169t-125 446q0 274 125 443t356 169q221 0 354 -162h8v138h240 v-1178zM629 176q141 0 222 110.5t81 305.5q0 186 -82 294.5t-221 108.5q-156 0 -236 -105.5t-80 -297.5q0 -201 80 -308.5t236 -107.5z" glyph-name="aogonek.salt" horiz-adv-x="1306"/><glyph d="M653 1251q-88 0 -148.5 61.5t-60.5 149.5q0 86 61.5 146.5t147.5 60.5t147.5 -60.5t61.5 -146.5q0 -88 -60.5 -149.5t-148.5 -61.5zM653 1368q39 0 67 26.5t28 65.5t-28 66.5t-67 27.5q-41 0 -66.5 -25.5t-25.5 -68.5q0 -41 25.5 -66.5t66.5 -25.5zM555 -25 q-233 0 -358 169t-125 446q0 274 125 443t356 169q221 0 354 -162h8v138h240v-1178h-235v137h-9q-127 -162 -356 -162zM629 176q141 0 222 110.5t81 305.5q0 186 -82 294.5t-221 108.5q-156 0 -236 -105.5t-80 -297.5q0 -201 80 -308.5t236 -107.5z" glyph-name="aring.salt" horiz-adv-x="1306"/><glyph d="M653 1251q-88 0 -148.5 61.5t-60.5 149.5q0 86 61.5 146.5t147.5 60.5q33 0 68 -10l129 190h225l-239 -282q27 -49 26 -105q0 -88 -60.5 -149.5t-148.5 -61.5zM653 1554q-41 0 -66.5 -25.5t-25.5 -68.5q0 -41 25.5 -66.5t66.5 -25.5q39 0 67 26.5t28 65.5 q0 35 -20.5 60.5t-53.5 31.5h-23zM915 1178h240v-1178h-235v137h-9q-127 -162 -356 -162q-233 0 -358 169t-125 446q0 274 125 443t356 169q221 0 354 -162h8v138zM629 176q141 0 222 110.5t81 305.5q0 186 -82 294.5t-221 108.5q-156 0 -236 -105.5t-80 -297.5 q0 -201 80 -308.5t236 -107.5z" glyph-name="aringacute.salt" horiz-adv-x="1306"/><glyph d="M797 1323q-53 0 -94 21.5t-64 47t-53.5 47t-63.5 21.5q-74 0 -69 -123h-121q0 252 174 252q72 0 119 -34.5t83.5 -68.5t77.5 -34q72 0 72 135h119q0 -264 -180 -264zM555 -25q-233 0 -358 169t-125 446q0 274 125 443t356 169q221 0 354 -162h8v138h240v-1178h-235v137 h-9q-127 -162 -356 -162zM629 176q141 0 222 110.5t81 305.5q0 186 -82 294.5t-221 108.5q-156 0 -236 -105.5t-80 -297.5q0 -201 80 -308.5t236 -107.5z" glyph-name="atilde.salt" horiz-adv-x="1306"/><glyph d="M600 1202q209 0 333 -98t124 -301v-803h-236v127h-14q-174 -152 -375 -152q-164 0 -259 88.5t-95 243.5q0 158 99 245t290 142l354 105v16q0 207 -239 207q-279 0 -279 -229h-215q0 115 45 197.5t122 126.5t162 64.5t183 20.5zM494 156q166 0 327 178v284l-311 -100 q-195 -61 -195 -199q0 -74 46.5 -118.5t132.5 -44.5z" glyph-name="a.ss02" horiz-adv-x="1183"/><glyph d="M930 1587l-252 -297h-172l199 297h225zM600 1202q209 0 333 -98t124 -301v-803h-236v127h-14q-174 -152 -375 -152q-164 0 -259 88.5t-95 243.5q0 158 99 245t290 142l354 105v16q0 207 -239 207q-279 0 -279 -229h-215q0 115 45 197.5t122 126.5t162 64.5t183 20.5z M494 156q166 0 327 178v284l-311 -100q-195 -61 -195 -199q0 -74 46.5 -118.5t132.5 -44.5z" glyph-name="aacute.ss02" horiz-adv-x="1183"/><glyph d="M590 1298q-131 0 -212 73t-81 216h147q0 -88 40 -131t105.5 -43t105.5 44t40 130h152q0 -143 -82 -216t-215 -73zM600 1202q209 0 333 -98t124 -301v-803h-236v127h-14q-174 -152 -375 -152q-164 0 -259 88.5t-95 243.5q0 158 99 245t290 142l354 105v16q0 207 -239 207 q-279 0 -279 -229h-215q0 115 45 197.5t122 126.5t162 64.5t183 20.5zM494 156q166 0 327 178v284l-311 -100q-195 -61 -195 -199q0 -74 46.5 -118.5t132.5 -44.5z" glyph-name="abreve.ss02" horiz-adv-x="1183"/><glyph d="M930 1997l-252 -297h-174l201 297h225zM590 1298q-131 0 -212 73t-81 216h147q0 -88 40 -131t105.5 -43t105.5 44t40 130h152q0 -143 -82 -216t-215 -73zM600 1202q209 0 333 -98t124 -301v-803h-236v127h-14q-174 -152 -375 -152q-164 0 -259 88.5t-95 243.5 q0 158 99 245t290 142l354 105v16q0 207 -239 207q-279 0 -279 -229h-215q0 115 45 197.5t122 126.5t162 64.5t183 20.5zM494 156q166 0 327 178v284l-311 -100q-195 -61 -195 -199q0 -74 46.5 -118.5t132.5 -44.5z" glyph-name="uni1EAF.ss02" horiz-adv-x="1183"/><glyph d="M590 1298q-131 0 -212 73t-81 216h147q0 -88 40 -131t105.5 -43t105.5 44t40 130h152q0 -143 -82 -216t-215 -73zM600 1202q209 0 333 -98t124 -301v-803h-236v127h-14q-174 -152 -375 -152q-164 0 -259 88.5t-95 243.5q0 158 99 245t290 142l354 105v16q0 207 -239 207 q-279 0 -279 -229h-215q0 115 45 197.5t122 126.5t162 64.5t183 20.5zM494 156q166 0 327 178v284l-311 -100q-195 -61 -195 -199q0 -74 46.5 -118.5t132.5 -44.5zM477 -410v220h230v-220h-230z" glyph-name="uni1EB7.ss02" horiz-adv-x="1183"/><glyph d="M678 1700h-174l-252 297h225zM444 1587q0 -88 40 -131t105.5 -43t105.5 44t40 130h152q0 -143 -82 -216t-215 -73q-131 0 -212 73t-81 216h147zM600 1202q209 0 333 -98t124 -301v-803h-236v127h-14q-174 -152 -375 -152q-164 0 -259 88.5t-95 243.5q0 158 99 245 t290 142l354 105v16q0 207 -239 207q-279 0 -279 -229h-215q0 115 45 197.5t122 126.5t162 64.5t183 20.5zM494 156q166 0 327 178v284l-311 -100q-195 -61 -195 -199q0 -74 46.5 -118.5t132.5 -44.5z" glyph-name="uni1EB1.ss02" horiz-adv-x="1183"/><glyph d="M565 1982q-49 0 -94 -36l-57 92q78 47 168 47q96 0 154.5 -48t58.5 -124q0 -119 -136 -158v-74h-135v127q125 16 125 99q0 33 -22.5 54t-61.5 21zM590 1298q-131 0 -212 73t-81 216h147q0 -88 40 -131t105.5 -43t105.5 44t40 130h152q0 -143 -82 -216t-215 -73zM600 1202 q209 0 333 -98t124 -301v-803h-236v127h-14q-174 -152 -375 -152q-164 0 -259 88.5t-95 243.5q0 158 99 245t290 142l354 105v16q0 207 -239 207q-279 0 -279 -229h-215q0 115 45 197.5t122 126.5t162 64.5t183 20.5zM494 156q166 0 327 178v284l-311 -100 q-195 -61 -195 -199q0 -74 46.5 -118.5t132.5 -44.5z" glyph-name="uni1EB3.ss02" horiz-adv-x="1183"/><glyph d="M459 1870q-70 0 -70 -123h-121q0 252 174 252q72 0 120 -35t84 -68.5t77 -33.5q74 0 74 135h116q0 -264 -178 -264q-68 0 -115 34.5t-83.5 68.5t-77.5 34zM589.5 1413q65.5 0 105.5 44t40 130h152q0 -143 -82 -216t-215 -73q-131 0 -212 73t-81 216h147q0 -88 40 -131 t105.5 -43zM600 1202q209 0 333 -98t124 -301v-803h-236v127h-14q-174 -152 -375 -152q-164 0 -259 88.5t-95 243.5q0 158 99 245t290 142l354 105v16q0 207 -239 207q-279 0 -279 -229h-215q0 115 45 197.5t122 126.5t162 64.5t183 20.5zM494 156q166 0 327 178v284 l-311 -100q-195 -61 -195 -199q0 -74 46.5 -118.5t132.5 -44.5z" glyph-name="uni1EB5.ss02" horiz-adv-x="1183"/><glyph d="M688 1290h-194l-195 297h190l103 -168l100 168h191zM600 1202q209 0 333 -98t124 -301v-803h-236v127h-14q-174 -152 -375 -152q-164 0 -259 88.5t-95 243.5q0 158 99 245t290 142l354 105v16q0 207 -239 207q-279 0 -279 -229h-215q0 115 45 197.5t122 126.5t162 64.5 t183 20.5zM494 156q166 0 327 178v284l-311 -100q-195 -61 -195 -199q0 -74 46.5 -118.5t132.5 -44.5z" glyph-name="uni01CE.ss02" horiz-adv-x="1183"/><glyph d="M592 1460l-103 -170h-190l195 297h194l195 -297h-189zM600 1202q209 0 333 -98t124 -301v-803h-236v127h-14q-174 -152 -375 -152q-164 0 -259 88.5t-95 243.5q0 158 99 245t290 142l354 105v16q0 207 -239 207q-279 0 -279 -229h-215q0 115 45 197.5t122 126.5t162 64.5 t183 20.5zM494 156q166 0 327 178v284l-311 -100q-195 -61 -195 -199q0 -74 46.5 -118.5t132.5 -44.5z" glyph-name="acircumflex.ss02" horiz-adv-x="1183"/><glyph d="M930 1997l-252 -297h-172l199 297h225zM592 1460l-103 -170h-190l195 297h194l195 -297h-189zM600 1202q209 0 333 -98t124 -301v-803h-236v127h-14q-174 -152 -375 -152q-164 0 -259 88.5t-95 243.5q0 158 99 245t290 142l354 105v16q0 207 -239 207q-279 0 -279 -229 h-215q0 115 45 197.5t122 126.5t162 64.5t183 20.5zM494 156q166 0 327 178v284l-311 -100q-195 -61 -195 -199q0 -74 46.5 -118.5t132.5 -44.5z" glyph-name="uni1EA5.ss02" horiz-adv-x="1183"/><glyph d="M592 1460l-103 -170h-190l195 297h194l195 -297h-189zM600 1202q209 0 333 -98t124 -301v-803h-236v127h-14q-174 -152 -375 -152q-164 0 -259 88.5t-95 243.5q0 158 99 245t290 142l354 105v16q0 207 -239 207q-279 0 -279 -229h-215q0 115 45 197.5t122 126.5t162 64.5 t183 20.5zM494 156q166 0 327 178v284l-311 -100q-195 -61 -195 -199q0 -74 46.5 -118.5t132.5 -44.5zM477 -410v220h230v-220h-230z" glyph-name="uni1EAD.ss02" horiz-adv-x="1183"/><glyph d="M678 1700h-172l-254 297h225zM299 1290l195 297h194l195 -297h-189l-102 170l-103 -170h-190zM600 1202q209 0 333 -98t124 -301v-803h-236v127h-14q-174 -152 -375 -152q-164 0 -259 88.5t-95 243.5q0 158 99 245t290 142l354 105v16q0 207 -239 207q-279 0 -279 -229 h-215q0 115 45 197.5t122 126.5t162 64.5t183 20.5zM494 156q166 0 327 178v284l-311 -100q-195 -61 -195 -199q0 -74 46.5 -118.5t132.5 -44.5z" glyph-name="uni1EA7.ss02" horiz-adv-x="1183"/><glyph d="M567 1982q-51 0 -96 -36l-57 92q78 47 168 47q96 0 154.5 -48t58.5 -124q0 -121 -136 -158v-74h-135v127q125 16 125 99q0 33 -21.5 54t-60.5 21zM592 1460l-103 -170h-190l195 297h194l195 -297h-189zM600 1202q209 0 333 -98t124 -301v-803h-236v127h-14 q-174 -152 -375 -152q-164 0 -259 88.5t-95 243.5q0 158 99 245t290 142l354 105v16q0 207 -239 207q-279 0 -279 -229h-215q0 115 45 197.5t122 126.5t162 64.5t183 20.5zM494 156q166 0 327 178v284l-311 -100q-195 -61 -195 -199q0 -74 46.5 -118.5t132.5 -44.5z" glyph-name="uni1EA9.ss02" horiz-adv-x="1183"/><glyph d="M459 1870q-72 0 -68 -123h-121q0 252 172 252q72 0 120 -35t84 -68.5t77 -33.5q74 0 74 135h116q0 -264 -178 -264q-53 0 -94 21.5t-63.5 47t-53 47t-65.5 21.5zM494 1587h194l195 -297h-189l-102 170l-103 -170h-190zM600 1202q209 0 333 -98t124 -301v-803h-236v127 h-14q-174 -152 -375 -152q-164 0 -259 88.5t-95 243.5q0 158 99 245t290 142l354 105v16q0 207 -239 207q-279 0 -279 -229h-215q0 115 45 197.5t122 126.5t162 64.5t183 20.5zM494 156q166 0 327 178v284l-311 -100q-195 -61 -195 -199q0 -74 46.5 -118.5t132.5 -44.5z" glyph-name="uni1EAB.ss02" horiz-adv-x="1183"/><glyph d="M539 1587v-237h-222v237h222zM864 1587v-237h-221v237h221zM600 1202q209 0 333 -98t124 -301v-803h-236v127h-14q-174 -152 -375 -152q-164 0 -259 88.5t-95 243.5q0 158 99 245t290 142l354 105v16q0 207 -239 207q-279 0 -279 -229h-215q0 115 45 197.5t122 126.5 t162 64.5t183 20.5zM494 156q166 0 327 178v284l-311 -100q-195 -61 -195 -199q0 -74 46.5 -118.5t132.5 -44.5z" glyph-name="adieresis.ss02" horiz-adv-x="1183"/><glyph d="M600 1202q209 0 333 -98t124 -301v-803h-236v127h-14q-174 -152 -375 -152q-164 0 -259 88.5t-95 243.5q0 158 99 245t290 142l354 105v16q0 207 -239 207q-279 0 -279 -229h-215q0 115 45 197.5t122 126.5t162 64.5t183 20.5zM494 156q166 0 327 178v284l-311 -100 q-195 -61 -195 -199q0 -74 46.5 -118.5t132.5 -44.5zM477 -410v220h230v-220h-230z" glyph-name="uni1EA1.ss02" horiz-adv-x="1183"/><glyph d="M678 1290h-172l-254 297h225zM600 1202q209 0 333 -98t124 -301v-803h-236v127h-14q-174 -152 -375 -152q-164 0 -259 88.5t-95 243.5q0 158 99 245t290 142l354 105v16q0 207 -239 207q-279 0 -279 -229h-215q0 115 45 197.5t122 126.5t162 64.5t183 20.5zM494 156 q166 0 327 178v284l-311 -100q-195 -61 -195 -199q0 -74 46.5 -118.5t132.5 -44.5z" glyph-name="agrave.ss02" horiz-adv-x="1183"/><glyph d="M565 1573q-49 0 -94 -37l-57 92q78 47 168 47q96 0 154.5 -48t58.5 -124q0 -119 -136 -157v-74h-135v127q125 16 125 98q0 33 -22.5 54.5t-61.5 21.5zM600 1202q209 0 333 -98t124 -301v-803h-236v127h-14q-174 -152 -375 -152q-164 0 -259 88.5t-95 243.5q0 158 99 245 t290 142l354 105v16q0 207 -239 207q-279 0 -279 -229h-215q0 115 45 197.5t122 126.5t162 64.5t183 20.5zM494 156q166 0 327 178v284l-311 -100q-195 -61 -195 -199q0 -74 46.5 -118.5t132.5 -44.5z" glyph-name="uni1EA3.ss02" horiz-adv-x="1183"/><glyph d="M915 1452v-141h-649v141h649zM600 1202q209 0 333 -98t124 -301v-803h-236v127h-14q-174 -152 -375 -152q-164 0 -259 88.5t-95 243.5q0 158 99 245t290 142l354 105v16q0 207 -239 207q-279 0 -279 -229h-215q0 115 45 197.5t122 126.5t162 64.5t183 20.5zM494 156 q166 0 327 178v284l-311 -100q-195 -61 -195 -199q0 -74 46.5 -118.5t132.5 -44.5z" glyph-name="amacron.ss02" horiz-adv-x="1183"/><glyph d="M1057 0q-102 -70 -146.5 -124t-44.5 -132q0 -39 22.5 -60.5t57.5 -21.5q63 0 111 47v-147q-61 -23 -123 -23q-100 0 -154.5 49.5t-54.5 132.5q0 162 205 279h-109v127h-14q-174 -152 -375 -152q-164 0 -259 88.5t-95 243.5q0 158 99 245t290 142l354 105v16 q0 207 -239 207q-279 0 -279 -229h-215q0 115 45 197.5t122 126.5t162 64.5t183 20.5q209 0 333 -98t124 -301v-803zM494 156q166 0 327 178v284l-311 -100q-195 -61 -195 -199q0 -74 46.5 -118.5t132.5 -44.5z" glyph-name="aogonek.ss02" horiz-adv-x="1183"/><glyph d="M592 1251q-88 0 -148.5 61.5t-60.5 149.5q0 86 61.5 146.5t147.5 60.5t147.5 -60.5t61.5 -146.5q0 -88 -60.5 -149.5t-148.5 -61.5zM592 1554q-41 0 -66.5 -25.5t-25.5 -68.5q0 -41 25.5 -66.5t66.5 -25.5q39 0 66.5 26.5t27.5 65.5t-27.5 66.5t-66.5 27.5zM600 1202 q209 0 333 -98t124 -301v-803h-236v127h-14q-174 -152 -375 -152q-164 0 -259 88.5t-95 243.5q0 158 99 245t290 142l354 105v16q0 207 -239 207q-279 0 -279 -229h-215q0 115 45 197.5t122 126.5t162 64.5t183 20.5zM494 156q166 0 327 178v284l-311 -100 q-195 -61 -195 -199q0 -74 46.5 -118.5t132.5 -44.5z" glyph-name="aring.ss02" horiz-adv-x="1183"/><glyph d="M592 1251q-88 0 -148.5 61.5t-60.5 149.5q0 86 61.5 146.5t147.5 60.5q33 0 67 -10l129 190h226l-240 -282q27 -49 27 -105q0 -88 -60.5 -149.5t-148.5 -61.5zM592 1554q-41 0 -66.5 -25.5t-25.5 -68.5q0 -41 25.5 -66.5t66.5 -25.5q39 0 66.5 26.5t27.5 65.5 q0 35 -20.5 60.5t-53.5 31.5h-22zM600 1202q209 0 333 -98t124 -301v-803h-236v127h-14q-174 -152 -375 -152q-164 0 -259 88.5t-95 243.5q0 158 99 245t290 142l354 105v16q0 207 -239 207q-279 0 -279 -229h-215q0 115 45 197.5t122 126.5t162 64.5t183 20.5zM494 156 q166 0 327 178v284l-311 -100q-195 -61 -195 -199q0 -74 46.5 -118.5t132.5 -44.5z" glyph-name="aringacute.ss02" horiz-adv-x="1183"/><glyph d="M459 1460q-74 0 -70 -123h-121q0 252 174 252q72 0 119 -34.5t84 -68.5t78 -34q72 0 72 135h118q0 -264 -180 -264q-53 0 -94 21.5t-63.5 47t-53 47t-63.5 21.5zM600 1202q209 0 333 -98t124 -301v-803h-236v127h-14q-174 -152 -375 -152q-164 0 -259 88.5t-95 243.5 q0 158 99 245t290 142l354 105v16q0 207 -239 207q-279 0 -279 -229h-215q0 115 45 197.5t122 126.5t162 64.5t183 20.5zM494 156q166 0 327 178v284l-311 -100q-195 -61 -195 -199q0 -74 46.5 -118.5t132.5 -44.5z" glyph-name="atilde.ss02" horiz-adv-x="1183"/><glyph d="M438 0q-156 0 -229.5 81t-73.5 251v1255h240v-1208q0 -109 31.5 -149t119.5 -40h56v-190h-144z" glyph-name="l.aalt" horiz-adv-x="591"/><glyph d="M170 1700l199 297h225l-252 -297h-172zM438 0q-156 0 -229.5 81t-73.5 251v1255h240v-1208q0 -109 31.5 -149t119.5 -40h56v-190h-144z" glyph-name="glyph571" horiz-adv-x="591"/><glyph d="M438 0q-156 0 -229.5 81t-73.5 251v1255h240v-1208q0 -109 31.5 -149t119.5 -40h56v-190h-144zM479 905v111q57 4 97 22.5t61.5 42t33 63.5t13.5 70.5t2 79.5h-184v293h350v-293q0 -174 -81 -273.5t-292 -115.5z" glyph-name="glyph572" horiz-adv-x="591"/><glyph d="M438 0q-156 0 -229.5 81t-73.5 251v1255h240v-1208q0 -109 31.5 -149t119.5 -40h56v-190h-144zM49 -461l129 303h236l-240 -303h-125z" glyph-name="lcommaaccent.aalt" horiz-adv-x="591"/><glyph d="M526 190h56v-190h-144q-156 0 -229.5 81t-73.5 251v237l-123 -88v201l123 92v813h240v-635l205 152v-213l-205 -148v-364q0 -109 31.5 -149t119.5 -40z" glyph-name="lslash.aalt" horiz-adv-x="591"/><glyph d="M2042 1016h-277v-637q0 -109 32 -149t120 -40h125v-190h-211q-158 0 -231.5 81t-73.5 251v684h-400v-1016h-239v1016h-424v-1016h-240v1016h-194v162h194v75q0 154 92.5 244t262.5 90h151v-176h-113q-76 0 -114.5 -45t-38.5 -125v-63h424v75q0 154 92 244t262 90h152 v-176h-113q-76 0 -115 -45t-39 -125v-63h400v409h239v-409h277v-162z" glyph-name="f_f_t.dlig" horiz-adv-x="2103"/><glyph d="M1397 1016h-277v-637q0 -109 32 -149t120 -40h125v-190h-211q-158 0 -231.5 81t-73.5 251v684h-418v-1016h-240v1016h-194v162h194v75q0 154 92.5 244t262.5 90h151v-176h-113q-76 0 -114.5 -45t-38.5 -125v-63h418v409h239v-409h277v-162z" glyph-name="f_t.dlig" horiz-adv-x="1458"/><glyph d="M1364 1016h-277v-637q0 -109 32 -149t120 -40h125v-190h-211q-158 0 -231.5 81t-73.5 251v684h-428v-637q0 -109 31.5 -149t119.5 -40h123v-190h-211q-156 0 -229.5 81t-73.5 251v684h-166v162h166v409h240v-409h428v409h239v-409h277v-162z" glyph-name="t_t.dlig" horiz-adv-x="1396"/><glyph d="M664 -31q-156 0 -269.5 71t-175 192.5t-90.5 261t-29 303.5q0 162 28 301t88 260t172 190.5t263 69.5q143 0 254 -65.5t176.5 -181.5t98 -262t32.5 -318q0 -231 -54 -410.5t-181 -295.5t-313 -116zM657 193q295 0 295 600t-303 600t-303 -596q0 -604 311 -604z" glyph-name="zero.aalt" horiz-adv-x="1312"/><glyph d="M401 0v1337l-366 -198v239l381 209h233v-1587h-248z" glyph-name="one.pnum" horiz-adv-x="831"/><glyph d="M344 213h811v-213h-1061v197q0 129 43 229t112.5 162.5t153.5 112t168 91.5t154 88t113 113.5t43 155.5q0 113 -71 183.5t-183 70.5q-260 0 -267 -383l-249 27q4 264 138 417.5t378 153.5q227 0 364 -133t137 -344q0 -113 -43 -203t-112.5 -150.5t-152.5 -110.5t-167 -93 t-153.5 -87t-112.5 -104.5t-43 -132.5v-47z" glyph-name="two.pnum" horiz-adv-x="1234"/><glyph d="M616.5 -31q-239.5 0 -398.5 126t-159 351l242 25q0 -131 92 -209t225.5 -78t226.5 78t93 207t-87 199.5t-218 70.5h-135v199h127q104 0 168.5 61.5t64.5 168t-75.5 171t-190.5 64.5q-117 0 -191.5 -64.5t-76.5 -171.5l-234 23q4 199 142.5 313.5t355.5 114.5t360.5 -116 t143.5 -314q0 -129 -62.5 -219t-159.5 -115v-10q135 -23 218 -123t88 -268q0 -231 -160 -357.5t-399.5 -126.5z" glyph-name="three.pnum" horiz-adv-x="1251"/><glyph d="M987 592h230v-201h-230v-391h-242v391h-708v193l604 1003h346v-995zM272 592h473v803z" glyph-name="four.aalt" horiz-adv-x="1251"/><glyph d="M688 1051q211 0 348.5 -144.5t137.5 -376.5q0 -244 -154 -402.5t-399 -158.5q-211 0 -356.5 122t-194.5 329l229 69q31 -141 114 -220t205 -79q139 0 219.5 95.5t80.5 240.5q0 152 -85 243t-215 91q-86 0 -160.5 -43t-117.5 -112l-225 71l143 811h844v-213h-668l-78 -442 h9q122 119 323 119z" glyph-name="five.aalt" horiz-adv-x="1253"/><glyph d="M664 -29q-252 0 -406 179.5t-156 543.5q-6 924 594 924q356 0 502 -326l-192 -96q-96 213 -306 213q-104 0 -179 -52t-112.5 -137t-55 -171t-17.5 -177q127 156 360 156q227 0 368.5 -139t141.5 -375q0 -231 -154.5 -387t-387.5 -156zM670 184q133 0 219 90.5t86 231.5 q0 143 -85 232t-220 89t-219 -87t-84 -230q0 -141 85 -233.5t218 -92.5z" glyph-name="six.aalt" horiz-adv-x="1290"/><glyph d="M272 0q74 887 555 1368v6h-802v213h1042v-235q-125 -121 -218 -259.5t-147.5 -263t-90.5 -278.5t-51 -273.5t-25 -277.5h-263z" glyph-name="seven.aalt" horiz-adv-x="1095"/><glyph d="M641 -31q-250 0 -408.5 129t-158.5 340q0 150 87 265.5t230 148.5v8q-102 35 -168.5 131t-66.5 215q0 178 136 295t347 117t348 -117t137 -295q0 -121 -66.5 -217t-170.5 -129v-8q143 -35 230 -151.5t87 -262.5q0 -211 -157.5 -340t-405.5 -129zM643 934 q109 0 180.5 69.5t71.5 176.5q0 109 -71.5 178t-180.5 69q-111 0 -182.5 -68.5t-71.5 -174.5q0 -109 71.5 -179.5t182.5 -70.5zM637 170q139 0 229 83t90 212q0 127 -90 209t-229 82t-228.5 -82t-89.5 -209q0 -129 89.5 -212t228.5 -83z" glyph-name="eight.aalt" horiz-adv-x="1277"/><glyph d="M594 -31q-356 0 -502 328l193 96q47 -104 118.5 -159.5t186.5 -55.5q104 0 179 52.5t113 137.5t55 171t17 178q-125 -158 -360 -158q-227 0 -368.5 140.5t-141.5 374t154.5 388t388.5 154.5q252 0 405.5 -179.5t155.5 -543.5q6 -924 -594 -924zM620.5 760 q135.5 0 219.5 88t84 229.5t-85 233.5t-218.5 92t-219.5 -90t-86 -231.5t85 -231.5t220.5 -90z" glyph-name="nine.aalt" horiz-adv-x="1290"/><glyph d="M651 -14q-182 0 -280.5 103.5t-114.5 262.5q0 14 -2 21q-23 -14 -68 -49t-63 -48l-57 113q31 25 93 71t93 70v560q0 272 106.5 397t268.5 125q152 0 229.5 -101.5t77.5 -253.5q0 -188 -125 -376.5t-363 -395.5v-57q0 -135 74 -209t174.5 -74t186.5 64.5t139 155.5l92 -91 q-162 -288 -461 -288zM449 670q342 342 342 581q0 219 -160 219q-72 0 -127 -83.5t-55 -270.5v-446z" glyph-name="glyph617" horiz-adv-x="1171"/><glyph d="M1018 -20q-375 0 -641 237.5t-266 575.5q0 340 266 579.5t641 239.5q377 0 643 -239.5t266 -579.5v-23h-1468q-14 0 -15 -8v-445q0 -23 21 -51q233 -244 555 -243q172 0 324.5 72.5t263.5 199.5h125q-123 -145 -311.5 -230t-403.5 -85zM459 815h1124q10 0 10 12v447 q0 37 -22 53q-236 236 -551 236q-311 0 -553 -242q-23 -27 -23 -53v-441q1 -12 15 -12z" glyph-name="glyph618" horiz-adv-x="2004"/><glyph d="M-516 905v111q57 4 97 22.5t61.5 42t33 63.5t13.5 70.5t2 79.5h-185v293h351v-293q0 -174 -81 -273.5t-292 -115.5z" glyph-name="glyph619"/><glyph d="M-1233 43l-108 104l1253 1254l111 -103z" glyph-name="uni0338.aalt"/><glyph d="M-473 1700l199 297h225l-252 -297h-172zM-389 1298q-131 0 -212 73t-81 216h147q0 -88 40 -131t105.5 -43t105.5 44t40 130h152q0 -143 -82 -216t-215 -73z" glyph-name="uni0306_acutecomb.ccmp"/><glyph d="M-473 1700l-254 297h225l201 -297h-172zM-389 1298q-131 0 -212 73t-81 216h147q0 -88 40 -131t105.5 -43t105.5 44t40 130h152q0 -143 -82 -216t-215 -73z" glyph-name="uni0306_gravecomb.ccmp"/><glyph d="M-455 1681v127q125 16 125 99q0 33 -22.5 54t-61.5 21q-49 0 -94 -36l-57 92q78 47 168 47q96 0 154.5 -48t58.5 -124q0 -119 -135 -158v-74h-136zM-389 1298q-131 0 -212 73t-81 216h147q0 -88 40 -131t105.5 -43t105.5 44t40 130h152q0 -143 -82 -216t-215 -73z" glyph-name="uni0306_hookabovecomb.ccmp"/><glyph d="M-246 1733q-53 0 -94 21.5t-63.5 47t-53 47t-63.5 21.5q-74 0 -70 -123h-121q0 252 174 252q72 0 119 -35t84 -68.5t78 -33.5q72 0 72 135h118q0 -264 -180 -264zM-389 1298q-131 0 -212 73t-81 216h147q0 -88 40 -131t105.5 -43t105.5 44t40 130h152q0 -143 -82 -216 t-215 -73z" glyph-name="uni0306_tildecomb.ccmp"/><glyph d="M-8 1997l-252 -297h-172l199 297h225zM-444 1587h194l195 -297h-189l-102 170l-103 -170h-190z" glyph-name="uni0302_acutecomb.ccmp"/><glyph d="M-260 1700h-172l-254 297h225zM-55 1290h-189l-102 170l-103 -170h-190l195 297h194z" glyph-name="uni0302_gravecomb.ccmp"/><glyph d="M-373 1982q-49 0 -94 -36l-57 92q78 47 168 47q96 0 154.5 -48t58.5 -124q0 -119 -136 -158v-74h-135v127q125 16 125 99q0 33 -22.5 54t-61.5 21zM-55 1290h-189l-102 170l-103 -170h-190l195 297h194z" glyph-name="uni0302_hookabovecomb.ccmp"/><glyph d="M-477 1870q-74 0 -70 -123h-121q0 252 174 252q72 0 119 -35t84 -68.5t78 -33.5q72 0 72 135h118q0 -264 -180 -264q-53 0 -94 21.5t-63.5 47t-53 47t-63.5 21.5zM-444 1587h194l195 -297h-189l-102 170l-103 -170h-190z" glyph-name="uni0302_tildecomb.ccmp"/><glyph d="M336 1260q-96 0 -165 68.5t-69 168.5q0 98 69 166t165 68q53 0 98 -23l137 160h254l-280 -262q27 -45 26 -109q0 -98 -68.5 -167.5t-166.5 -69.5zM336 1391q45 0 75.5 30.5t30.5 73.5t-30.5 75t-75.5 32q-47 0 -75 -29t-28 -78q0 -45 30 -74.5t73 -29.5z" glyph-name="glyph629" horiz-adv-x="858"/><glyph d="M1126 1733l226 264h252l-285 -264h-193zM180 1733l226 262h251l-284 -262h-193zM150 0v1587h249v-1587h-249zM664 0v215h172q133 0 195.5 62.5t62.5 218.5v1091h252v-1118q0 -242 -120 -355.5t-354 -113.5h-208z" glyph-name="glyph630" horiz-adv-x="1587"/><glyph d="M156 1323l225 264h252l-285 -264h-192zM733 1323l225 264h252l-284 -264h-193zM131 0v1178h238v-1178h-238zM440 -410v177h113q76 0 115 46t39 124v1241h239v-1254q0 -154 -92 -244t-262 -90h-152z" glyph-name="glyph631" horiz-adv-x="1204"/></font>
</defs>
</svg>
